OptimisticAI_Medium.ufo
<glyph name="A.alt" format="2">
  <advance width="1320"/>
  <outline>
    <contour>
      <point x="285.6012338949914" y="302.4923325729669" type="move"/>
      <point x="285.59342189499137" y="302.4923325729669"/>
      <point x="285.5856088949914" y="302.48842557296666"/>
      <point x="285.57779689499137" y="302.48842557296666" type="curve"/>
      <point x="285.5856088949914" y="302.48842557296666"/>
      <point x="285.59342189499137" y="302.4923325729669"/>
      <point x="285.6012338949914" y="302.4923325729669" type="curve"/>
    </contour>
    <contour>
      <point x="55.01138989499134" y="0.00014457296674663667" type="move"/>
      <point x="48.968421894991366" y="0.00014457296674663667"/>
      <point x="42.819983894991424" y="1.0040515729670005"/>
      <point x="36.79263989499134" y="3.1212385729668313" type="curve"/>
      <point x="8.132483894991424" y="13.183738572966831"/>
      <point x="-6.94173410500855" y="44.57436357296683"/>
      <point x="3.1207658949914503" y="73.23061357296683" type="curve"/>
      <point x="197.66763989499134" y="627.3438945729667" type="line"/>
      <point x="216.37076589499145" y="680.6134255729667"/>
      <point x="266.8668588949914" y="716.4024885729668"/>
      <point x="323.3199838949914" y="716.4024885729668" type="curve"/>
      <point x="379.5699838949913" y="716.4024885729668"/>
      <point x="430.0035778949914" y="680.7892075729669"/>
      <point x="448.8199838949913" y="627.7813945729667" type="curve"/>
      <point x="448.8785778949914" y="627.6212385729668"/>
      <point x="448.93326589499134" y="627.4610825729669"/>
      <point x="448.9879528949914" y="627.3009255729667" type="curve"/>
      <point x="458.2418588949913" y="600.4493635729668"/>
      <point x="468.69888989499145" y="569.1251445729667"/>
      <point x="479.7731088949913" y="535.9610825729669" type="curve"/>
      <point x="495.2535778949914" y="489.59389457296675"/>
      <point x="511.26138989499145" y="441.65248857296683"/>
      <point x="524.5543588949913" y="404.285301572967" type="curve"/>
      <point x="535.8512338949913" y="372.53139457296675"/>
      <point x="541.4801398949915" y="344.62123857296683"/>
      <point x="541.7652968949915" y="318.95717557296666" type="curve"/>
      <point x="541.9488898949915" y="302.60561357296683"/>
      <point x="538.0426398949915" y="280.11342557296666"/>
      <point x="527.8473278949914" y="269.46889457296675" type="curve"/>
      <point x="547.8004528949914" y="263.70717557296666"/>
      <point x="571.9645158949913" y="244.85170757296692"/>
      <point x="580.2887338949913" y="226.42201957296675" type="curve"/>
      <point x="612.1207658949913" y="155.93373857296683"/>
      <point x="644.7184218949915" y="75.81264457296675"/>
      <point x="644.9684218949915" y="75.18373857296683" type="curve"/>
      <point x="656.1051398949915" y="46.92201957296675"/>
      <point x="642.2301398949915" y="14.984519572966747"/>
      <point x="613.9723278949914" y="3.8478015729670005" type="curve"/>
      <point x="585.7574838949913" y="-7.2771984270329995"/>
      <point x="553.8746718949915" y="6.543113572966831"/>
      <point x="542.6871718949915" y="34.71498857296683" type="curve"/>
      <point x="533.6910778949914" y="57.15639457296675"/>
      <point x="524.2106088949913" y="79.41420757296692"/>
      <point x="514.7457658949913" y="101.66420757296692" type="curve"/>
      <point x="506.9567028949914" y="119.98451957296675"/>
      <point x="499.0699838949913" y="138.26967557296666"/>
      <point x="491.0387338949913" y="156.48451957296675" type="curve"/>
      <point x="483.9098278949914" y="172.65248857296683"/>
      <point x="480.6949838949913" y="187.472801572967"/>
      <point x="460.04263989499145" y="188.75014457296675" type="curve"/>
      <point x="445.0777968949915" y="189.67592557296666"/>
      <point x="387.87076589499134" y="174.23061357296683"/>
      <point x="365.7965468949915" y="170.15639457296675" type="curve"/>
      <point x="349.2106088949914" y="168.26576957296675"/>
      <point x="332.84342189499137" y="167.222801572967"/>
      <point x="316.49967189499137" y="168.87514457296675" type="curve"/>
      <point x="292.26529689499137" y="171.07436357296683"/>
      <point x="267.35904689499137" y="175.20326957296675"/>
      <point x="248.36685889499142" y="191.46498857296683" type="curve"/>
      <point x="225.69888989499134" y="209.68373857296683"/>
      <point x="219.12467189499137" y="243.722801572967"/>
      <point x="233.88638989499134" y="268.77748857296683" type="curve"/>
      <point x="244.23404689499137" y="287.847801572967"/>
      <point x="265.5035778949914" y="297.67592557296666"/>
      <point x="285.81217189499137" y="302.535301572967" type="curve"/>
      <point x="320.2418588949914" y="309.58998857296683"/>
      <point x="344.6793588949914" y="312.0548325729669"/>
      <point x="430.6090468949915" y="305.972801572967" type="curve"/>
      <point x="433.2848278949914" y="316.21498857296683"/>
      <point x="431.9215468949915" y="336.50014457296675"/>
      <point x="420.9215468949915" y="367.41811357296683" type="curve"/>
      <point x="407.2692028949914" y="405.79701957296675"/>
      <point x="391.08951589499134" y="454.2579575729669"/>
      <point x="375.4410778949914" y="501.129051572967" type="curve"/>
      <point x="364.49576589499134" y="533.9024885729668"/>
      <point x="354.15592189499137" y="564.8673325729669"/>
      <point x="345.1012338949914" y="591.1524885729668" type="curve"/>
      <point x="341.78092189499137" y="600.285301572967"/>
      <point x="333.0504528949914" y="606.4063945729667"/>
      <point x="323.3199838949914" y="606.4063945729667" type="curve"/>
      <point x="313.49576589499145" y="606.4063945729667"/>
      <point x="304.7067028949914" y="600.1759255729667"/>
      <point x="301.45279689499137" y="590.9063945729667" type="curve"/>
      <point x="106.90592189499137" y="36.79311357296683" type="line"/>
      <point x="98.96060889499142" y="14.160301572967"/>
      <point x="77.71060889499142" y="0.00014457296674663667"/>
      <point x="55.01138989499134" y="0.00014457296674663667" type="curve"/>
    </contour>
  </outline>
</glyph>
<glyph name="A" format="2">
  <advance width="1320"/>
  <outline>
    <contour>
      <point x="76.01138989499134" y="1.8189894035458565e-12" type="move"/>
      <point x="69.96842189499137" y="1.8189894035458565e-12"/>
      <point x="63.819983894991424" y="1.0078130000019883"/>
      <point x="57.79263989499134" y="3.1210940000019036" type="curve"/>
      <point x="29.132483894991424" y="13.183594000001904"/>
      <point x="14.05826589499145" y="44.574219000001904"/>
      <point x="24.12076589499145" y="73.23437500000182" type="curve"/>
      <point x="218.66763989499134" y="627.3476560000017" type="line"/>
      <point x="237.37076589499145" y="680.6132820000021"/>
      <point x="287.8668588949914" y="716.4023440000019"/>
      <point x="344.3199838949914" y="716.4023440000019" type="curve"/>
      <point x="400.5699838949913" y="716.4023440000019"/>
      <point x="451.0035778949914" y="680.7929690000019"/>
      <point x="469.8199838949913" y="627.7851560000017" type="curve"/>
      <point x="469.8785778949914" y="627.6250000000018"/>
      <point x="469.93326589499134" y="627.4648440000019"/>
      <point x="469.9918588949913" y="627.3007820000021" type="curve"/>
      <point x="575.4801398949915" y="321.1523440000019" type="line"/>
      <point x="585.9801398949915" y="291.4335940000019"/>
      <point x="587.4020158949913" y="262.9960940000019"/>
      <point x="579.9645158949913" y="238.39062500000182" type="curve"/>
      <point x="603.4059218949915" y="219.10937500000182"/>
      <point x="621.3043588949913" y="191.97265600000173"/>
      <point x="633.9293588949913" y="156.80078200000207" type="curve"/>
      <point x="665.9957658949913" y="75.10937500000182" type="line"/>
      <point x="677.0973278949914" y="46.83593800000199"/>
      <point x="663.1715468949915" y="14.917969000001904"/>
      <point x="634.8981088949913" y="3.8203130000019883" type="curve"/>
      <point x="606.6246718949915" y="-7.281249999998181"/>
      <point x="574.7067028949914" y="6.644532000002073"/>
      <point x="563.6090468949915" y="34.917969000001904" type="curve"/>
      <point x="531.2262338949913" y="117.40625000000182" type="line"/>
      <point x="531.0074838949913" y="117.96875000000182"/>
      <point x="530.7965468949915" y="118.53125000000182"/>
      <point x="530.5934218949915" y="119.10156300000199" type="curve"/>
      <point x="524.2184218949915" y="137.0585940000019"/>
      <point x="516.8356088949913" y="148.79687500000182"/>
      <point x="508.02701589499134" y="154.98437500000182" type="curve"/>
      <point x="499.1793588949913" y="161.1992190000019"/>
      <point x="485.5152968949915" y="164.2460940000019"/>
      <point x="466.24576589499134" y="164.30078200000207" type="curve"/>
      <point x="304.45279689499137" y="164.30078200000207" type="line"/>
      <point x="274.0856088949914" y="164.30078200000207"/>
      <point x="249.46842189499137" y="188.91015600000173"/>
      <point x="249.4567028949914" y="219.2773440000019" type="curve"/>
      <point x="249.44498389499142" y="249.64453200000207"/>
      <point x="274.04654689499137" y="274.273438000002"/>
      <point x="304.4137338949914" y="274.2968750000018" type="curve"/>
      <point x="305.63638989499134" y="274.2968750000018"/>
      <point x="413.1598278949914" y="274.3867190000019"/>
      <point x="452.0777968949915" y="274.2968750000018" type="curve"/>
      <point x="452.1402968949915" y="274.2968750000018"/>
      <point x="468.7067028949914" y="274.0820320000021"/>
      <point x="476.37076589499134" y="268.91015600000173" type="curve"/>
      <point x="475.98013989499145" y="271.3398440000019"/>
      <point x="473.18326589499134" y="280.5117190000019"/>
      <point x="471.73013989499145" y="284.6132820000021" type="curve"/>
      <point x="471.6715468949915" y="284.773438000002"/>
      <point x="471.6168588949913" y="284.9335940000019"/>
      <point x="471.5621718949915" y="285.0937500000018" type="curve"/>
      <point x="366.10513989499134" y="591.148438000002" type="line"/>
      <point x="362.7848278949914" y="600.2851560000017"/>
      <point x="354.0504528949914" y="606.4062500000018"/>
      <point x="344.3199838949914" y="606.4062500000018" type="curve"/>
      <point x="334.49576589499145" y="606.4062500000018"/>
      <point x="325.7067028949914" y="600.179688000002"/>
      <point x="322.45279689499137" y="590.9101560000017" type="curve"/>
      <point x="127.90592189499137" y="36.79687500000182" type="line"/>
      <point x="119.96060889499142" y="14.164063000001988"/>
      <point x="98.71060889499142" y="0.0039060000017343555"/>
      <point x="76.01138989499134" y="1.8189894035458565e-12" type="curve"/>
    </contour>
  </outline>
</glyph>
<glyph name="AE" format="2">
  <advance width="1990"/>
  <outline>
    <contour>
      <point x="1890" y="1205" type="line"/>
      <point x="1188" y="1205" type="line"/>
      <point x="1188" y="808" type="line"/>
      <point x="1758" y="808" type="line"/>
      <point x="1758" y="616" type="line"/>
      <point x="1188" y="616" type="line"/>
      <point x="1188" y="195" type="line"/>
      <point x="1906" y="195" type="line"/>
      <point x="1906" y="0" type="line"/>
      <point x="965" y="0" type="line"/>
      <point x="965" y="379" type="line"/>
      <point x="475" y="379" type="line"/>
      <point x="257" y="0" type="line"/>
      <point x="8" y="0" type="line"/>
      <point x="838" y="1400" type="line"/>
      <point x="1890" y="1400" type="line"/>
    </contour>
    <contour>
      <point x="965" y="1229" type="line"/>
      <point x="582" y="565" type="line"/>
      <point x="965" y="565" type="line"/>
    </contour>
  </outline>
</glyph>
<glyph name="B.alt" format="2">
  <advance width="1257"/>
  <outline>
    <contour>
      <point x="407.05468800000017" y="137.03125" type="move"/>
      <point x="396.17578100000014" y="124.69531199999983"/>
      <point x="377.046875" y="109.99609400000008"/>
      <point x="347.69531300000017" y="109.99609400000008" type="curve"/>
      <point x="114.99609400000008" y="109.99609400000008" type="line"/>
      <point x="112.234375" y="109.99609400000008"/>
      <point x="109.99609400000008" y="112.234375"/>
      <point x="109.99609400000008" y="114.99609400000008" type="curve"/>
      <point x="109.99609400000008" y="601.390625" type="line"/>
      <point x="109.99609400000008" y="604.1523440000001"/>
      <point x="112.234375" y="606.390625"/>
      <point x="114.99609400000008" y="606.390625" type="curve"/>
      <point x="277.597657" y="606.390625" type="line"/>
      <point x="313.9960940000001" y="606.390625"/>
      <point x="345.86718800000017" y="596.5546869999998"/>
      <point x="367.347657" y="578.6992179999997" type="curve"/>
      <point x="384.421875" y="564.5039059999999"/>
      <point x="393.8242190000001" y="546.0"/>
      <point x="393.8242190000001" y="526.6015619999998" type="curve"/>
      <point x="393.8242190000001" y="504.82421799999975"/>
      <point x="392.2460940000001" y="473.1523440000001"/>
      <point x="378.578125" y="449.6601559999999" type="curve"/>
      <point x="374.359375" y="442.40625"/>
      <point x="369.1679690000001" y="436.57421799999975"/>
      <point x="363.33593800000017" y="431.8945309999999" type="curve"/>
      <point x="340.359375" y="438.58593699999983"/>
      <point x="316.6679690000001" y="442.109375"/>
      <point x="293.20703100000014" y="442.109375" type="curve"/>
      <point x="271.691407" y="442.109375"/>
      <point x="255.34375" y="439.9726559999999"/>
      <point x="241.76953100000014" y="435.390625" type="curve"/>
      <point x="206.265625" y="423.4023440000001"/>
      <point x="193.61718800000017" y="395.22656199999983"/>
      <point x="193.61718800000017" y="372.85546799999975" type="curve"/>
      <point x="193.61718800000017" y="351.9570309999999"/>
      <point x="205.07421900000008" y="324.96875"/>
      <point x="237.21875" y="311.89843699999983" type="curve"/>
      <point x="251.828125" y="305.96093699999983"/>
      <point x="269.61718800000017" y="303.19531199999983"/>
      <point x="293.20703100000014" y="303.19531199999983" type="curve"/>
      <point x="321.24218800000017" y="303.19531199999983"/>
      <point x="345.42578100000014" y="306.71093699999983"/>
      <point x="366.27343800000017" y="312.64843699999983" type="curve"/>
      <point x="406.90625" y="289.3125"/>
      <point x="432.890625" y="248.62109400000008"/>
      <point x="432.890625" y="210.87109400000008" type="curve"/>
      <point x="432.890625" y="182.14453099999992"/>
      <point x="423.7148440000001" y="155.921875"/>
      <point x="407.05468800000017" y="137.03125" type="curve"/>
    </contour>
    <contour>
      <point x="462.9257809999999" y="378.01171799999975" type="move"/>
      <point x="466.9882809999999" y="383.50781199999983"/>
      <point x="470.546875" y="388.9960940000001"/>
      <point x="473.66015700000025" y="394.35156199999983" type="curve"/>
      <point x="500.69531300000017" y="440.828125"/>
      <point x="503.82031300000017" y="492.0898440000001"/>
      <point x="503.82031300000017" y="526.6015619999998" type="curve"/>
      <point x="503.82031300000017" y="552.9765619999998"/>
      <point x="497.88281300000017" y="578.4375"/>
      <point x="486.1679690000001" y="602.28125" type="curve"/>
      <point x="474.77343800000017" y="625.4726559999999"/>
      <point x="458.4570309999999" y="645.9960940000001"/>
      <point x="437.6679690000001" y="663.28125" type="curve"/>
      <point x="395.878907" y="698.0234369999998"/>
      <point x="340.5273440000001" y="716.3867179999997"/>
      <point x="277.597657" y="716.3867179999997" type="curve"/>
      <point x="55.589844000000085" y="716.3867179999997" type="line"/>
      <point x="55.48828100000014" y="716.3867179999997"/>
      <point x="55.390625" y="716.3789059999999"/>
      <point x="55.292969000000085" y="716.3789059999999" type="curve"/>
      <point x="55.19531300000017" y="716.3789059999999"/>
      <point x="55.09765700000003" y="716.3867179999997"/>
      <point x="55.0" y="716.3867179999997" type="curve"/>
      <point x="24.625" y="716.3867179999997"/>
      <point x="0.0" y="691.7617179999997"/>
      <point x="0.0" y="661.390625" type="curve"/>
      <point x="0.0" y="54.996094000000085" type="line"/>
      <point x="0.0" y="24.621094000000085"/>
      <point x="24.625" y="0.0"/>
      <point x="55.0" y="0.0" type="curve"/>
      <point x="56.58203100000014" y="0.0"/>
      <point x="58.14843800000017" y="0.08203099999991537"/>
      <point x="59.699219000000085" y="0.21484400000008463" type="curve"/>
      <point x="61.25" y="0.08203099999991537"/>
      <point x="62.81640700000003" y="0.0"/>
      <point x="64.40234400000008" y="0.0" type="curve"/>
      <point x="347.69531300000017" y="0.0" type="line"/>
      <point x="402.61718800000017" y="0.0"/>
      <point x="452.9960940000001" y="22.824217999999746"/>
      <point x="489.5507809999999" y="64.27343699999983" type="curve"/>
      <point x="523.9453130000002" y="103.26953099999992"/>
      <point x="542.8867190000001" y="155.33593699999983"/>
      <point x="542.8867190000001" y="210.87109400000008" type="curve"/>
      <point x="542.8867190000001" y="274.3398440000001"/>
      <point x="514.5039070000003" y="333.625"/>
      <point x="462.9257809999999" y="378.01171799999975" type="curve"/>
    </contour>
  </outline>
</glyph>
<glyph name="B" format="2">
  <advance width="1257"/>
  <outline>
    <contour>
      <point x="223.99609399999986" y="114.99609299999975" type="move"/>
      <point x="223.99609399999986" y="112.234375"/>
      <point x="226.23437599999988" y="109.99609299999975"/>
      <point x="228.99609399999986" y="109.99609299999975" type="curve"/>
      <point x="469.55859399999986" y="109.99609299999975" type="line"/>
      <point x="524.488282" y="109.99609299999975"/>
      <point x="549.503907" y="162.28906199999983"/>
      <point x="549.503907" y="210.875" type="curve"/>
      <point x="549.503907" y="234.87109299999975"/>
      <point x="541.2148439999999" y="254.8125"/>
      <point x="524.160157" y="271.83984299999975" type="curve"/>
      <point x="498.02343799999994" y="297.9375"/>
      <point x="457.80468799999994" y="309.99218699999983"/>
      <point x="436.33593799999994" y="310.55859299999975" type="curve"/>
      <point x="329.19531299999994" y="310.36718699999983" type="line"/>
      <point x="327.957032" y="310.3632809999999"/>
      <point x="326.878907" y="310.3632809999999"/>
      <point x="325.98046899999986" y="310.359375" type="curve"/>
      <point x="325.878907" y="310.359375" type="line"/>
      <point x="325.85156299999994" y="310.359375"/>
      <point x="325.8125" y="310.359375"/>
      <point x="325.77734399999986" y="310.359375" type="curve"/>
      <point x="295.191407" y="310.359375"/>
      <point x="270.4218759999999" y="335.33593699999983"/>
      <point x="270.785157" y="366.02734299999975" type="curve"/>
      <point x="271.144532" y="396.2382809999999"/>
      <point x="296.28906299999994" y="420.30468699999983"/>
      <point x="326.5" y="420.359375" type="curve"/>
      <point x="329.17968799999994" y="420.3632809999999" type="line"/>
      <point x="334.74609399999986" y="420.375"/>
      <point x="343.5" y="420.3945309999999"/>
      <point x="354.035157" y="420.41406199999983" type="curve"/>
      <point x="377.21875" y="420.46484299999975"/>
      <point x="409.0156259999999" y="420.5351559999999"/>
      <point x="434.519532" y="420.5742190000001" type="curve"/>
      <point x="435.410157" y="420.5742190000001"/>
      <point x="436.33593799999994" y="420.57031199999983"/>
      <point x="437.25" y="420.55859299999975" type="curve"/>
      <point x="447.816407" y="420.5742190000001" type="line"/>
      <point x="466.2656259999999" y="420.5742190000001"/>
      <point x="480.13281299999994" y="434.78125"/>
      <point x="488.53906299999994" y="446.6992190000001" type="curve"/>
      <point x="502.628907" y="466.67968699999983"/>
      <point x="511.03906299999994" y="494.08984299999975"/>
      <point x="511.03906299999994" y="520.0234369999998" type="curve"/>
      <point x="511.03906299999994" y="554.40625"/>
      <point x="476.7968759999999" y="606.3945309999999"/>
      <point x="425.17968799999994" y="606.3945309999999" type="curve"/>
      <point x="228.99609399999986" y="606.3945309999999" type="line"/>
      <point x="226.23437599999988" y="606.3945309999999"/>
      <point x="223.99609399999986" y="604.1523429999997"/>
      <point x="223.99609399999986" y="601.3945309999999" type="curve"/>
      <point x="223.99609399999986" y="114.99609299999975" type="line"/>
    </contour>
    <contour>
      <point x="469.55859399999986" y="0.0" type="move"/>
      <point x="169.0" y="0.0" type="line"/>
      <point x="138.625" y="0.0"/>
      <point x="114.0" y="24.625"/>
      <point x="114.0" y="55.0" type="curve"/>
      <point x="114.0" y="661.390625" type="line"/>
      <point x="114.0" y="691.765625"/>
      <point x="138.625" y="716.390625"/>
      <point x="169.0" y="716.390625" type="curve"/>
      <point x="425.17968799999994" y="716.390625" type="line"/>
      <point x="478.894532" y="716.390625"/>
      <point x="529.375" y="693.4179690000001"/>
      <point x="567.316407" y="651.7070309999999" type="curve"/>
      <point x="601.457032" y="614.171875"/>
      <point x="621.035157" y="566.1757809999999"/>
      <point x="621.035157" y="520.0234369999998" type="curve"/>
      <point x="621.035157" y="471.53125"/>
      <point x="608.7304689999999" y="406.859375"/>
      <point x="560.84375" y="374.93359299999975" type="curve"/>
      <point x="621.6992189999999" y="347.0039059999999"/>
      <point x="659.5" y="264.0429690000001"/>
      <point x="659.5" y="210.875" type="curve"/>
      <point x="659.5" y="155.46093699999983"/>
      <point x="641.832032" y="103.796875"/>
      <point x="609.75" y="65.39453099999992" type="curve"/>
      <point x="574.519532" y="23.222655999999915"/>
      <point x="524.7343759999999" y="0.0"/>
      <point x="469.55859399999986" y="0.0" type="curve"/>
    </contour>
  </outline>
</glyph>
<glyph name="C" format="2">
  <advance width="1396"/>
  <outline>
    <contour>
      <point x="61" y="914"/>
      <point x="222" y="1240"/>
      <point x="516" y="1423"/>
      <point x="715" y="1423" type="qcurve"/>
      <point x="954" y="1423"/>
      <point x="1270" y="1171"/>
      <point x="1313" y="945" type="qcurve"/>
      <point x="1086" y="945" type="line"/>
      <point x="1058" y="1085"/>
      <point x="863" y="1233"/>
      <point x="715" y="1233" type="qcurve"/>
      <point x="584" y="1233"/>
      <point x="395" y="1099"/>
      <point x="293" y="859"/>
      <point x="293" y="700" type="qcurve"/>
      <point x="293" y="539"/>
      <point x="395" y="299"/>
      <point x="584" y="167"/>
      <point x="715" y="167" type="qcurve"/>
      <point x="1044" y="167"/>
      <point x="1105" y="470" type="qcurve"/>
      <point x="1333" y="470" type="line"/>
      <point x="1290" y="231"/>
      <point x="969" y="-23"/>
      <point x="715" y="-23" type="qcurve"/>
      <point x="516" y="-23"/>
      <point x="222" y="161"/>
      <point x="61" y="486"/>
    </contour>
  </outline>
</glyph>
<glyph name="D" format="2">
  <advance width="1380"/>
  <outline>
    <contour>
      <point x="223.99609400000008" y="114.99609299999975" type="move"/>
      <point x="223.99609400000008" y="112.234375"/>
      <point x="226.234375" y="109.99609299999975"/>
      <point x="228.99609400000008" y="109.99609299999975" type="curve"/>
      <point x="364.2070309999999" y="109.99609299999975" type="line"/>
      <point x="439.0507809999999" y="109.99609299999975"/>
      <point x="496.19531199999983" y="131.33984299999975"/>
      <point x="534.0625" y="173.42968699999983" type="curve"/>
      <point x="552.2617179999997" y="193.66406199999983"/>
      <point x="566.3398440000001" y="219.08984299999975"/>
      <point x="575.9023440000001" y="249.00781199999983" type="curve"/>
      <point x="586.0546869999998" y="280.7539059999999"/>
      <point x="591.1992179999997" y="317.64843699999983"/>
      <point x="591.1992179999997" y="358.671875" type="curve"/>
      <point x="591.1992179999997" y="441.33984299999975"/>
      <point x="571.6796869999998" y="504.24218699999983"/>
      <point x="533.1796869999998" y="545.625" type="curve"/>
      <point x="495.671875" y="585.9492190000001"/>
      <point x="438.82031199999983" y="606.3945309999999"/>
      <point x="364.2070309999999" y="606.3945309999999" type="curve"/>
      <point x="228.99609400000008" y="606.3945309999999" type="line"/>
      <point x="226.234375" y="606.3945309999999"/>
      <point x="223.99609400000008" y="604.1523429999997"/>
      <point x="223.99609400000008" y="601.3945309999999" type="curve"/>
      <point x="223.99609400000008" y="114.99609299999975" type="line"/>
    </contour>
    <contour>
      <point x="364.2070309999999" y="0.0" type="move"/>
      <point x="168.99609400000008" y="0.0" type="line"/>
      <point x="138.625" y="0.0"/>
      <point x="114.0" y="24.625"/>
      <point x="114.0" y="55.0" type="curve"/>
      <point x="114.0" y="661.390625" type="line"/>
      <point x="114.0" y="691.765625"/>
      <point x="138.625" y="716.390625"/>
      <point x="168.99609400000008" y="716.390625" type="curve"/>
      <point x="364.2070309999999" y="716.390625" type="line"/>
      <point x="415.9375" y="716.390625"/>
      <point x="463.109375" y="708.5039059999999"/>
      <point x="504.41796799999975" y="692.9570309999999" type="curve"/>
      <point x="547.234375" y="676.84375"/>
      <point x="584.0078119999998" y="652.4804690000001"/>
      <point x="613.71875" y="620.5429690000001" type="curve"/>
      <point x="643.0546869999998" y="589.0078119999998"/>
      <point x="665.3632809999999" y="550.1953119999998"/>
      <point x="680.0195309999999" y="505.1914059999999" type="curve"/>
      <point x="694.0703119999998" y="462.05859299999975"/>
      <point x="701.1953119999998" y="412.7617190000001"/>
      <point x="701.1953119999998" y="358.671875" type="curve"/>
      <point x="701.1953119999998" y="306.265625"/>
      <point x="694.2890619999998" y="258.10156199999983"/>
      <point x="680.6757809999999" y="215.515625" type="curve"/>
      <point x="666.3398440000001" y="170.66406199999983"/>
      <point x="644.5234369999998" y="131.75390599999992"/>
      <point x="615.8359369999998" y="99.86328099999992" type="curve"/>
      <point x="586.2578119999998" y="66.98046900000008"/>
      <point x="549.6015619999998" y="41.777342999999746"/>
      <point x="506.890625" y="24.953125" type="curve"/>
      <point x="464.8476559999999" y="8.39843699999983"/>
      <point x="416.84375" y="0.0"/>
      <point x="364.2070309999999" y="0.0" type="curve"/>
    </contour>
  </outline>
</glyph>
<glyph name="Dcroat" format="2">
  <advance width="1484"/>
  <outline>
    <contour>
      <point x="28" y="799" type="line"/>
      <point x="218" y="799" type="line"/>
      <point x="218" y="1400" type="line"/>
      <point x="721" y="1400" type="line"/>
      <point x="938" y="1400"/>
      <point x="1253" y="1221"/>
      <point x="1423" y="905"/>
      <point x="1423" y="495"/>
      <point x="1253" y="179"/>
      <point x="938" y="0"/>
      <point x="721" y="0" type="qcurve"/>
      <point x="218" y="0" type="line"/>
      <point x="218" y="605" type="line"/>
      <point x="28" y="605" type="line"/>
    </contour>
    <contour>
      <point x="774" y="605" type="line"/>
      <point x="441" y="605" type="line"/>
      <point x="441" y="199" type="line"/>
      <point x="720" y="199" type="line"/>
      <point x="867" y="199"/>
      <point x="1078" y="323"/>
      <point x="1192" y="549"/>
      <point x="1192" y="852"/>
      <point x="1078" y="1077"/>
      <point x="867" y="1201"/>
      <point x="720" y="1201" type="qcurve"/>
      <point x="441" y="1201" type="line"/>
      <point x="441" y="799" type="line"/>
      <point x="774" y="799" type="line"/>
    </contour>
  </outline>
</glyph>
<glyph name="E.alt" format="2">
  <advance width="1138"/>
  <outline>
    <contour>
      <point x="415.9726559999999" y="0.0" type="move"/>
      <point x="55.0" y="0.0" type="line"/>
      <point x="24.625" y="0.0"/>
      <point x="0.0" y="24.621094000000085"/>
      <point x="0.0" y="54.996094000000085" type="curve"/>
      <point x="0.0" y="277.5195309999999" type="line"/>
      <point x="0.0" y="298.6914059999999"/>
      <point x="7.164061999999831" y="330.171875"/>
      <point x="41.13281199999983" y="360.35156300000017" type="curve"/>
      <point x="39.16406199999983" y="362.27343699999983"/>
      <point x="37.265625" y="364.2304690000001"/>
      <point x="35.4375" y="366.2226559999999" type="curve"/>
      <point x="12.253905999999915" y="391.484375"/>
      <point x="0.0" y="423.0664059999999"/>
      <point x="0.0" y="457.5585940000001" type="curve"/>
      <point x="0.0" y="661.3867190000001" type="line"/>
      <point x="0.0" y="691.7617190000001"/>
      <point x="24.625" y="716.3867190000001"/>
      <point x="55.0" y="716.3867190000001" type="curve"/>
      <point x="403.75" y="716.3867190000001" type="line"/>
      <point x="433.97656199999983" y="716.3867190000001"/>
      <point x="459.171875" y="692.34375"/>
      <point x="459.5625" y="662.1171869999998" type="curve"/>
      <point x="459.96093800000017" y="631.4101559999999"/>
      <point x="435.1835940000001" y="606.390625"/>
      <point x="404.57031199999983" y="606.390625" type="curve"/>
      <point x="114.99609400000008" y="606.390625" type="line"/>
      <point x="112.234375" y="606.390625"/>
      <point x="109.99609400000008" y="604.1523440000001"/>
      <point x="109.99609400000008" y="601.390625" type="curve"/>
      <point x="109.99609400000008" y="457.5585940000001" type="line"/>
      <point x="109.99609400000008" y="450.7539059999999"/>
      <point x="109.99609400000008" y="436.59375"/>
      <point x="148.125" y="421.3320309999999" type="curve"/>
      <point x="150.30859400000008" y="420.46093699999983"/>
      <point x="152.54296900000008" y="419.61718699999983"/>
      <point x="154.82421900000008" y="418.8007809999999" type="curve"/>
      <point x="192.85546900000008" y="430.9570309999999"/>
      <point x="229.41796900000008" y="438.0117190000001"/>
      <point x="253.33203099999992" y="440.5976559999999" type="curve"/>
      <point x="284.6992190000001" y="443.9960940000001"/>
      <point x="317.3945309999999" y="445.4492190000001"/>
      <point x="342.1367190000001" y="423.24218699999983" type="curve"/>
      <point x="365.3789059999999" y="402.3789059999999"/>
      <point x="365.3789059999999" y="374.57031300000017"/>
      <point x="365.3789059999999" y="365.42968699999983" type="curve"/>
      <point x="365.3789059999999" y="342.8007809999999"/>
      <point x="356.5507809999999" y="322.5"/>
      <point x="340.515625" y="308.25781300000017" type="curve"/>
      <point x="313.2226559999999" y="284.0195309999999"/>
      <point x="275.83593800000017" y="285.28906300000017"/>
      <point x="250.08984400000008" y="288.3554690000001" type="curve"/>
      <point x="221.25781199999983" y="291.7851559999999"/>
      <point x="189.65234400000008" y="295.9804690000001"/>
      <point x="158.75" y="303.2773440000001" type="curve"/>
      <point x="149.515625" y="299.4648440000001"/>
      <point x="141.82031199999983" y="295.77343699999983"/>
      <point x="135.45703099999992" y="292.33593699999983" type="curve"/>
      <point x="119.78906199999983" y="283.86718699999983"/>
      <point x="109.99609400000008" y="267.53125"/>
      <point x="109.99609400000008" y="249.72265599999992" type="curve"/>
      <point x="109.99609400000008" y="114.99609400000008" type="line"/>
      <point x="109.99609400000008" y="112.23046900000008"/>
      <point x="112.234375" y="109.99609400000008"/>
      <point x="114.99609400000008" y="109.99609400000008" type="curve"/>
      <point x="415.1523440000001" y="109.99609400000008" type="line"/>
      <point x="445.38281199999983" y="109.99609400000008"/>
      <point x="470.5742190000001" y="85.94921900000008"/>
      <point x="470.96875" y="55.72656300000017" type="curve"/>
      <point x="471.3632809999999" y="25.015625"/>
      <point x="446.5898440000001" y="0.0"/>
      <point x="415.9726559999999" y="0.0" type="curve"/>
    </contour>
  </outline>
</glyph>
<glyph name="E" format="2">
  <advance width="1138"/>
  <outline>
    <contour>
      <point x="529.9726560000036" y="0.0" type="move"/>
      <point x="169.00000000000364" y="0.0" type="line"/>
      <point x="138.62500000000364" y="0.0"/>
      <point x="114.00000000000364" y="24.625"/>
      <point x="114.00000000000364" y="55.0" type="curve"/>
      <point x="114.00000000000364" y="278.25781199999983" type="line"/>
      <point x="114.00000000000364" y="311.234375"/>
      <point x="128.0468740000033" y="350.8320309999999"/>
      <point x="155.13671800000338" y="365.9101559999999" type="curve"/>
      <point x="125.19531200000347" y="383.62109299999975"/>
      <point x="114.00000000000364" y="421.50781199999983"/>
      <point x="114.00000000000364" y="453.6992190000001" type="curve"/>
      <point x="114.00000000000364" y="661.390625" type="line"/>
      <point x="114.00000000000364" y="691.765625"/>
      <point x="138.62500000000364" y="716.390625"/>
      <point x="169.00000000000364" y="716.390625" type="curve"/>
      <point x="517.7460930000034" y="716.390625" type="line"/>
      <point x="547.9726560000036" y="716.390625"/>
      <point x="573.1679680000034" y="692.34375"/>
      <point x="573.5625000000036" y="662.1210929999997" type="curve"/>
      <point x="573.9609370000035" y="631.4101559999999"/>
      <point x="549.1875000000036" y="606.3945309999999"/>
      <point x="518.5703120000035" y="606.3945309999999" type="curve"/>
      <point x="223.99609300000338" y="606.3945309999999" type="line"/>
      <point x="223.99609300000338" y="457.9492190000001" type="line"/>
      <point x="223.99609300000338" y="453.125"/>
      <point x="224.66796800000338" y="448.30468699999983"/>
      <point x="226.24609300000338" y="443.75" type="curve"/>
      <point x="230.8906240000033" y="430.33984299999975"/>
      <point x="241.52734300000338" y="421.47656199999983"/>
      <point x="257.49218700000347" y="421.74609299999975" type="curve"/>
      <point x="459.9023430000034" y="421.74609299999975" type="line"/>
      <point x="489.9492180000034" y="421.74609299999975"/>
      <point x="515.0585930000034" y="397.984375"/>
      <point x="515.7031240000033" y="367.94531199999983" type="curve"/>
      <point x="516.3593740000033" y="337.359375"/>
      <point x="491.9843740000033" y="312.1875"/>
      <point x="461.4960930000034" y="311.75781199999983" type="curve"/>
      <point x="460.42578100000355" y="311.74218699999983"/>
      <point x="353.06250000000364" y="310.234375"/>
      <point x="257.52343700000347" y="310.2070309999999" type="curve"/>
      <point x="240.7656240000033" y="310.4179690000001"/>
      <point x="230.12500000000364" y="300.92968699999983"/>
      <point x="225.7656240000033" y="286.62109299999975" type="curve"/>
      <point x="224.51953100000355" y="282.5351559999999"/>
      <point x="223.99609300000338" y="278.265625"/>
      <point x="223.99609300000338" y="273.99609299999975" type="curve"/>
      <point x="223.99609300000338" y="109.99609299999975" type="line"/>
      <point x="529.1523430000034" y="109.99609299999975" type="line"/>
      <point x="559.3789060000036" y="109.99609299999975"/>
      <point x="584.5742180000034" y="85.953125"/>
      <point x="584.9687500000036" y="55.730469000000085" type="curve"/>
      <point x="585.3671870000035" y="25.019530999999915"/>
      <point x="560.5937500000036" y="0.0"/>
      <point x="529.9726560000036" y="0.0" type="curve"/>
    </contour>
  </outline>
</glyph>
<glyph name="Eng" format="2">
  <advance width="1382"/>
  <outline>
    <contour>
      <point x="114" y="1400" type="line"/>
      <point x="366" y="1400" type="line"/>
      <point x="1052" y="353" type="line"/>
      <point x="1052" y="1400" type="line"/>
      <point x="1267" y="1400" type="line"/>
      <point x="1267" y="-67" type="line"/>
      <point x="1267" y="-239"/>
      <point x="1109" y="-393"/>
      <point x="936" y="-393" type="qcurve"/>
      <point x="897" y="-393"/>
      <point x="838" y="-385"/>
      <point x="807" y="-378" type="qcurve"/>
      <point x="807" y="-204" type="line"/>
      <point x="827" y="-208"/>
      <point x="871" y="-214"/>
      <point x="897" y="-214" type="qcurve"/>
      <point x="986" y="-214"/>
      <point x="1052" y="-142"/>
      <point x="1052" y="-56" type="qcurve"/>
      <point x="1052" y="1" type="line"/>
      <point x="330" y="1098" type="line"/>
      <point x="330" y="0" type="line"/>
      <point x="114" y="0" type="line"/>
    </contour>
  </outline>
</glyph>
<glyph name="Euro" format="2">
  <advance width="1170"/>
  <outline>
    <contour>
      <point x="5" y="622" type="line"/>
      <point x="183" y="622" type="line"/>
      <point x="181" y="656"/>
      <point x="181" y="692" type="qcurve"/>
      <point x="181" y="736"/>
      <point x="185" y="779" type="qcurve"/>
      <point x="5" y="779" type="line"/>
      <point x="5" y="934" type="line"/>
      <point x="213" y="934" type="line"/>
      <point x="255" y="1084"/>
      <point x="440" y="1303"/>
      <point x="706" y="1423"/>
      <point x="870" y="1423" type="qcurve"/>
      <point x="967" y="1423"/>
      <point x="1100" y="1404"/>
      <point x="1165" y="1381" type="qcurve"/>
      <point x="1165" y="1193" type="line"/>
      <point x="1104" y="1217"/>
      <point x="973" y="1239"/>
      <point x="882" y="1239" type="qcurve"/>
      <point x="724" y="1239"/>
      <point x="498" y="1077"/>
      <point x="447" y="934" type="qcurve"/>
      <point x="988" y="934" type="line"/>
      <point x="988" y="779" type="line"/>
      <point x="412" y="779" type="line"/>
      <point x="408" y="739"/>
      <point x="408" y="696" type="qcurve"/>
      <point x="408" y="658"/>
      <point x="411" y="622" type="qcurve"/>
      <point x="988" y="622" type="line"/>
      <point x="988" y="467" type="line"/>
      <point x="444" y="467" type="line"/>
      <point x="493" y="323"/>
      <point x="720" y="162"/>
      <point x="882" y="162" type="qcurve"/>
      <point x="973" y="162"/>
      <point x="1104" y="183"/>
      <point x="1165" y="208" type="qcurve"/>
      <point x="1165" y="20" type="line"/>
      <point x="1100" y="-3"/>
      <point x="967" y="-23"/>
      <point x="870" y="-23" type="qcurve"/>
      <point x="611" y="-23"/>
      <point x="265" y="238"/>
      <point x="208" y="467" type="qcurve"/>
      <point x="5" y="467" type="line"/>
    </contour>
  </outline>
</glyph>
<glyph name="F.alt" format="2">
  <advance width="1098"/>
  <outline>
    <contour>
      <point x="54.26562600000398" y="0.00473966784102231" type="move"/>
      <point x="24.042969000003723" y="0.3953646678410223"/>
      <point x="3.637978807091713e-12" y="25.59067766784119"/>
      <point x="3.637978807091713e-12" y="55.81723966784102" type="curve"/>
      <point x="3.637978807091713e-12" y="277.520364667841" type="line"/>
      <point x="3.637978807091713e-12" y="298.692239667841"/>
      <point x="7.164063000003807" y="330.1727086678411"/>
      <point x="41.13281300000381" y="360.3523966678413" type="curve"/>
      <point x="39.16406300000381" y="362.27427066784094"/>
      <point x="37.26171900000372" y="364.2313026678412"/>
      <point x="35.43359400000372" y="366.223489667841" type="curve"/>
      <point x="12.250000000003638" y="391.4852086678411"/>
      <point x="3.637978807091713e-12" y="423.067239667841"/>
      <point x="3.637978807091713e-12" y="457.5594276678412" type="curve"/>
      <point x="3.637978807091713e-12" y="661.3875526678412" type="line"/>
      <point x="3.637978807091713e-12" y="691.7625526678412"/>
      <point x="24.621094000003723" y="716.3875526678412"/>
      <point x="54.99609400000372" y="716.3875526678412" type="curve"/>
      <point x="403.7460940000037" y="716.3875526678412" type="line"/>
      <point x="433.9726570000039" y="716.3875526678412"/>
      <point x="459.1679690000037" y="692.3445836678411"/>
      <point x="459.5585940000037" y="662.1180206678409" type="curve"/>
      <point x="459.9570320000039" y="631.410989667841"/>
      <point x="435.1835940000037" y="606.3914586678411"/>
      <point x="404.5664070000039" y="606.3914586678411" type="curve"/>
      <point x="114.99609400000372" y="606.3914586678411" type="line"/>
      <point x="112.23437600000398" y="606.3914586678411"/>
      <point x="109.99609400000372" y="604.1531776678412"/>
      <point x="109.99609400000372" y="601.3914586678411" type="curve"/>
      <point x="109.99609400000372" y="457.5594276678412" type="line"/>
      <point x="109.99609400000372" y="450.754739667841"/>
      <point x="109.99609400000372" y="436.5945836678411"/>
      <point x="148.12109400000372" y="421.332864667841" type="curve"/>
      <point x="150.3046880000038" y="420.46177066784094"/>
      <point x="152.54296900000372" y="419.61802066784094"/>
      <point x="154.8203130000038" y="418.801614667841" type="curve"/>
      <point x="192.8515630000038" y="430.957864667841"/>
      <point x="229.4140630000038" y="438.0125526678412"/>
      <point x="253.3320320000039" y="440.598489667841" type="curve"/>
      <point x="284.6953130000038" y="443.9969276678412"/>
      <point x="317.390626000004" y="445.4500526678412"/>
      <point x="342.1328130000038" y="423.24302066784094" type="curve"/>
      <point x="365.3789070000039" y="402.379739667841"/>
      <point x="365.3789070000039" y="374.5711466678413"/>
      <point x="365.3789070000039" y="365.43052066784094" type="curve"/>
      <point x="365.3789070000039" y="342.801614667841"/>
      <point x="356.546876000004" y="322.5008336678411"/>
      <point x="340.5117190000037" y="308.2586466678413" type="curve"/>
      <point x="313.21875000000364" y="284.020364667841"/>
      <point x="275.8359380000038" y="285.2898966678413"/>
      <point x="250.0859380000038" y="288.3563026678412" type="curve"/>
      <point x="221.2578130000038" y="291.785989667841"/>
      <point x="189.6484380000038" y="295.9813026678412"/>
      <point x="158.75000000000364" y="303.2781776678412" type="curve"/>
      <point x="149.82421900000372" y="299.5945836678411"/>
      <point x="142.33984400000372" y="296.02427066784094"/>
      <point x="136.10546900000372" y="292.6844276678412" type="curve"/>
      <point x="120.00390700000389" y="284.067239667841"/>
      <point x="109.99218800000381" y="267.2508336678411"/>
      <point x="109.99218800000381" y="248.9852086678411" type="curve"/>
      <point x="109.99609400000372" y="54.99692766784119" type="line"/>
      <point x="109.99609400000372" y="24.379739667841022"/>
      <point x="84.97656300000381" y="-0.3936973321588084"/>
      <point x="54.26562600000398" y="0.00473966784102231" type="curve"/>
    </contour>
  </outline>
</glyph>
<glyph name="F" format="2">
  <advance width="1098"/>
  <outline>
    <contour>
      <point x="114" y="1400" type="line"/>
      <point x="1035" y="1400" type="line"/>
      <point x="1035" y="1205" type="line"/>
      <point x="337" y="1205" type="line"/>
      <point x="337" y="773" type="line"/>
      <point x="910" y="773" type="line"/>
      <point x="910" y="578" type="line"/>
      <point x="337" y="578" type="line"/>
      <point x="337" y="0" type="line"/>
      <point x="114" y="0" type="line"/>
    </contour>
  </outline>
</glyph>
<glyph name="G" format="2">
  <advance width="1399"/>
  <outline>
    <contour>
      <point x="61" y="920"/>
      <point x="221" y="1244"/>
      <point x="508" y="1423"/>
      <point x="696" y="1423" type="qcurve"/>
      <point x="938" y="1423"/>
      <point x="1252" y="1206"/>
      <point x="1304" y="1001" type="qcurve"/>
      <point x="1066" y="1001" type="line"/>
      <point x="990" y="1233"/>
      <point x="701" y="1233" type="qcurve"/>
      <point x="580" y="1233"/>
      <point x="394" y="1103"/>
      <point x="289" y="864"/>
      <point x="289" y="700" type="qcurve"/>
      <point x="289" y="454"/>
      <point x="536" y="167"/>
      <point x="763" y="167" type="qcurve"/>
      <point x="861" y="167"/>
      <point x="1034" y="215"/>
      <point x="1096" y="261" type="qcurve"/>
      <point x="1096" y="552" type="line"/>
      <point x="690" y="552" type="line"/>
      <point x="690" y="739" type="line"/>
      <point x="1314" y="739" type="line"/>
      <point x="1314" y="168" type="line"/>
      <point x="1093" y="-23"/>
      <point x="742" y="-23" type="qcurve"/>
      <point x="532" y="-23"/>
      <point x="226" y="156"/>
      <point x="61" y="480"/>
    </contour>
  </outline>
</glyph>
<glyph name="H" format="2">
  <advance width="1382"/>
  <outline>
    <contour>
      <point x="114" y="1400" type="line"/>
      <point x="337" y="1400" type="line"/>
      <point x="337" y="802" type="line"/>
      <point x="1044" y="802" type="line"/>
      <point x="1044" y="1400" type="line"/>
      <point x="1267" y="1400" type="line"/>
      <point x="1267" y="0" type="line"/>
      <point x="1044" y="0" type="line"/>
      <point x="1044" y="602" type="line"/>
      <point x="337" y="602" type="line"/>
      <point x="337" y="0" type="line"/>
      <point x="114" y="0" type="line"/>
    </contour>
  </outline>
</glyph>
<glyph name="I" format="2">
  <advance width="452"/>
  <outline>
    <contour>
      <point x="169.0" y="0.0" type="move"/>
      <point x="138.625" y="0.0"/>
      <point x="114.0" y="24.625"/>
      <point x="114.0" y="55.0" type="curve"/>
      <point x="114.0" y="661.390625" type="line"/>
      <point x="114.0" y="691.765625"/>
      <point x="138.625" y="716.390625"/>
      <point x="169.0" y="716.390625" type="curve"/>
      <point x="199.375" y="716.390625"/>
      <point x="223.99609299999975" y="691.765625"/>
      <point x="223.99609299999975" y="661.390625" type="curve"/>
      <point x="223.99609299999975" y="55.0" type="line"/>
      <point x="223.99609299999975" y="24.625"/>
      <point x="199.375" y="0.0"/>
      <point x="169.0" y="0.0" type="curve"/>
    </contour>
  </outline>
</glyph>
<glyph name="IJ" format="2">
  <advance width="1142"/>
  <outline>
    <contour>
      <point x="816" y="466" type="qcurve"/>
      <point x="816" y="1400" type="line"/>
      <point x="1039" y="1400" type="line"/>
      <point x="1039" y="469" type="line"/>
      <point x="1039" y="232"/>
      <point x="797" y="-23"/>
      <point x="568" y="-23" type="qcurve"/>
      <point x="366" y="-23"/>
      <point x="133" y="183"/>
      <point x="102" y="408" type="qcurve"/>
      <point x="330" y="408" type="line"/>
      <point x="349" y="277"/>
      <point x="464" y="170"/>
      <point x="567" y="170" type="qcurve"/>
      <point x="689" y="170"/>
      <point x="816" y="321"/>
    </contour>
    <contour>
      <point x="102" y="1400" type="line"/>
      <point x="326" y="1400" type="line"/>
      <point x="326" y="563" type="line"/>
      <point x="102" y="563" type="line"/>
    </contour>
  </outline>
</glyph>
<glyph name="J" format="2">
  <advance width="1082"/>
  <outline>
    <contour>
      <point x="756" y="466" type="qcurve"/>
      <point x="756" y="1400" type="line"/>
      <point x="979" y="1400" type="line"/>
      <point x="979" y="469" type="line"/>
      <point x="979" y="232"/>
      <point x="737" y="-23"/>
      <point x="508" y="-23" type="qcurve"/>
      <point x="306" y="-23"/>
      <point x="73" y="183"/>
      <point x="43" y="408" type="qcurve"/>
      <point x="270" y="408" type="line"/>
      <point x="289" y="277"/>
      <point x="404" y="170"/>
      <point x="507" y="170" type="qcurve"/>
      <point x="629" y="170"/>
      <point x="756" y="321"/>
    </contour>
  </outline>
</glyph>
<glyph name="K.alt" format="2">
  <advance width="1219"/>
  <outline>
    <contour>
      <point x="481.78125000000364" y="0.0" type="move"/>
      <point x="463.74218700000347" y="0.0"/>
      <point x="446.0742180000034" y="8.863280999999915"/>
      <point x="435.5468740000033" y="25.14062399999966" type="curve"/>
      <point x="434.87500000000364" y="26.175780999999915"/>
      <point x="367.62890600000355" y="130.16015599999992"/>
      <point x="295.7968740000033" y="242.22265599999992" type="curve"/>
      <point x="286.55468700000347" y="256.64062399999966"/>
      <point x="287.66406200000347" y="271.75781199999983"/>
      <point x="281.8906240000033" y="302.77343699999983" type="curve"/>
      <point x="231.66406200000347" y="228.89843699999983"/>
      <point x="164.5468740000033" y="128.85937399999966"/>
      <point x="100.61718700000347" y="33.92187399999966" type="curve"/>
      <point x="86.69140600000355" y="13.246092999999746"/>
      <point x="60.527343000003384" y="4.445311999999831"/>
      <point x="36.81640600000355" y="12.734373999999661" type="curve"/>
      <point x="14.566406000003553" y="20.51562399999966"/>
      <point x="3.637978807091713e-12" y="41.94531199999983"/>
      <point x="3.637978807091713e-12" y="65.51562399999966" type="curve"/>
      <point x="3.637978807091713e-12" y="670.2148429999997" type="line"/>
      <point x="3.637978807091713e-12" y="700.4375"/>
      <point x="24.042968000003384" y="725.6328119999998"/>
      <point x="54.2656240000033" y="726.0273429999997" type="curve"/>
      <point x="84.97656200000347" y="726.4257809999999"/>
      <point x="109.99218700000347" y="701.6523429999997"/>
      <point x="109.99218700000347" y="671.0351559999999" type="curve"/>
      <point x="109.99218700000347" y="254.19531199999983" type="line"/>
      <point x="109.99218700000347" y="251.23828099999992"/>
      <point x="113.81640600000355" y="250.05859299999975"/>
      <point x="115.47656200000347" y="252.50781199999983" type="curve"/>
      <point x="162.54296800000338" y="322.03906199999983"/>
      <point x="215.82031200000347" y="400.47656199999983"/>
      <point x="262.73828100000355" y="468.8945309999999" type="curve"/>
      <point x="263.53125000000364" y="473.0625"/>
      <point x="264.3867180000034" y="477.26171799999975"/>
      <point x="265.30078100000355" y="481.4726559999999" type="curve"/>
      <point x="281.16406200000347" y="554.4726559999999"/>
      <point x="316.0273430000034" y="630.5859369999998"/>
      <point x="358.56640600000355" y="685.0742179999997" type="curve"/>
      <point x="364.17578100000355" y="692.2617179999997"/>
      <point x="394.25000000000364" y="728.2773429999997"/>
      <point x="435.34765600000355" y="731.4218739999997" type="curve"/>
      <point x="455.62890600000355" y="732.9765619999998"/>
      <point x="474.80468700000347" y="726.2968739999997"/>
      <point x="489.3398430000034" y="712.6171869999998" type="curve"/>
      <point x="489.70703100000355" y="712.2734369999998"/>
      <point x="490.07031200000347" y="711.9179679999997"/>
      <point x="490.42968700000347" y="711.5625" type="curve"/>
      <point x="499.96093700000347" y="702.0820309999999"/>
      <point x="514.7265620000035" y="680.9804679999997"/>
      <point x="506.53515600000355" y="646.1484369999998" type="curve"/>
      <point x="504.24218700000347" y="636.3906239999997"/>
      <point x="500.24218700000347" y="625.7773429999997"/>
      <point x="494.30468700000347" y="613.6992179999997" type="curve"/>
      <point x="485.3906240000033" y="595.5546869999998"/>
      <point x="474.01953100000355" y="578.1171869999998"/>
      <point x="468.55468700000347" y="570.8203119999998" type="curve"/>
      <point x="468.37890600000355" y="570.5859369999998"/>
      <point x="468.1992180000034" y="570.3476559999999"/>
      <point x="468.0156240000033" y="570.1171869999998" type="curve"/>
      <point x="456.72656200000347" y="555.5468739999997"/>
      <point x="429.5742180000034" y="517.1054679999997"/>
      <point x="389.53125000000364" y="459.1289059999999" type="curve"/>
      <point x="371.7929680000034" y="433.44921799999975"/>
      <point x="363.34375000000364" y="402.37109299999975"/>
      <point x="366.2031240000033" y="371.29296799999975" type="curve"/>
      <point x="366.22265600000355" y="371.11718699999983"/>
      <point x="366.23828100000355" y="370.9414059999999"/>
      <point x="366.25390600000355" y="370.76562399999966" type="curve"/>
      <point x="368.80078100000355" y="343.80859299999975"/>
      <point x="376.25390600000355" y="320.53125"/>
      <point x="388.39843700000347" y="301.58593699999983" type="curve"/>
      <point x="460.1093740000033" y="189.71484299999975"/>
      <point x="527.2382810000036" y="85.91015599999992"/>
      <point x="527.9101560000036" y="84.875" type="curve"/>
      <point x="544.4062500000036" y="59.371092999999746"/>
      <point x="537.1015620000035" y="25.32031199999983"/>
      <point x="511.59765600000355" y="8.824217999999746" type="curve"/>
      <point x="502.36718700000347" y="2.855467999999746"/>
      <point x="492.0117180000034" y="0.003905999999915366"/>
      <point x="481.78125000000364" y="0.0" type="curve"/>
    </contour>
  </outline>
</glyph>
<glyph name="K" format="2">
  <advance width="1219"/>
  <outline>
    <contour>
      <point x="114" y="1400" type="line"/>
      <point x="337" y="1400" type="line"/>
      <point x="337" y="733" type="line"/>
      <point x="916" y="1400" type="line"/>
      <point x="1190" y="1400" type="line"/>
      <point x="669" y="821" type="line"/>
      <point x="1220" y="0" type="line"/>
      <point x="948" y="0" type="line"/>
      <point x="521" y="657" type="line"/>
      <point x="337" y="452" type="line"/>
      <point x="337" y="0" type="line"/>
      <point x="114" y="0" type="line"/>
    </contour>
  </outline>
</glyph>
<glyph name="L" format="2">
  <advance width="1096"/>
  <outline>
    <contour>
      <point x="223.99609299999975" y="55.0" type="move"/>
      <point x="224.00781199999983" y="55.0" type="line"/>
      <point x="223.99609299999975" y="55.0" type="line"/>
    </contour>
    <contour>
      <point x="532.6210929999997" y="0.0" type="move"/>
      <point x="169.0" y="0.0" type="line"/>
      <point x="138.625" y="0.0"/>
      <point x="114.0" y="24.625"/>
      <point x="114.0" y="55.0" type="curve"/>
      <point x="114.0" y="661.390625" type="line"/>
      <point x="114.0" y="691.765625"/>
      <point x="138.625" y="716.390625"/>
      <point x="168.99609299999975" y="716.390625" type="curve"/>
      <point x="199.37109299999975" y="716.390625"/>
      <point x="223.99609299999975" y="691.765625"/>
      <point x="223.99609299999975" y="661.390625" type="curve"/>
      <point x="223.99609299999975" y="114.99609299999975" type="line"/>
      <point x="223.99609299999975" y="112.234375"/>
      <point x="226.23437399999966" y="109.99609299999975"/>
      <point x="228.99609299999975" y="109.99609299999975" type="curve"/>
      <point x="533.4414059999999" y="109.99609299999975" type="line"/>
      <point x="564.0585929999997" y="109.99609299999975"/>
      <point x="588.8359369999998" y="84.98046900000008"/>
      <point x="588.4375" y="54.269530999999915" type="curve"/>
      <point x="588.0429679999997" y="24.046875"/>
      <point x="562.8476559999999" y="0.0"/>
      <point x="532.6210929999997" y="0.0" type="curve"/>
    </contour>
  </outline>
</glyph>
<glyph name="M.alt" format="2">
  <advance width="1655"/>
  <outline>
    <contour>
      <point x="642.5195320000003" y="714.0751446728746" type="move"/>
      <point x="619.2421880000002" y="721.0438946728746"/>
      <point x="594.1484380000002" y="711.9110816728744"/>
      <point x="580.7929690000001" y="691.6103006728745" type="curve"/>
      <point x="572.46875" y="678.9540506728745"/>
      <point x="427.25" y="474.1806126728743"/>
      <point x="340.8710940000001" y="354.9149876728743" type="curve"/>
      <point x="254.49218800000017" y="474.1806126728743"/>
      <point x="109.27343800000017" y="678.9540506728745"/>
      <point x="100.94921900000008" y="691.6103006728745" type="curve"/>
      <point x="87.59765700000025" y="711.9110816728744"/>
      <point x="62.503907000000254" y="721.0438946728746"/>
      <point x="39.22656300000017" y="714.0751446728746" type="curve"/>
      <point x="15.94531300000017" y="707.1063946728746"/>
      <point x="0.0" y="685.6884256728745"/>
      <point x="0.0" y="661.3876446728746" type="curve"/>
      <point x="0.0" y="55.81733167287439" type="line"/>
      <point x="0.0" y="25.59076867287422"/>
      <point x="24.04687600000034" y="0.39545667287438846"/>
      <point x="54.269532000000254" y="0.00483167287438846" type="curve"/>
      <point x="84.97656300000017" y="-0.3975123271256962"/>
      <point x="109.99609400000008" y="24.37983167287439"/>
      <point x="109.99609400000008" y="54.99701867287422" type="curve"/>
      <point x="109.99609400000008" y="478.7860816728744" type="line"/>
      <point x="109.99609400000008" y="481.7079566728744"/>
      <point x="113.74218800000017" y="482.9110816728744"/>
      <point x="115.4375" y="480.5321756728745" type="curve"/>
      <point x="169.08593800000017" y="405.2235816728744"/>
      <point x="231.21093800000017" y="318.5556126728743"/>
      <point x="272.39453200000025" y="262.1259256728745" type="curve"/>
      <point x="274.29687600000034" y="259.5165506728745"/>
      <point x="274.76562600000034" y="256.1337376728743"/>
      <point x="273.64062600000034" y="253.10639467287456" type="curve"/>
      <point x="273.625" y="253.06342567287447" type="line"/>
      <point x="265.70312600000034" y="231.65326867287422"/>
      <point x="257.10937600000034" y="199.4306126728743"/>
      <point x="266.83203200000025" y="164.84076867287422" type="curve"/>
      <point x="274.59765700000025" y="137.21967567287447"/>
      <point x="297.5429690000001" y="99.36030067287447"/>
      <point x="340.8710940000001" y="99.36030067287447" type="curve"/>
      <point x="383.33593800000017" y="99.36030067287447"/>
      <point x="408.27343800000017" y="138.21576867287422"/>
      <point x="414.91015700000025" y="164.84076867287422" type="curve"/>
      <point x="423.60156300000017" y="199.70405067287447"/>
      <point x="416.0429690000001" y="231.65326867287422"/>
      <point x="408.11718800000017" y="253.06342567287447" type="curve"/>
      <point x="408.10156300000017" y="253.10639467287456" type="line"/>
      <point x="406.9804690000001" y="256.1337376728743"/>
      <point x="407.44531300000017" y="259.5165506728745"/>
      <point x="409.34765700000025" y="262.1259256728745" type="curve"/>
      <point x="450.53515700000025" y="318.5556126728743"/>
      <point x="512.65625" y="405.2235816728744"/>
      <point x="566.3085940000001" y="480.5321756728745" type="curve"/>
      <point x="568.0" y="482.9110816728744"/>
      <point x="571.7460940000001" y="481.7079566728744"/>
      <point x="571.7460940000001" y="478.7860816728744" type="curve"/>
      <point x="571.7460940000001" y="55.81733167287439" type="line"/>
      <point x="571.7460940000001" y="25.59076867287422"/>
      <point x="595.7890630000002" y="0.39545667287438846"/>
      <point x="626.0156260000003" y="0.00483167287438846" type="curve"/>
      <point x="656.7226570000003" y="-0.3936053271254423"/>
      <point x="681.7421880000002" y="24.37983167287439"/>
      <point x="681.7421880000002" y="54.99701867287422" type="curve"/>
      <point x="681.7421880000002" y="661.3876446728746" type="line"/>
      <point x="681.7421880000002" y="685.6884256728745"/>
      <point x="665.7968760000003" y="707.1063946728746"/>
      <point x="642.5195320000003" y="714.0751446728746" type="curve"/>
    </contour>
  </outline>
</glyph>
<glyph name="M" format="2">
  <advance width="1655"/>
  <outline>
    <contour>
      <point x="114" y="1400" type="line"/>
      <point x="381" y="1400" type="line"/>
      <point x="829" y="540" type="line"/>
      <point x="1276" y="1400" type="line"/>
      <point x="1541" y="1400" type="line"/>
      <point x="1541" y="0" type="line"/>
      <point x="1324" y="0" type="line"/>
      <point x="1324" y="1097" type="line"/>
      <point x="928" y="336" type="line"/>
      <point x="725" y="336" type="line"/>
      <point x="331" y="1089" type="line"/>
      <point x="331" y="0" type="line"/>
      <point x="114" y="0" type="line"/>
    </contour>
  </outline>
</glyph>
<glyph name="N" format="2">
  <advance width="1382"/>
  <outline>
    <contour>
      <point x="623.2304690000001" y="0.0" type="move"/>
      <point x="606.234375" y="0.0"/>
      <point x="589.7929690000001" y="7.898438000000169"/>
      <point x="579.2070309999999" y="22.03125" type="curve"/>
      <point x="232.99609400000008" y="484.21875" type="line"/>
      <point x="230.11328099999992" y="488.06640700000025"/>
      <point x="223.99609400000008" y="486.0273440000001"/>
      <point x="223.99609400000008" y="481.22265700000025" type="curve"/>
      <point x="223.99609400000008" y="55.824219000000085" type="line"/>
      <point x="223.99609400000008" y="25.597657000000254"/>
      <point x="199.94921900000008" y="0.40234400000008463"/>
      <point x="169.72656199999983" y="0.011719000000084634" type="curve"/>
      <point x="139.015625" y="-0.3867179999997461"/>
      <point x="114.0" y="24.386719000000085"/>
      <point x="114.0" y="55.003907000000254" type="curve"/>
      <point x="114.0" y="661.3945320000003" type="line"/>
      <point x="114.0" y="685.0742190000001"/>
      <point x="129.15234400000008" y="706.09375"/>
      <point x="151.62109400000008" y="713.5742190000001" type="curve"/>
      <point x="174.08593800000017" y="721.0546880000002"/>
      <point x="198.81640599999992" y="713.3203130000002"/>
      <point x="213.015625" y="694.3671880000002" type="curve"/>
      <point x="559.2226559999999" y="232.17968800000017" type="line"/>
      <point x="562.1054690000001" y="228.33203200000025"/>
      <point x="568.2265619999998" y="230.37109400000008"/>
      <point x="568.2265619999998" y="235.17578200000025" type="curve"/>
      <point x="568.2265619999998" y="660.5742190000001" type="line"/>
      <point x="568.2265619999998" y="690.8007820000003"/>
      <point x="592.2695309999999" y="715.9960940000001"/>
      <point x="622.4921880000002" y="716.3867190000001" type="curve"/>
      <point x="653.203125" y="716.7851570000003"/>
      <point x="678.2226559999999" y="692.0117190000001"/>
      <point x="678.2226559999999" y="661.3945320000003" type="curve"/>
      <point x="678.2226559999999" y="55.886719000000085" type="line"/>
      <point x="678.2226559999999" y="31.97656300000017"/>
      <point x="663.2226559999999" y="10.32031300000017"/>
      <point x="640.5234380000002" y="2.7968760000003385" type="curve"/>
      <point x="634.8359380000002" y="0.9101570000002539"/>
      <point x="629.0" y="0.0"/>
      <point x="623.2304690000001" y="0.0" type="curve"/>
    </contour>
  </outline>
</glyph>
<glyph name="O" format="2">
  <advance width="1469"/>
  <outline>
    <contour>
      <point x="397.98828200000025" y="611.9765619999998" type="move"/>
      <point x="323.875" y="611.9765619999998"/>
      <point x="267.3085940000001" y="590.6054690000001"/>
      <point x="229.86328200000025" y="548.453125" type="curve"/>
      <point x="190.80078200000025" y="504.4804690000001"/>
      <point x="170.99609400000008" y="437.71093800000017"/>
      <point x="170.99609400000008" y="349.9882809999999" type="curve"/>
      <point x="170.99609400000008" y="306.515625"/>
      <point x="176.21484400000008" y="267.3867190000001"/>
      <point x="186.50781300000017" y="233.67578099999992" type="curve"/>
      <point x="196.22265700000025" y="201.84765599999992"/>
      <point x="210.50781300000017" y="174.82031199999983"/>
      <point x="228.96484400000008" y="153.33593800000017" type="curve"/>
      <point x="266.7773440000001" y="109.31640599999992"/>
      <point x="323.64843800000017" y="86.99609400000008"/>
      <point x="397.98828200000025" y="86.99609400000008" type="curve"/>
      <point x="472.32812600000034" y="86.99609400000008"/>
      <point x="529.1992190000001" y="109.31640599999992"/>
      <point x="567.0117190000001" y="153.33593800000017" type="curve"/>
      <point x="585.46875" y="174.82031199999983"/>
      <point x="599.7539070000003" y="201.84765599999992"/>
      <point x="609.46875" y="233.67578099999992" type="curve"/>
      <point x="619.7617190000001" y="267.3867190000001"/>
      <point x="624.9804690000001" y="306.515625"/>
      <point x="624.9804690000001" y="349.9882809999999" type="curve"/>
      <point x="624.9804690000001" y="437.71093800000017"/>
      <point x="605.1757820000003" y="504.4804690000001"/>
      <point x="566.1132820000003" y="548.453125" type="curve"/>
      <point x="528.6679690000001" y="590.6054690000001"/>
      <point x="472.10156300000017" y="611.9765619999998"/>
      <point x="397.98828200000025" y="611.9765619999998" type="curve"/>
    </contour>
    <contour>
      <point x="397.98828200000025" y="-23.0" type="move"/>
      <point x="345.05078200000025" y="-23.0"/>
      <point x="296.76953200000025" y="-14.15625"/>
      <point x="254.49218800000017" y="3.28125" type="curve"/>
      <point x="211.71093800000017" y="20.925780999999915"/>
      <point x="175.04687600000034" y="47.296875"/>
      <point x="145.52734400000008" y="81.65625" type="curve"/>
      <point x="117.09765700000025" y="114.75390599999992"/>
      <point x="95.48828200000025" y="155.09375"/>
      <point x="81.30468800000017" y="201.55859400000008" type="curve"/>
      <point x="67.83203200000025" y="245.68359400000008"/>
      <point x="61.0" y="295.625"/>
      <point x="61.0" y="349.9882809999999" type="curve"/>
      <point x="61.0" y="465.4492190000001"/>
      <point x="90.14843800000017" y="556.8007809999999"/>
      <point x="147.62890700000025" y="621.5039059999999" type="curve"/>
      <point x="177.28906300000017" y="654.890625"/>
      <point x="214.08203200000025" y="680.390625"/>
      <point x="256.98437600000034" y="697.3007809999999" type="curve"/>
      <point x="298.5273440000001" y="713.671875"/>
      <point x="345.96875" y="721.9726559999999"/>
      <point x="397.98828200000025" y="721.9726559999999" type="curve"/>
      <point x="450.00781300000017" y="721.9726559999999"/>
      <point x="497.4492190000001" y="713.671875"/>
      <point x="538.9921880000002" y="697.3007809999999" type="curve"/>
      <point x="581.8945320000003" y="680.390625"/>
      <point x="618.6875" y="654.890625"/>
      <point x="648.3476570000003" y="621.5039059999999" type="curve"/>
      <point x="705.8281260000003" y="556.8007809999999"/>
      <point x="734.9765630000002" y="465.4492190000001"/>
      <point x="734.9765630000002" y="349.9882809999999" type="curve"/>
      <point x="734.9765630000002" y="295.625"/>
      <point x="728.1445320000003" y="245.68359400000008"/>
      <point x="714.6718760000003" y="201.55859400000008" type="curve"/>
      <point x="700.4882820000003" y="155.09375"/>
      <point x="678.8789070000003" y="114.75390599999992"/>
      <point x="650.4492190000001" y="81.65625" type="curve"/>
      <point x="620.9296880000002" y="47.296875"/>
      <point x="584.2656260000003" y="20.925780999999915"/>
      <point x="541.4843760000003" y="3.28125" type="curve"/>
      <point x="499.20703200000025" y="-14.15625"/>
      <point x="450.92578200000025" y="-23.0"/>
      <point x="397.98828200000025" y="-23.0" type="curve"/>
    </contour>
  </outline>
</glyph>
<glyph name="OE" format="2">
  <advance width="2197"/>
  <outline>
    <contour>
      <point x="61" y="911"/>
      <point x="222" y="1237"/>
      <point x="520" y="1423"/>
      <point x="723" y="1423" type="qcurve"/>
      <point x="1048" y="1423"/>
      <point x="1174" y="1161" type="qcurve"/>
      <point x="1174" y="1400" type="line"/>
      <point x="2098" y="1400" type="line"/>
      <point x="2098" y="1205" type="line"/>
      <point x="1395" y="1205" type="line"/>
      <point x="1395" y="808" type="line"/>
      <point x="1966" y="808" type="line"/>
      <point x="1966" y="616" type="line"/>
      <point x="1395" y="616" type="line"/>
      <point x="1395" y="195" type="line"/>
      <point x="2114" y="195" type="line"/>
      <point x="2114" y="0" type="line"/>
      <point x="1174" y="0" type="line"/>
      <point x="1174" y="239" type="line"/>
      <point x="1048" y="-23"/>
      <point x="723" y="-23" type="qcurve"/>
      <point x="520" y="-23"/>
      <point x="222" y="163"/>
      <point x="61" y="489"/>
    </contour>
    <contour>
      <point x="291" y="863"/>
      <point x="291" y="538"/>
      <point x="400" y="299"/>
      <point x="599" y="168"/>
      <point x="871" y="168"/>
      <point x="1070" y="299"/>
      <point x="1178" y="538"/>
      <point x="1178" y="863"/>
      <point x="1070" y="1101"/>
      <point x="871" y="1232"/>
      <point x="599" y="1232"/>
      <point x="400" y="1101"/>
    </contour>
  </outline>
</glyph>
<glyph name="Oslash" format="2">
  <advance width="1469"/>
  <outline>
    <contour>
      <point x="61" y="700" type="qcurve"/>
      <point x="61" y="911"/>
      <point x="223" y="1237"/>
      <point x="526" y="1423"/>
      <point x="735" y="1423" type="qcurve"/>
      <point x="846" y="1423"/>
      <point x="1037" y="1368"/>
      <point x="1114" y="1317" type="qcurve"/>
      <point x="1237" y="1468" type="line"/>
      <point x="1389" y="1353" type="line"/>
      <point x="1255" y="1188" type="line"/>
      <point x="1408" y="994"/>
      <point x="1408" y="700" type="qcurve"/>
      <point x="1408" y="489"/>
      <point x="1246" y="163"/>
      <point x="944" y="-23"/>
      <point x="735" y="-23" type="qcurve"/>
      <point x="623" y="-23"/>
      <point x="432" y="32"/>
      <point x="355" y="83" type="qcurve"/>
      <point x="232" y="-68" type="line"/>
      <point x="80" y="47" type="line"/>
      <point x="214" y="212" type="line"/>
      <point x="61" y="406"/>
    </contour>
    <contour>
      <point x="1180" y="882"/>
      <point x="1112" y="1012" type="qcurve"/>
      <point x="483" y="241" type="line"/>
      <point x="589" y="165"/>
      <point x="735" y="165" type="qcurve"/>
      <point x="872" y="165"/>
      <point x="1071" y="296"/>
      <point x="1180" y="537"/>
      <point x="1180" y="700" type="qcurve"/>
    </contour>
    <contour>
      <point x="986" y="1159" type="line"/>
      <point x="880" y="1235"/>
      <point x="735" y="1235" type="qcurve"/>
      <point x="598" y="1235"/>
      <point x="398" y="1104"/>
      <point x="289" y="864"/>
      <point x="289" y="700" type="qcurve"/>
      <point x="289" y="518"/>
      <point x="357" y="388" type="qcurve"/>
    </contour>
  </outline>
</glyph>
<glyph name="P.alt" format="2">
  <advance width="1220"/>
  <outline>
    <contour>
      <point x="109.99609400000008" y="534.9296869999998" type="move"/>
      <point x="109.99609400000008" y="484.6875"/>
      <point x="116.57031300000017" y="442.4257809999999"/>
      <point x="129.54296900000008" y="409.32031199999983" type="curve"/>
      <point x="139.59765700000025" y="383.64843699999983"/>
      <point x="153.66406300000017" y="363.35546799999975"/>
      <point x="171.34765700000025" y="349.0039059999999" type="curve"/>
      <point x="183.77734400000008" y="338.91406199999983"/>
      <point x="214.37890700000025" y="319.51562399999966"/>
      <point x="265.60156300000017" y="319.51171799999975" type="curve"/>
      <point x="280.09765700000025" y="319.51171799999975"/>
      <point x="296.234375" y="321.0664059999999"/>
      <point x="314.08593800000017" y="324.82031199999983" type="curve"/>
      <point x="342.234375" y="330.7382809999999"/>
      <point x="368.234375" y="346.6289059999999"/>
      <point x="387.2929690000001" y="369.55859299999975" type="curve"/>
      <point x="408.578125" y="395.16796799999975"/>
      <point x="419.8320309999999" y="427.9726559999999"/>
      <point x="419.8320309999999" y="464.43359299999975" type="curve"/>
      <point x="419.8320309999999" y="486.78906199999983"/>
      <point x="416.1679690000001" y="529.125"/>
      <point x="391.640625" y="561.4921869999998" type="curve"/>
      <point x="368.13281300000017" y="592.5117179999997"/>
      <point x="330.41015700000025" y="607.5898429999997"/>
      <point x="276.32031300000017" y="607.5898429999997" type="curve"/>
      <point x="114.99609400000008" y="607.5898429999997" type="line"/>
      <point x="112.234375" y="607.5898429999997"/>
      <point x="109.99609400000008" y="605.3515619999998"/>
      <point x="109.99609400000008" y="602.5898429999997" type="curve"/>
      <point x="109.99609400000008" y="534.9296869999998" type="line"/>
    </contour>
    <contour>
      <point x="55.0" y="0.0" type="move"/>
      <point x="24.625" y="0.0"/>
      <point x="0.0" y="24.625"/>
      <point x="0.0" y="55.0" type="curve"/>
      <point x="0.0" y="662.5859369999998" type="line"/>
      <point x="0.0" y="692.9609369999998"/>
      <point x="24.625" y="717.5859369999998"/>
      <point x="55.0" y="717.5859369999998" type="curve"/>
      <point x="276.32031300000017" y="717.5859369999998" type="line"/>
      <point x="387.9335940000001" y="717.5859369999998"/>
      <point x="448.3125" y="668.8281239999997"/>
      <point x="479.3085940000001" y="627.9257809999999" type="curve"/>
      <point x="511.8867190000001" y="584.9375"/>
      <point x="529.828125" y="526.875"/>
      <point x="529.828125" y="464.43359299999975" type="curve"/>
      <point x="529.828125" y="401.9726559999999"/>
      <point x="509.78906300000017" y="344.85156199999983"/>
      <point x="471.88281300000017" y="299.25" type="curve"/>
      <point x="437.03906300000017" y="257.32812399999966"/>
      <point x="389.03906300000017" y="228.18359299999975"/>
      <point x="336.72265700000025" y="217.17968699999983" type="curve"/>
      <point x="311.484375" y="211.87109299999975"/>
      <point x="272.234375" y="206.64062399999966"/>
      <point x="228.58203099999992" y="211.87890599999992" type="curve"/>
      <point x="183.30468800000017" y="217.3125"/>
      <point x="143.46875" y="232.62109299999975"/>
      <point x="109.99609400000008" y="257.41796799999975" type="curve"/>
      <point x="109.99609400000008" y="55.0" type="line"/>
      <point x="109.99609400000008" y="24.625"/>
      <point x="85.375" y="0.0"/>
      <point x="55.0" y="0.0" type="curve"/>
    </contour>
  </outline>
</glyph>
<glyph name="P" format="2">
  <advance width="1220"/>
  <outline>
    <contour>
      <point x="114" y="1400" type="line"/>
      <point x="660" y="1400" type="line"/>
      <point x="902" y="1400"/>
      <point x="1162" y="1160"/>
      <point x="1162" y="721"/>
      <point x="902" y="481"/>
      <point x="660" y="481" type="qcurve"/>
      <point x="337" y="481" type="line"/>
      <point x="337" y="0" type="line"/>
      <point x="114" y="0" type="line"/>
    </contour>
    <contour>
      <point x="935" y="1205"/>
      <point x="637" y="1205" type="qcurve"/>
      <point x="337" y="1205" type="line"/>
      <point x="337" y="676" type="line"/>
      <point x="637" y="676" type="line"/>
      <point x="935" y="676"/>
    </contour>
  </outline>
</glyph>
<glyph name="Q.alt" format="2">
  <advance width="1469"/>
  <outline>
    <contour>
      <point x="336.9882809999999" y="718.75" type="move"/>
      <point x="262.875" y="718.75"/>
      <point x="206.30859400000008" y="697.3789070000003"/>
      <point x="168.859375" y="655.2265630000002" type="curve"/>
      <point x="129.80078099999992" y="611.2578130000002"/>
      <point x="109.99609400000008" y="544.4843760000003"/>
      <point x="109.99609400000008" y="456.7617190000001" type="curve"/>
      <point x="109.99609400000008" y="413.28906300000017"/>
      <point x="115.21484400000008" y="374.16015700000025"/>
      <point x="125.50390599999992" y="340.4492190000001" type="curve"/>
      <point x="135.21875" y="308.6210940000001"/>
      <point x="149.50390599999992" y="281.59375"/>
      <point x="167.96093699999983" y="260.10937600000034" type="curve"/>
      <point x="205.77734400000008" y="216.08984400000008"/>
      <point x="262.6445309999999" y="193.76953200000025"/>
      <point x="336.9882809999999" y="193.76953200000025" type="curve"/>
      <point x="363.66406199999983" y="193.76953200000025"/>
      <point x="446.8007809999999" y="211.14453200000025"/>
      <point x="484.71093699999983" y="203.16406300000017" type="curve"/>
      <point x="481.91796799999975" y="207.26953200000025"/>
      <point x="464.97656199999983" y="222.89062600000034"/>
      <point x="462.2226559999999" y="226.94140700000025" type="curve"/>
      <point x="457.13281199999983" y="234.42187600000034"/>
      <point x="449.44531199999983" y="239.68359400000008"/>
      <point x="440.6757809999999" y="241.92187600000034" type="curve"/>
      <point x="440.63281199999983" y="241.93359400000008"/>
      <point x="440.58593699999983" y="241.94531300000017"/>
      <point x="440.54296799999975" y="241.95703200000025" type="curve"/>
      <point x="400.6132809999999" y="252.19140700000025"/>
      <point x="362.5664059999999" y="275.0117190000001"/>
      <point x="327.46093699999983" y="309.78906300000017" type="curve"/>
      <point x="297.8789059999999" y="339.09765700000025"/>
      <point x="281.890625" y="374.84375"/>
      <point x="283.5976559999999" y="407.86718800000017" type="curve"/>
      <point x="284.8789059999999" y="432.64843800000017"/>
      <point x="295.94531199999983" y="454.625"/>
      <point x="314.7539059999999" y="469.75" type="curve"/>
      <point x="340.15625" y="490.1835940000001"/>
      <point x="364.9414059999999" y="490.80468800000017"/>
      <point x="381.3710940000001" y="488.36328200000025" type="curve"/>
      <point x="452.125" y="477.83203200000025"/>
      <point x="485.328125" y="391.6367190000001"/>
      <point x="493.35546799999975" y="344.8242190000001" type="curve"/>
      <point x="493.9726559999999" y="345.0585940000001"/>
      <point x="512.59375" y="350.9375"/>
      <point x="513.203125" y="351.19140700000025" type="curve"/>
      <point x="549.1015619999998" y="366.16015700000025"/>
      <point x="573.21875" y="410.92578200000025"/>
      <point x="573.21875" y="462.58593800000017" type="curve"/>
      <point x="573.21875" y="548.3007820000003"/>
      <point x="552.328125" y="613.5898440000001"/>
      <point x="511.1210940000001" y="656.6328130000002" type="curve"/>
      <point x="471.66406199999983" y="697.8515630000002"/>
      <point x="413.07421799999975" y="718.75"/>
      <point x="336.9882809999999" y="718.75" type="curve"/>
    </contour>
    <contour>
      <point x="646.4648440000001" y="0.0" type="move"/>
      <point x="628.953125" y="0.0"/>
      <point x="611.7421869999998" y="8.34375"/>
      <point x="601.078125" y="23.871094000000085" type="curve"/>
      <point x="601.0703119999998" y="23.878907000000254"/>
      <point x="601.0664059999999" y="23.886719000000085"/>
      <point x="601.0585940000001" y="23.89843800000017" type="curve"/>
      <point x="601.0" y="23.98437600000034" type="line"/>
      <point x="598.2148440000001" y="28.03906300000017"/>
      <point x="585.7539059999999" y="44.621094000000085"/>
      <point x="559.2890619999998" y="83.26953200000025" type="curve"/>
      <point x="551.4882809999999" y="92.03515700000025"/>
      <point x="537.4609369999998" y="100.23828200000025"/>
      <point x="527.2773440000001" y="101.41015700000025" type="curve"/>
      <point x="506.0664059999999" y="103.84765700000025"/>
      <point x="475.35546799999975" y="104.3125"/>
      <point x="444.125" y="97.93359400000008" type="curve"/>
      <point x="411.6210940000001" y="91.29687600000034"/>
      <point x="374.7773440000001" y="83.77343800000017"/>
      <point x="336.9882809999999" y="83.77343800000017" type="curve"/>
      <point x="284.046875" y="83.77343800000017"/>
      <point x="235.765625" y="92.61718800000017"/>
      <point x="193.48828099999992" y="110.05468800000017" type="curve"/>
      <point x="150.70703099999992" y="127.69921900000008"/>
      <point x="114.046875" y="154.07031300000017"/>
      <point x="84.52734400000008" y="188.42968800000017" type="curve"/>
      <point x="56.097655999999915" y="221.52734400000008"/>
      <point x="34.488280999999915" y="261.86718800000017"/>
      <point x="20.300780999999915" y="308.33203200000025" type="curve"/>
      <point x="6.832030999999915" y="352.46093800000017"/>
      <point x="0.0" y="402.39843800000017"/>
      <point x="0.0" y="456.7617190000001" type="curve"/>
      <point x="0.0" y="572.2226570000003"/>
      <point x="29.144530999999915" y="663.5742190000001"/>
      <point x="86.62890599999992" y="728.2773440000001" type="curve"/>
      <point x="116.28515599999992" y="761.6640630000002"/>
      <point x="153.078125" y="787.1640630000002"/>
      <point x="195.98046799999975" y="804.0742190000001" type="curve"/>
      <point x="237.52343699999983" y="820.4453130000002"/>
      <point x="284.9648440000001" y="828.7460940000001"/>
      <point x="336.9882809999999" y="828.7460940000001" type="curve"/>
      <point x="388.8398440000001" y="828.7460940000001"/>
      <point x="436.3945309999999" y="820.8945320000003"/>
      <point x="478.32421799999975" y="805.40625" type="curve"/>
      <point x="522.1015619999998" y="789.2382820000003"/>
      <point x="559.8671869999998" y="764.7773440000001"/>
      <point x="590.578125" y="732.6953130000002" type="curve"/>
      <point x="621.3671869999998" y="700.53125"/>
      <point x="644.8632809999999" y="660.8867190000001"/>
      <point x="660.4101559999999" y="614.8632820000003" type="curve"/>
      <point x="675.5429679999997" y="570.0703130000002"/>
      <point x="683.2148440000001" y="518.8359380000002"/>
      <point x="683.2148440000001" y="462.58593800000017" type="curve"/>
      <point x="683.2148440000001" y="373.42968800000017"/>
      <point x="640.875" y="295.61328200000025"/>
      <point x="573.8007809999999" y="258.5" type="curve"/>
      <point x="595.6953119999998" y="226.38671900000008"/>
      <point x="618.71875" y="192.70312600000034"/>
      <point x="640.1835940000001" y="161.35546900000008" type="curve"/>
      <point x="645.2617179999997" y="154.96093800000017"/>
      <point x="650.0078119999998" y="148.03515700000025"/>
      <point x="654.421875" y="140.58203200000025" type="curve"/>
      <point x="691.671875" y="86.25390700000025" type="line"/>
      <point x="691.703125" y="86.21484400000008"/>
      <point x="691.7265619999998" y="86.17578200000025"/>
      <point x="691.7539059999999" y="86.13281300000017" type="curve"/>
      <point x="691.7734369999998" y="86.10546900000008" type="line"/>
      <point x="708.9492179999997" y="61.058594000000085"/>
      <point x="702.5742179999997" y="26.83593800000017"/>
      <point x="677.5351559999999" y="9.652344000000085" type="curve"/>
      <point x="668.0234369999998" y="3.128907000000254"/>
      <point x="657.1875" y="0.0"/>
      <point x="646.4648440000001" y="0.0" type="curve"/>
    </contour>
  </outline>
</glyph>
<glyph name="Q" format="2">
  <advance width="1469"/>
  <outline>
    <contour>
      <point x="397.9843750000109" y="522.6132809999999" type="move"/>
      <point x="323.8750000000109" y="522.6132809999999"/>
      <point x="267.308594000011" y="501.2382809999999"/>
      <point x="229.8593750000109" y="459.08593800000017" type="curve"/>
      <point x="190.80078100001083" y="415.11718800000017"/>
      <point x="170.996094000011" y="348.34375"/>
      <point x="170.996094000011" y="260.6210940000001" type="curve"/>
      <point x="170.996094000011" y="217.15234400000008"/>
      <point x="176.21093800001108" y="178.01953099999992"/>
      <point x="186.50390600001083" y="144.30859400000008" type="curve"/>
      <point x="196.22265600001083" y="112.484375"/>
      <point x="210.50390600001083" y="85.453125"/>
      <point x="228.96093800001108" y="63.96875" type="curve"/>
      <point x="266.777344000011" y="19.949219000000085"/>
      <point x="323.64453100001083" y="-2.3671880000001693"/>
      <point x="397.9843750000109" y="-2.3671880000001693" type="curve"/>
      <point x="415.1796880000111" y="-2.3671880000001693"/>
      <point x="432.39453100001083" y="0.6992190000000846"/>
      <point x="449.1562500000109" y="6.746094000000085" type="curve"/>
      <point x="460.83203100001083" y="10.96093800000017"/>
      <point x="472.5937500000109" y="14.11718800000017"/>
      <point x="484.3281250000109" y="16.21093800000017" type="curve"/>
      <point x="477.574219000011" y="26.85156199999983"/>
      <point x="470.48828100001083" y="37.92968800000017"/>
      <point x="463.45703100001083" y="48.86718800000017" type="curve"/>
      <point x="460.98828100001083" y="52.07031199999983"/>
      <point x="458.6484380000111" y="55.386719000000085"/>
      <point x="456.4375000000109" y="58.832030999999915" type="curve"/>
      <point x="407.308594000011" y="135.30468800000017" type="line"/>
      <point x="390.9531250000109" y="160.76953099999992"/>
      <point x="398.2421880000111" y="194.66406199999983"/>
      <point x="423.6250000000109" y="211.15234400000008" type="curve"/>
      <point x="449.00390600001083" y="227.640625"/>
      <point x="482.9375000000109" y="220.51953099999992"/>
      <point x="499.55078100001083" y="195.22656199999983" type="curve"/>
      <point x="501.183594000011" y="192.73828099999992"/>
      <point x="525.902344000011" y="155.09375"/>
      <point x="552.6406250000109" y="113.55468800000017" type="curve"/>
      <point x="561.3593750000109" y="104.23046900000008"/>
      <point x="572.480469000011" y="103.99218800000017"/>
      <point x="577.292969000011" y="104.41406199999983" type="curve"/>
      <point x="582.7500000000109" y="104.890625"/>
      <point x="596.1289060000108" y="107.62890599999992"/>
      <point x="602.4531250000109" y="122.73046900000008" type="curve"/>
      <point x="622.0507810000108" y="169.53125"/>
      <point x="624.9765620000107" y="229.21093800000017"/>
      <point x="624.9765620000107" y="260.6210940000001" type="curve"/>
      <point x="624.9765620000107" y="348.34375"/>
      <point x="605.1718750000109" y="415.11718800000017"/>
      <point x="566.1132810000108" y="459.08593800000017" type="curve"/>
      <point x="528.6640620000107" y="501.2382809999999"/>
      <point x="472.09765600001083" y="522.6132809999999"/>
      <point x="397.9843750000109" y="522.6132809999999" type="curve"/>
    </contour>
    <contour>
      <point x="663.386719000011" y="-224.0" type="move"/>
      <point x="645.8945310000108" y="-224.0"/>
      <point x="628.7187500000109" y="-215.66796900000008"/>
      <point x="618.0664060000108" y="-200.22265599999992" type="curve"/>
      <point x="599.2343750000109" y="-172.91796900000008"/>
      <point x="580.214844000011" y="-141.57421900000008"/>
      <point x="558.7851560000108" y="-105.796875" type="curve"/>
      <point x="546.339844000011" y="-93.03906199999983"/>
      <point x="521.417969000011" y="-84.11718800000017"/>
      <point x="486.4921880000111" y="-96.71875" type="curve"/>
      <point x="457.72265600001083" y="-107.10156199999983"/>
      <point x="427.94531200001074" y="-112.36328099999992"/>
      <point x="397.9843750000109" y="-112.36328099999992" type="curve"/>
      <point x="345.0468750000109" y="-112.36328099999992"/>
      <point x="296.7656250000109" y="-103.52343800000017"/>
      <point x="254.48828100001083" y="-86.08593800000017" type="curve"/>
      <point x="211.70703100001083" y="-68.44140599999992"/>
      <point x="175.0468750000109" y="-42.07031199999983"/>
      <point x="145.527344000011" y="-7.710938000000169" type="curve"/>
      <point x="117.09765600001083" y="25.386719000000085"/>
      <point x="95.48828100001083" y="65.72656199999983"/>
      <point x="81.30078100001083" y="112.19140599999992" type="curve"/>
      <point x="67.82812500001091" y="156.32031199999983"/>
      <point x="61.000000000010914" y="206.25781199999983"/>
      <point x="61.000000000010914" y="260.6210940000001" type="curve"/>
      <point x="61.000000000010914" y="376.0820309999999"/>
      <point x="90.14453100001083" y="467.4335940000001"/>
      <point x="147.62890600001083" y="532.140625" type="curve"/>
      <point x="177.28515600001083" y="565.5234380000002"/>
      <point x="214.0781250000109" y="591.0273440000001"/>
      <point x="256.980469000011" y="607.9335940000001" type="curve"/>
      <point x="298.5234380000111" y="624.3085940000001"/>
      <point x="345.964844000011" y="632.609375"/>
      <point x="397.9843750000109" y="632.609375" type="curve"/>
      <point x="450.00781200001074" y="632.609375"/>
      <point x="497.449219000011" y="624.3085940000001"/>
      <point x="538.9921880000111" y="607.9335940000001" type="curve"/>
      <point x="581.8945310000108" y="591.0273440000001"/>
      <point x="618.6875000000109" y="565.5234380000002"/>
      <point x="648.3437500000109" y="532.140625" type="curve"/>
      <point x="705.8281250000109" y="467.4335940000001"/>
      <point x="734.9726560000108" y="376.0820309999999"/>
      <point x="734.9726560000108" y="260.6210940000001" type="curve"/>
      <point x="734.9726560000108" y="212.171875"/>
      <point x="729.5859380000111" y="141.55078099999992"/>
      <point x="703.9101560000108" y="80.24609400000008" type="curve"/>
      <point x="693.6015620000107" y="55.61718800000017"/>
      <point x="676.7890620000107" y="34.64843800000017"/>
      <point x="655.3046880000111" y="19.613280999999915" type="curve"/>
      <point x="645.0546880000111" y="12.441405999999915"/>
      <point x="633.871094000011" y="6.699219000000085"/>
      <point x="622.0937500000109" y="2.5039059999999154" type="curve"/>
      <point x="630.2539060000108" y="-11.00781199999983"/>
      <point x="637.9726560000108" y="-23.91406199999983"/>
      <point x="645.1914060000108" y="-35.980469000000085" type="curve"/>
      <point x="646.3593750000109" y="-37.933594000000085"/>
      <point x="647.5195310000108" y="-39.875"/>
      <point x="648.6718750000109" y="-41.800780999999915" type="curve"/>
      <point x="649.3789060000108" y="-42.714844000000085"/>
      <point x="650.074219000011" y="-43.636719000000085"/>
      <point x="650.761719000011" y="-44.566405999999915" type="curve"/>
      <point x="651.6406250000109" y="-45.75781199999983"/>
      <point x="652.4687500000109" y="-46.984375"/>
      <point x="653.2500000000109" y="-48.24218800000017" type="curve"/>
      <point x="710.0976560000108" y="-140.03906199999983" type="line"/>
      <point x="725.8125000000109" y="-165.41406199999983"/>
      <point x="718.4218750000109" y="-198.69140599999992"/>
      <point x="693.4414060000108" y="-215.02734400000008" type="curve"/>
      <point x="684.1640620000107" y="-221.09375"/>
      <point x="673.7226560000108" y="-224.0"/>
      <point x="663.386719000011" y="-224.0" type="curve"/>
    </contour>
  </outline>
</glyph>
<glyph name="R.alt" format="2">
  <advance width="1249"/>
  <outline>
    <contour>
      <point x="489.10156199999994" y="0.0" type="move"/>
      <point x="471.03906199999994" y="0.0"/>
      <point x="453.34765600000003" y="8.886719000000085"/>
      <point x="442.83203100000003" y="25.19531199999983" type="curve"/>
      <point x="441.89843699999994" y="26.644530999999915"/>
      <point x="349.0273430000001" y="170.63281199999983"/>
      <point x="306.2929690000001" y="236.47656199999983" type="curve"/>
      <point x="306.26953100000003" y="236.51171900000008"/>
      <point x="325.7148430000001" y="206.51171900000008"/>
      <point x="325.69140600000003" y="206.546875" type="curve"/>
      <point x="321.27343699999994" y="213.35546900000008"/>
      <point x="306.2929690000001" y="236.47656199999983"/>
      <point x="272.02343700000006" y="252.64453099999992" type="curve"/>
      <point x="244.06640600000003" y="265.8320309999999"/>
      <point x="227.71093700000006" y="267.18359299999975"/>
      <point x="203.92578100000003" y="285.74218699999983" type="curve"/>
      <point x="174.890625" y="308.39843699999983"/>
      <point x="159.14843700000006" y="346.8945309999999"/>
      <point x="164.75390600000003" y="381.5351559999999" type="curve"/>
      <point x="169.26171900000008" y="409.3867190000001"/>
      <point x="187.28125" y="431.4726559999999"/>
      <point x="212.953125" y="440.6054690000001" type="curve"/>
      <point x="235.25390600000003" y="448.5351559999999"/>
      <point x="258.8554690000001" y="447.03125"/>
      <point x="281.22265600000003" y="436.2539059999999" type="curve"/>
      <point x="295.83203100000003" y="429.21484299999975"/>
      <point x="309.86718700000006" y="418.22656199999983"/>
      <point x="324.1210930000001" y="402.66406199999983" type="curve"/>
      <point x="334.16015600000003" y="391.71093699999983"/>
      <point x="343.9023430000001" y="378.9492190000001"/>
      <point x="353.6210930000001" y="365.0507809999999" type="curve"/>
      <point x="355.2773430000001" y="366.1367190000001"/>
      <point x="356.77343699999994" y="367.3125"/>
      <point x="358.0898430000001" y="368.5742190000001" type="curve"/>
      <point x="389.9960930000001" y="399.1054690000001"/>
      <point x="409.81640600000003" y="441.62109299999975"/>
      <point x="409.81640600000003" y="479.52734299999975" type="curve"/>
      <point x="409.81640600000003" y="490.546875"/>
      <point x="407.69140600000003" y="529.0039059999999"/>
      <point x="380.38281199999994" y="561.0742190000001" type="curve"/>
      <point x="354.77343699999994" y="591.1484369999998"/>
      <point x="314.23828100000003" y="606.3984369999998"/>
      <point x="259.90625" y="606.3984369999998" type="curve"/>
      <point x="109.99609299999997" y="606.3984369999998" type="line"/>
      <point x="109.99609299999997" y="55.824219000000085" type="line"/>
      <point x="109.99609299999997" y="25.597655999999915"/>
      <point x="85.94921900000008" y="0.40625"/>
      <point x="55.72656200000006" y="0.011719000000084634" type="curve"/>
      <point x="25.01953100000003" y="-0.38671900000008463"/>
      <point x="0.0" y="24.386719000000085"/>
      <point x="0.0" y="55.00781199999983" type="curve"/>
      <point x="0.0" y="661.3984369999998" type="line"/>
      <point x="0.0" y="691.7734369999998"/>
      <point x="24.621092999999973" y="716.3945309999999"/>
      <point x="54.99609299999997" y="716.3945309999999" type="curve"/>
      <point x="259.90625" y="716.3945309999999" type="line"/>
      <point x="369.5781250000001" y="716.3945309999999"/>
      <point x="431.5000000000001" y="670.7070309999999"/>
      <point x="464.13281199999994" y="632.3828119999998" type="curve"/>
      <point x="499.5156250000001" y="590.828125"/>
      <point x="519.8125000000001" y="535.1132809999999"/>
      <point x="519.8125000000001" y="479.52734299999975" type="curve"/>
      <point x="519.8085930000001" y="444.5625"/>
      <point x="511.3437500000001" y="408.08984299999975"/>
      <point x="495.3281250000001" y="374.0507809999999" type="curve"/>
      <point x="480.54296899999997" y="342.6367190000001"/>
      <point x="459.38671899999997" y="313.2617190000001"/>
      <point x="434.1406250000001" y="289.10156199999983" type="curve"/>
      <point x="427.88281199999994" y="283.1132809999999"/>
      <point x="421.0585930000001" y="277.71484299999975"/>
      <point x="413.7500000000001" y="272.92968699999983" type="curve"/>
      <point x="460.10546899999997" y="201.34765599999992"/>
      <point x="534.4335930000001" y="86.109375"/>
      <point x="535.269531" y="84.81640599999992" type="curve"/>
      <point x="551.730469" y="59.28906199999983"/>
      <point x="544.382812" y="25.25"/>
      <point x="518.8593750000001" y="8.785155999999915" type="curve"/>
      <point x="509.6406250000001" y="2.84375"/>
      <point x="499.3085930000001" y="0.0"/>
      <point x="489.10156199999994" y="0.0" type="curve"/>
    </contour>
  </outline>
</glyph>
<glyph name="R" format="2">
  <advance width="1249"/>
  <outline>
    <contour>
      <point x="114" y="1400" type="line"/>
      <point x="671" y="1400" type="line"/>
      <point x="914" y="1400"/>
      <point x="1177" y="1171"/>
      <point x="1177" y="962" type="qcurve"/>
      <point x="1177" y="806"/>
      <point x="1033" y="597"/>
      <point x="896" y="552" type="qcurve"/>
      <point x="1214" y="0" type="line"/>
      <point x="967" y="0" type="line"/>
      <point x="678" y="519" type="line"/>
      <point x="675" y="519"/>
      <point x="671" y="519" type="qcurve"/>
      <point x="336" y="519" type="line"/>
      <point x="336" y="0" type="line"/>
      <point x="114" y="0" type="line"/>
    </contour>
    <contour>
      <point x="950" y="961" type="qcurve"/>
      <point x="950" y="1207"/>
      <point x="649" y="1207" type="qcurve"/>
      <point x="336" y="1207" type="line"/>
      <point x="336" y="712" type="line"/>
      <point x="649" y="712" type="line"/>
      <point x="950" y="712"/>
    </contour>
  </outline>
</glyph>
<glyph name="S" format="2">
  <advance width="1240"/>
  <outline>
    <contour>
      <point x="323.40748323040634" y="-23.0" type="move"/>
      <point x="261.19263923040626" y="-23.0"/>
      <point x="203.85670123040632" y="-5.726561999999831"/>
      <point x="157.60279523040617" y="26.957032000000254" type="curve"/>
      <point x="116.0285772304062" y="56.32812600000034"/>
      <point x="84.24342023040617" y="97.91015700000025"/>
      <point x="68.10279523040617" y="144.04296900000008" type="curve"/>
      <point x="58.06763923040626" y="172.71484400000008"/>
      <point x="73.17701423040626" y="204.08593800000017"/>
      <point x="101.84888923040626" y="214.12109400000008" type="curve"/>
      <point x="130.51295123040632" y="224.15234400000008"/>
      <point x="161.89185823040634" y="209.04296900000008"/>
      <point x="171.92310823040634" y="180.375" type="curve"/>
      <point x="180.57545123040632" y="155.65234400000008"/>
      <point x="198.0285772304062" y="133.07421900000008"/>
      <point x="221.07154523040617" y="116.79296900000008" type="curve"/>
      <point x="248.66138923040626" y="97.29687600000034"/>
      <point x="284.05201423040626" y="86.99609400000008"/>
      <point x="323.40748323040634" y="86.99609400000008" type="curve"/>
      <point x="373.8996702304062" y="86.99609400000008"/>
      <point x="414.4817012304063" y="97.75390700000025"/>
      <point x="440.77076423040626" y="118.10546900000008" type="curve"/>
      <point x="463.3996702304062" y="135.62890700000025"/>
      <point x="474.4035772304062" y="159.53515700000025"/>
      <point x="474.4035772304062" y="191.19921900000008" type="curve"/>
      <point x="474.4035772304062" y="246.09375"/>
      <point x="436.81763923040626" y="270.7148440000001"/>
      <point x="313.55201423040626" y="296.5429690000001" type="curve"/>
      <point x="248.11451423040626" y="310.03515700000025"/>
      <point x="195.14967023040617" y="331.86328200000025"/>
      <point x="156.14185823040634" y="361.42187600000034" type="curve"/>
      <point x="105.58326423040626" y="399.7304690000001"/>
      <point x="78.86060823040634" y="450.96875"/>
      <point x="78.86060823040634" y="509.60156300000017" type="curve"/>
      <point x="78.86060823040634" y="570.125"/>
      <point x="102.38404523040617" y="624.625"/>
      <point x="145.0910772304062" y="663.0546880000002" type="curve"/>
      <point x="189.25123323040634" y="702.7968760000003"/>
      <point x="251.79810823040634" y="723.8007820000003"/>
      <point x="325.96998323040634" y="723.8007820000003" type="curve"/>
      <point x="376.86451423040626" y="723.8007820000003"/>
      <point x="429.8879512304063" y="706.0234380000002"/>
      <point x="475.2785772304062" y="673.7460940000001" type="curve"/>
      <point x="519.2434202304062" y="642.4765630000002"/>
      <point x="551.9699832304063" y="600.9296880000002"/>
      <point x="567.4270142304063" y="556.7578130000002" type="curve"/>
      <point x="577.4621702304062" y="528.0859380000002"/>
      <point x="562.3527952304062" y="496.7148440000001"/>
      <point x="533.6809202304062" y="486.67968800000017" type="curve"/>
      <point x="527.6731082304063" y="484.57812600000034"/>
      <point x="521.5402952304062" y="483.57812600000034"/>
      <point x="515.5168582304063" y="483.57812600000034" type="curve"/>
      <point x="492.7942012304063" y="483.57812600000034"/>
      <point x="471.53638923040626" y="497.76562600000034"/>
      <point x="463.6067012304063" y="520.4257820000003" type="curve"/>
      <point x="448.1496702304062" y="564.59375"/>
      <point x="387.8254512304063" y="613.8046880000002"/>
      <point x="325.96998323040634" y="613.8046880000002" type="curve"/>
      <point x="279.40748323040634" y="613.8046880000002"/>
      <point x="242.30592023040617" y="602.5625"/>
      <point x="218.66920123040632" y="581.2929690000001" type="curve"/>
      <point x="194.0285772304062" y="559.1210940000001"/>
      <point x="188.85670123040632" y="530.0703130000002"/>
      <point x="188.85670123040632" y="509.60156300000017" type="curve"/>
      <point x="188.85670123040632" y="494.59375"/>
      <point x="192.35279523040617" y="471.99218800000017"/>
      <point x="222.57154523040617" y="449.0898440000001" type="curve"/>
      <point x="248.0598272304062" y="429.78125"/>
      <point x="287.20826423040626" y="414.28125"/>
      <point x="335.7902952304062" y="404.26562600000034" type="curve"/>
      <point x="335.84888923040626" y="404.25390700000025"/>
      <point x="335.9035772304062" y="404.24218800000017"/>
      <point x="335.9621702304062" y="404.2304690000001" type="curve"/>
      <point x="389.4309202304062" y="393.03125"/>
      <point x="445.4973272304062" y="379.78906300000017"/>
      <point x="491.7160772304062" y="352.16406300000017" type="curve"/>
      <point x="520.0715452304062" y="335.2148440000001"/>
      <point x="542.2785772304062" y="314.0898440000001"/>
      <point x="557.7238892304063" y="289.3710940000001" type="curve"/>
      <point x="575.4231082304063" y="261.04687600000034"/>
      <point x="584.3996702304062" y="228.01953200000025"/>
      <point x="584.3996702304062" y="191.19921900000008" type="curve"/>
      <point x="584.3996702304062" y="158.60546900000008"/>
      <point x="577.8332642304063" y="128.28515700000025"/>
      <point x="564.8879512304063" y="101.08593800000017" type="curve"/>
      <point x="551.8840452304062" y="73.76953200000025"/>
      <point x="532.7824832304063" y="50.23437600000034"/>
      <point x="508.1067012304063" y="31.13281300000017" type="curve"/>
      <point x="462.3684202304062" y="-4.28125"/>
      <point x="398.50123323040634" y="-23.0"/>
      <point x="323.40748323040634" y="-23.0" type="curve"/>
    </contour>
  </outline>
</glyph>
<glyph name="T" format="2">
  <advance width="1251"/>
  <outline>
    <contour>
      <point x="341.46875" y="0.0" type="move"/>
      <point x="311.09375" y="0.0"/>
      <point x="286.4726559999999" y="24.621094000000085"/>
      <point x="286.4726559999999" y="54.996094000000085" type="curve"/>
      <point x="286.4726559999999" y="489.55468699999983" type="line"/>
      <point x="286.4726559999999" y="531.3789059999999"/>
      <point x="297.7148440000001" y="571.4726559999999"/>
      <point x="318.7695309999999" y="606.390625" type="curve"/>
      <point x="109.0" y="606.390625" type="line"/>
      <point x="78.625" y="606.390625"/>
      <point x="54.0" y="631.015625"/>
      <point x="54.0" y="661.3867179999997" type="curve"/>
      <point x="54.0" y="691.7617179999997"/>
      <point x="78.625" y="716.3867179999997"/>
      <point x="109.0" y="716.3867179999997" type="curve"/>
      <point x="583.8359369999998" y="716.3867179999997" type="line"/>
      <point x="614.2109369999998" y="716.3867179999997"/>
      <point x="638.8359369999998" y="691.7617179999997"/>
      <point x="638.8359369999998" y="661.3867179999997" type="curve"/>
      <point x="638.8359369999998" y="631.015625"/>
      <point x="614.2109369999998" y="606.390625"/>
      <point x="583.8359369999998" y="606.390625" type="curve"/>
      <point x="513.3046869999998" y="606.390625" type="line"/>
      <point x="448.8789059999999" y="606.390625"/>
      <point x="396.46875" y="553.9804679999997"/>
      <point x="396.46875" y="489.55468699999983" type="curve"/>
      <point x="396.46875" y="54.996094000000085" type="line"/>
      <point x="396.46875" y="24.621094000000085"/>
      <point x="371.84375" y="0.0"/>
      <point x="341.46875" y="0.0" type="curve"/>
    </contour>
  </outline>
</glyph>
<glyph name="U" format="2">
  <advance width="1351"/>
  <outline>
    <contour>
      <point x="398.66406199999983" y="-23.0" type="move"/>
      <point x="352.0039059999999" y="-23.0"/>
      <point x="309.6601559999999" y="-15.14843699999983"/>
      <point x="272.796875" y="0.328125" type="curve"/>
      <point x="234.640625" y="16.355469000000085"/>
      <point x="202.14843800000017" y="40.546875"/>
      <point x="176.234375" y="72.23046900000008" type="curve"/>
      <point x="127.640625" y="131.640625"/>
      <point x="103.0" y="216.140625"/>
      <point x="103.0" y="323.38281300000017" type="curve"/>
      <point x="103.0" y="653.1601559999999" type="line"/>
      <point x="103.0" y="683.5351559999999"/>
      <point x="127.625" y="708.1601559999999"/>
      <point x="158.0" y="708.1601559999999" type="curve"/>
      <point x="188.375" y="708.1601559999999"/>
      <point x="212.99609400000008" y="683.5351559999999"/>
      <point x="212.99609400000008" y="653.1601559999999" type="curve"/>
      <point x="212.99609400000008" y="323.38281300000017" type="line"/>
      <point x="212.99609400000008" y="242.1875"/>
      <point x="229.27343800000017" y="181.11718699999983"/>
      <point x="261.3789059999999" y="141.87109400000008" type="curve"/>
      <point x="291.578125" y="104.94531300000017"/>
      <point x="336.4882809999999" y="86.99609400000008"/>
      <point x="398.66406199999983" y="86.99609400000008" type="curve"/>
      <point x="460.84375" y="86.99609400000008"/>
      <point x="505.75" y="104.94531300000017"/>
      <point x="535.953125" y="141.87109400000008" type="curve"/>
      <point x="568.0585940000001" y="181.11718699999983"/>
      <point x="584.3359380000002" y="242.1875"/>
      <point x="584.3359380000002" y="323.38281300000017" type="curve"/>
      <point x="584.3359380000002" y="653.1601559999999" type="line"/>
      <point x="584.3359380000002" y="683.5351559999999"/>
      <point x="608.9570309999999" y="708.1601559999999"/>
      <point x="639.3320309999999" y="708.1601559999999" type="curve"/>
      <point x="669.7070309999999" y="708.1601559999999"/>
      <point x="694.3320309999999" y="683.5351559999999"/>
      <point x="694.3320309999999" y="653.1601559999999" type="curve"/>
      <point x="694.3320309999999" y="323.38281300000017" type="line"/>
      <point x="694.3320309999999" y="216.140625"/>
      <point x="669.6914059999999" y="131.640625"/>
      <point x="621.0976559999999" y="72.23046900000008" type="curve"/>
      <point x="595.1796880000002" y="40.546875"/>
      <point x="562.6914059999999" y="16.355469000000085"/>
      <point x="524.53125" y="0.328125" type="curve"/>
      <point x="487.671875" y="-15.14843699999983"/>
      <point x="445.3242190000001" y="-23.0"/>
      <point x="398.66406199999983" y="-23.0" type="curve"/>
    </contour>
  </outline>
</glyph>
<glyph name="V" format="2">
  <advance width="1294"/>
  <outline>
    <contour>
      <point x="333.77951683147603" y="3.637978807091713e-12" type="move"/>
      <point x="305.5217048314762" y="3.637978807091713e-12"/>
      <point x="279.8342048314762" y="9.343750000003638"/>
      <point x="259.4943608314761" y="27.027344000003723" type="curve"/>
      <point x="242.93967383147628" y="41.41796900000372"/>
      <point x="230.0998298314762" y="61.14453100000355"/>
      <point x="221.32639283147637" y="85.66015700000389" type="curve"/>
      <point x="24.213110831476115" y="638.1757810000036" type="line"/>
      <point x="14.0060798314762" y="666.7851570000039"/>
      <point x="28.924048831476284" y="698.2500000000036"/>
      <point x="57.533423831476284" y="708.4570310000036" type="curve"/>
      <point x="86.14279883147628" y="718.6640630000038"/>
      <point x="117.60373583147611" y="703.7421880000038"/>
      <point x="127.81076683147603" y="675.1367190000037" type="curve"/>
      <point x="324.9123298314762" y="122.66796900000372" type="line"/>
      <point x="328.0060798314762" y="114.01171900000372"/>
      <point x="330.7990488314763" y="110.87890700000389"/>
      <point x="331.52951683147603" y="110.16406300000381" type="curve"/>
      <point x="331.8771738314763" y="110.09765700000389"/>
      <point x="332.59201683147603" y="109.99609400000372"/>
      <point x="333.77951683147603" y="109.99609400000372" type="curve"/>
      <point x="334.9904548314762" y="109.99609400000372"/>
      <point x="335.7131108314761" y="110.09765700000389"/>
      <point x="336.0568608314761" y="110.16796900000372" type="curve"/>
      <point x="336.77951683147603" y="110.87109400000372"/>
      <point x="339.5881108314761" y="114.01171900000372"/>
      <point x="342.6896738314763" y="122.77343800000381" type="curve"/>
      <point x="539.7677988314763" y="679.7343750000036" type="line"/>
      <point x="549.9006108314761" y="708.3710940000037"/>
      <point x="581.3302988314763" y="723.3710940000037"/>
      <point x="609.9631108314761" y="713.2382810000036" type="curve"/>
      <point x="638.5998298314762" y="703.1054690000037"/>
      <point x="653.5959238314763" y="671.6757810000036"/>
      <point x="643.4631108314761" y="643.0429690000037" type="curve"/>
      <point x="446.3849858314761" y="86.08203100000355" type="line"/>
      <point x="437.67014283147637" y="61.46093800000381"/>
      <point x="424.8381108314761" y="41.63671900000372"/>
      <point x="408.2404548314762" y="27.160157000003892" type="curve"/>
      <point x="387.8654548314762" y="9.390625000003638"/>
      <point x="362.1193608314761" y="3.637978807091713e-12"/>
      <point x="333.77951683147603" y="3.637978807091713e-12" type="curve"/>
    </contour>
  </outline>
</glyph>
<glyph name="W.alt" format="2">
  <advance width="1874"/>
  <outline>
    <contour>
      <point x="230.62412566749026" y="0.0" type="move"/>
      <point x="228.48350066749026" y="0.0"/>
      <point x="226.33115666749018" y="0.0742179999997461"/>
      <point x="224.17100066749026" y="0.22265599999991537" type="curve"/>
      <point x="186.38193866749043" y="2.8515619999998307"/>
      <point x="154.08115666749018" y="28.11718699999983"/>
      <point x="141.87803266749052" y="64.59375" type="curve"/>
      <point x="141.63975066749026" y="65.3125"/>
      <point x="141.40537566749026" y="66.02343699999983"/>
      <point x="141.17490666749018" y="66.73828099999992" type="curve"/>
      <point x="140.74912566749026" y="68.05078099999992"/>
      <point x="140.37803266749052" y="69.37890599999992"/>
      <point x="140.05381366749043" y="70.71875" type="curve"/>
      <point x="1.5538136674904308" y="643.3984369999998" type="line"/>
      <point x="-5.586811332509569" y="672.9218739999997"/>
      <point x="12.561625667490262" y="702.6445309999999"/>
      <point x="42.08115666749018" y="709.7851559999999" type="curve"/>
      <point x="71.60850066749026" y="716.9179679999997"/>
      <point x="101.32725066749026" y="698.78125"/>
      <point x="108.46787566749026" y="669.2539059999999" type="curve"/>
      <point x="235.91709466749035" y="142.25781199999983" type="line"/>
      <point x="262.10068866749043" y="195.22656199999983"/>
      <point x="298.06943866749043" y="268.65625"/>
      <point x="330.41318866749043" y="336.97656199999983" type="curve"/>
      <point x="354.19443866749043" y="387.2070309999999"/>
      <point x="389.9874066674902" y="439.80859299999975"/>
      <point x="380.35459466749035" y="497.40234299999975" type="curve"/>
      <point x="377.77646966749035" y="512.8046869999998"/>
      <point x="370.37021966749035" y="526.9921869999998"/>
      <point x="368.51475066749026" y="542.9296869999998" type="curve"/>
      <point x="364.05381366749043" y="581.2304679999997"/>
      <point x="375.94443866749043" y="628.3632809999999"/>
      <point x="412.56162566749026" y="647.3046869999998" type="curve"/>
      <point x="431.61631366749043" y="657.1601559999999"/>
      <point x="453.71787566749026" y="657.3515619999998"/>
      <point x="473.1905326674905" y="647.8281239999997" type="curve"/>
      <point x="497.3624066674902" y="636.0078119999998"/>
      <point x="515.3311566674902" y="609.9101559999999"/>
      <point x="521.2647506674903" y="578.0" type="curve"/>
      <point x="525.8116256674903" y="553.5195309999999"/>
      <point x="522.0460006674903" y="530.9765619999998"/>
      <point x="519.3780326674905" y="506.71093699999983" type="curve"/>
      <point x="512.5811566674902" y="444.95312399999966"/>
      <point x="551.0069386674904" y="390.35937399999966"/>
      <point x="575.4639696674903" y="335.85156199999983" type="curve"/>
      <point x="602.4717826674905" y="275.66406199999983"/>
      <point x="629.2335006674903" y="215.35156199999983"/>
      <point x="655.0147506674903" y="154.62890599999992" type="curve"/>
      <point x="779.4756886674904" y="669.2539059999999" type="line"/>
      <point x="786.6124066674902" y="698.7773429999997"/>
      <point x="816.3350636674904" y="716.9179679999997"/>
      <point x="845.8585006674903" y="709.7851559999999" type="curve"/>
      <point x="875.3819386674904" y="702.6445309999999"/>
      <point x="893.5264696674903" y="672.9218739999997"/>
      <point x="886.3858446674903" y="643.3984369999998" type="curve"/>
      <point x="747.8897506674903" y="70.71875" type="line"/>
      <point x="747.8311566674902" y="70.47265599999992"/>
      <point x="747.7686566674902" y="70.22265599999992"/>
      <point x="747.7022506674903" y="69.97656199999983" type="curve"/>
      <point x="747.3897506674903" y="68.76171799999975" type="line"/>
      <point x="742.2647506674903" y="49.14843699999983"/>
      <point x="731.4170946674903" y="32.3125"/>
      <point x="716.0225636674904" y="20.04687399999966" type="curve"/>
      <point x="701.5772506674903" y="8.53906199999983"/>
      <point x="684.1397506674903" y="1.8359369999998307"/>
      <point x="665.6006886674904" y="0.6640619999998307" type="curve"/>
      <point x="647.1124066674902" y="-0.5078130000001693"/>
      <point x="629.0342826674905" y="3.9218739999996615"/>
      <point x="613.3155326674905" y="13.46875" type="curve"/>
      <point x="596.5381886674904" y="23.652342999999746"/>
      <point x="583.6905326674905" y="38.941405999999915"/>
      <point x="576.1592826674905" y="57.683592999999746" type="curve"/>
      <point x="548.2764696674903" y="127.10546799999975"/>
      <point x="495.62021966749035" y="245.80468699999983"/>
      <point x="453.13975066749026" y="339.6289059999999" type="curve"/>
      <point x="446.17100066749026" y="324.59375"/>
      <point x="438.42881366749043" y="308.0664059999999"/>
      <point x="429.8311566674902" y="289.90625" type="curve"/>
      <point x="387.49131366749043" y="200.48046799999975"/>
      <point x="339.10459466749035" y="102.58203099999992"/>
      <point x="314.03037566749026" y="52.1875" type="curve"/>
      <point x="298.0030326674905" y="19.972655999999915"/>
      <point x="265.74521966749035" y="0.0"/>
      <point x="230.62412566749026" y="0.0" type="curve"/>
    </contour>
  </outline>
</glyph>
<glyph name="W" format="2">
  <advance width="1874"/>
  <outline>
    <contour>
      <point x="1615" y="1400" type="line"/>
      <point x="1851" y="1400" type="line"/>
      <point x="1508" y="0" type="line"/>
      <point x="1206" y="0" type="line"/>
      <point x="936" y="1115" type="line"/>
      <point x="667" y="0" type="line"/>
      <point x="366" y="0" type="line"/>
      <point x="24" y="1400" type="line"/>
      <point x="264" y="1400" type="line"/>
      <point x="524" y="204" type="line"/>
      <point x="806" y="1380" type="line"/>
      <point x="1071" y="1380" type="line"/>
      <point x="1355" y="201" type="line"/>
    </contour>
  </outline>
</glyph>
<glyph name="X" format="2">
  <advance width="1266"/>
  <outline>
    <contour>
      <point x="998" y="1400" type="line"/>
      <point x="1243" y="1400" type="line"/>
      <point x="775" y="704" type="line"/>
      <point x="1248" y="0" type="line"/>
      <point x="991" y="0" type="line"/>
      <point x="627" y="565" type="line"/>
      <point x="262" y="0" type="line"/>
      <point x="18" y="0" type="line"/>
      <point x="488" y="703" type="line"/>
      <point x="24" y="1400" type="line"/>
      <point x="281" y="1400" type="line"/>
      <point x="640" y="844" type="line"/>
    </contour>
  </outline>
</glyph>
<glyph name="Y" format="2">
  <advance width="1283"/>
  <outline>
    <contour>
      <point x="282.2116386470434" y="0.004739691280519764" type="move"/>
      <point x="251.98898264704349" y="0.39536469128051976"/>
      <point x="227.94210764704349" y="25.59067669128035"/>
      <point x="227.94210764704349" y="55.81723969128052" type="curve"/>
      <point x="227.94210764704349" y="202.11020769128027" type="line"/>
      <point x="227.94210764704349" y="238.44614569128044"/>
      <point x="227.56320064704323" y="283.14145769128027"/>
      <point x="250.84054464704332" y="322.3797396912805" type="curve"/>
      <point x="223.84835764704349" y="324.3016146912805"/>
      <point x="193.9147636470434" y="335.6297396912805"/>
      <point x="178.85616964704332" y="359.9070836912806" type="curve"/>
      <point x="178.3991386470434" y="360.6453646912805"/>
      <point x="177.95382664704357" y="361.39927069128044"/>
      <point x="177.53195064704323" y="362.1570836912806" type="curve"/>
      <point x="25.9460136470434" y="634.6531766912804" type="line"/>
      <point x="11.1803886470434" y="661.1961456912804"/>
      <point x="20.7272636470434" y="694.6844266912804"/>
      <point x="47.270232647043485" y="709.4500516912804" type="curve"/>
      <point x="73.81710764704349" y="724.2156766912804"/>
      <point x="107.30148264704349" y="714.6688016912804"/>
      <point x="122.06710764704349" y="688.1258336912806" type="curve"/>
      <point x="142.04757664704357" y="652.2156766912804"/>
      <point x="162.02023264704349" y="616.3055206912804"/>
      <point x="181.99679464704332" y="580.3953646912805" type="curve"/>
      <point x="197.8678886470434" y="551.8680206912804"/>
      <point x="213.73898264704349" y="523.3367706912804"/>
      <point x="229.61007664704357" y="494.80552069128044" type="curve"/>
      <point x="236.36398264704349" y="482.66880169128035"/>
      <point x="243.1178886470434" y="470.5320836912806"/>
      <point x="249.8678886470434" y="458.39145769128027" type="curve"/>
      <point x="256.7389826470435" y="446.03989569128044"/>
      <point x="261.51632664704357" y="432.16489569128044"/>
      <point x="277.1921076470435" y="429.33677069128044" type="curve"/>
      <point x="278.5202326470435" y="429.0984896912805"/>
      <point x="279.87570064704323" y="428.94614569128044"/>
      <point x="281.2272636470434" y="428.8953646912805" type="curve"/>
      <point x="298.4264826470435" y="428.23130169128035"/>
      <point x="304.03195064704323" y="441.01645769128027"/>
      <point x="311.9186696470433" y="453.3484896912805" type="curve"/>
      <point x="332.61007664704357" y="485.71177069128044" type="line"/>
      <point x="349.5514826470435" y="512.2117706912804"/>
      <point x="366.4928886470434" y="538.7117706912804"/>
      <point x="383.43820064704323" y="565.2117706912804" type="curve"/>
      <point x="409.45382664704357" y="605.9070836912806"/>
      <point x="435.4772636470434" y="646.6063016912804"/>
      <point x="461.4928886470434" y="687.3016146912805" type="curve"/>
      <point x="462.2858576470435" y="688.5398956912804"/>
      <point x="463.07882664704357" y="689.7781766912804"/>
      <point x="463.8678886470434" y="691.0164576912803" type="curve"/>
      <point x="480.21945064704323" y="716.5867706912804"/>
      <point x="514.1921076470435" y="724.0789576912803"/>
      <point x="539.7819506470432" y="707.7547396912805" type="curve"/>
      <point x="565.3717946470433" y="691.4305206912804"/>
      <point x="572.8991386470434" y="657.4617706912804"/>
      <point x="556.6022636470434" y="631.8563016912804" type="curve"/>
      <point x="377.0514826470435" y="349.76645769128027" type="line"/>
      <point x="351.4616386470434" y="304.8484896912805"/>
      <point x="337.93820064704323" y="253.81723969128052"/>
      <point x="337.93820064704323" y="202.11020769128027" type="curve"/>
      <point x="337.93820064704323" y="54.99692669128035" type="line"/>
      <point x="337.93820064704323" y="24.37973969128052"/>
      <point x="312.9186696470433" y="-0.3936983087196495"/>
      <point x="282.2116386470434" y="0.004739691280519764" type="curve"/>
    </contour>
  </outline>
</glyph>
<glyph name="Z" format="2">
  <advance width="1217"/>
  <outline>
    <contour>
      <point x="593.1740309277402" y="3.637978807091713e-12" type="move"/>
      <point x="139.11934292774004" y="3.637978807091713e-12" type="line"/>
      <point x="120.21699892773995" y="3.637978807091713e-12"/>
      <point x="102.33418692774012" y="9.398438000003807"/>
      <point x="92.30293692774012" y="25.421875000003638" type="curve"/>
      <point x="80.15059292774004" y="44.83203100000355"/>
      <point x="81.5177809277402" y="69.47265600000355"/>
      <point x="95.22481192774012" y="87.32421900000372" type="curve"/>
      <point x="487.54512392773995" y="598.3476560000036" type="line"/>
      <point x="490.07246792774004" y="601.6367190000037"/>
      <point x="487.7248119277401" y="606.3906250000036"/>
      <point x="483.5802809277402" y="606.3906250000036" type="curve"/>
      <point x="165.68574892773995" y="606.3906250000036" type="line"/>
      <point x="135.85762392773995" y="606.3906250000036"/>
      <point x="110.99434292774004" y="630.1210940000037"/>
      <point x="110.60762392773995" y="659.9453120000035" type="curve"/>
      <point x="110.21309292774004" y="690.2500000000036"/>
      <point x="134.66231192774012" y="714.9414060000036"/>
      <point x="164.87715492773987" y="714.9414060000036" type="curve"/>
      <point x="602.9748119277401" y="714.9414060000036" type="line"/>
      <point x="621.8771549277399" y="714.9414060000036"/>
      <point x="639.75996792774" y="705.5429690000037"/>
      <point x="649.7873119277401" y="689.5195310000036" type="curve"/>
      <point x="661.9396549277399" y="670.1093750000036"/>
      <point x="660.57246792774" y="645.4687500000036"/>
      <point x="646.8654369277401" y="627.6171880000038" type="curve"/>
      <point x="254.54512392773995" y="116.59375000000364" type="line"/>
      <point x="252.02168692774012" y="113.30468800000381"/>
      <point x="254.36543692774012" y="108.55078100000355"/>
      <point x="258.50996792774004" y="108.55078100000355" type="curve"/>
      <point x="592.3654369277401" y="108.55078100000355" type="line"/>
      <point x="622.1935619277401" y="108.55078100000355"/>
      <point x="647.06074892774" y="84.82031200000347"/>
      <point x="647.4435619277401" y="54.99609400000372" type="curve"/>
      <point x="647.83809292774" y="24.687500000003638"/>
      <point x="623.38887392774" y="3.637978807091713e-12"/>
      <point x="593.1740309277402" y="3.637978807091713e-12" type="curve"/>
    </contour>
  </outline>
</glyph>
<glyph name="a" format="2">
  <advance width="1035"/>
  <outline>
    <contour>
      <point x="64" y="285" type="qcurve"/>
      <point x="64" y="440"/>
      <point x="291" y="609"/>
      <point x="494" y="609" type="qcurve"/>
      <point x="730" y="609" type="line"/>
      <point x="730" y="611" type="line"/>
      <point x="730" y="739"/>
      <point x="620" y="858"/>
      <point x="506" y="858" type="qcurve"/>
      <point x="323" y="858"/>
      <point x="292" y="723" type="qcurve"/>
      <point x="84" y="723" type="line"/>
      <point x="106" y="869"/>
      <point x="332" y="1037"/>
      <point x="510" y="1037" type="qcurve"/>
      <point x="719" y="1037"/>
      <point x="940" y="822"/>
      <point x="940" y="613" type="qcurve"/>
      <point x="940" y="0" type="line"/>
      <point x="738" y="0" type="line"/>
      <point x="738" y="150" type="line"/>
      <point x="686" y="62"/>
      <point x="513" y="-23"/>
      <point x="398" y="-23" type="qcurve"/>
      <point x="243" y="-23"/>
      <point x="64" y="143"/>
    </contour>
    <contour>
      <point x="274" y="295" type="qcurve"/>
      <point x="274" y="150"/>
      <point x="454" y="150" type="qcurve"/>
      <point x="573" y="150"/>
      <point x="730" y="288"/>
      <point x="730" y="413" type="qcurve"/>
      <point x="730" y="457" type="line"/>
      <point x="510" y="457" type="line"/>
      <point x="274" y="457"/>
    </contour>
  </outline>
</glyph>
<glyph name="ae" format="2">
  <advance width="1746"/>
  <outline>
    <contour>
      <point x="942" y="598" type="qcurve"/>
      <point x="1481" y="598" type="line"/>
      <point x="1468" y="718"/>
      <point x="1325" y="859"/>
      <point x="1213" y="859" type="qcurve"/>
      <point x="1103" y="859"/>
      <point x="961" y="720"/>
    </contour>
    <contour>
      <point x="730" y="858"/>
      <point x="506" y="858" type="qcurve"/>
      <point x="323" y="858"/>
      <point x="292" y="723" type="qcurve"/>
      <point x="84" y="723" type="line"/>
      <point x="106" y="870"/>
      <point x="329" y="1037"/>
      <point x="503" y="1037" type="qcurve"/>
      <point x="629" y="1037"/>
      <point x="811" y="937"/>
      <point x="854" y="848" type="qcurve"/>
      <point x="911" y="935"/>
      <point x="1099" y="1037"/>
      <point x="1221" y="1037" type="qcurve"/>
      <point x="1364" y="1037"/>
      <point x="1575" y="904"/>
      <point x="1692" y="661"/>
      <point x="1692" y="495" type="qcurve"/>
      <point x="1692" y="442" type="line"/>
      <point x="940" y="442" type="line"/>
      <point x="954" y="306"/>
      <point x="1096" y="157"/>
      <point x="1212" y="157" type="qcurve"/>
      <point x="1405" y="157"/>
      <point x="1459" y="311" type="qcurve"/>
      <point x="1665" y="311" type="line"/>
      <point x="1630" y="155"/>
      <point x="1388" y="-23"/>
      <point x="1213" y="-23" type="qcurve"/>
      <point x="1073" y="-23"/>
      <point x="873" y="91"/>
      <point x="820" y="194" type="qcurve"/>
      <point x="765" y="88"/>
      <point x="554" y="-23"/>
      <point x="412" y="-23" type="qcurve"/>
      <point x="247" y="-23"/>
      <point x="64" y="141"/>
      <point x="64" y="285" type="qcurve"/>
      <point x="64" y="440"/>
      <point x="290" y="609"/>
      <point x="494" y="609" type="qcurve"/>
      <point x="730" y="609" type="line"/>
      <point x="730" y="613" type="line"/>
    </contour>
    <contour>
      <point x="730" y="413" type="qcurve"/>
      <point x="730" y="457" type="line"/>
      <point x="510" y="457" type="line"/>
      <point x="274" y="457"/>
      <point x="274" y="295" type="qcurve"/>
      <point x="274" y="150"/>
      <point x="454" y="150" type="qcurve"/>
      <point x="579" y="150"/>
      <point x="730" y="294"/>
    </contour>
  </outline>
</glyph>
<glyph name="asciicircum" format="2">
  <advance width="1170"/>
  <outline>
    <contour>
      <point x="585" y="1224" type="line"/>
      <point x="292" y="718" type="line"/>
      <point x="78" y="718" type="line"/>
      <point x="480" y="1400" type="line"/>
      <point x="691" y="1400" type="line"/>
      <point x="1092" y="718" type="line"/>
      <point x="877" y="718" type="line"/>
    </contour>
  </outline>
</glyph>
<glyph name="asciitilde" format="2">
  <advance width="1170"/>
  <outline>
    <contour>
      <point x="40" y="693"/>
      <point x="213" y="926"/>
      <point x="353" y="926" type="qcurve"/>
      <point x="422" y="926"/>
      <point x="547" y="864"/>
      <point x="621" y="791" type="qcurve"/>
      <point x="691" y="722"/>
      <point x="768" y="671"/>
      <point x="805" y="671" type="qcurve"/>
      <point x="866" y="671"/>
      <point x="935" y="790"/>
      <point x="935" y="901" type="qcurve"/>
      <point x="1130" y="901" type="line"/>
      <point x="1130" y="707"/>
      <point x="957" y="474"/>
      <point x="817" y="474" type="qcurve"/>
      <point x="748" y="474"/>
      <point x="624" y="536"/>
      <point x="550" y="609" type="qcurve"/>
      <point x="480" y="678"/>
      <point x="403" y="729"/>
      <point x="365" y="729" type="qcurve"/>
      <point x="304" y="729"/>
      <point x="236" y="609"/>
      <point x="236" y="499" type="qcurve"/>
      <point x="40" y="499" type="line"/>
    </contour>
  </outline>
</glyph>
<glyph name="asterisk" format="2">
  <advance width="830"/>
  <outline>
    <contour>
      <point x="328" y="1460" type="line"/>
      <point x="502" y="1460" type="line"/>
      <point x="486" y="1178" type="line"/>
      <point x="749" y="1281" type="line"/>
      <point x="802" y="1116" type="line"/>
      <point x="530" y="1044" type="line"/>
      <point x="709" y="825" type="line"/>
      <point x="568" y="723" type="line"/>
      <point x="415" y="962" type="line"/>
      <point x="262" y="723" type="line"/>
      <point x="122" y="825" type="line"/>
      <point x="301" y="1044" type="line"/>
      <point x="28" y="1116" type="line"/>
      <point x="81" y="1281" type="line"/>
      <point x="344" y="1178" type="line"/>
    </contour>
  </outline>
</glyph>
<glyph name="at" format="2">
  <advance width="1877"/>
  <outline>
    <contour>
      <point x="61" y="465" type="qcurve"/>
      <point x="61" y="674"/>
      <point x="195" y="1018"/>
      <point x="442" y="1269"/>
      <point x="783" y="1405"/>
      <point x="989" y="1405" type="qcurve"/>
      <point x="1234" y="1405"/>
      <point x="1606" y="1212"/>
      <point x="1816" y="869"/>
      <point x="1816" y="644" type="qcurve"/>
      <point x="1816" y="466"/>
      <point x="1712" y="204"/>
      <point x="1522" y="59"/>
      <point x="1394" y="59" type="qcurve"/>
      <point x="1303" y="59"/>
      <point x="1172" y="147"/>
      <point x="1149" y="223" type="qcurve"/>
      <point x="1109" y="145"/>
      <point x="961" y="60"/>
      <point x="864" y="60" type="qcurve"/>
      <point x="749" y="60"/>
      <point x="577" y="171"/>
      <point x="481" y="372"/>
      <point x="481" y="640"/>
      <point x="577" y="841"/>
      <point x="750" y="953"/>
      <point x="865" y="953" type="qcurve"/>
      <point x="960" y="953"/>
      <point x="1105" y="864"/>
      <point x="1142" y="784" type="qcurve"/>
      <point x="1142" y="932" type="line"/>
      <point x="1337" y="932" type="line"/>
      <point x="1337" y="360" type="line"/>
      <point x="1337" y="224"/>
      <point x="1510" y="224"/>
      <point x="1620" y="453"/>
      <point x="1620" y="819"/>
      <point x="1464" y="1085"/>
      <point x="1179" y="1230"/>
      <point x="983" y="1230" type="qcurve"/>
      <point x="769" y="1230"/>
      <point x="442" y="1037"/>
      <point x="258" y="697"/>
      <point x="258" y="474" type="qcurve"/>
      <point x="258" y="266"/>
      <point x="421" y="-39"/>
      <point x="721" y="-204"/>
      <point x="927" y="-204" type="qcurve"/>
      <point x="1085" y="-204"/>
      <point x="1224" y="-165" type="qcurve"/>
      <point x="1224" y="-340" type="line"/>
      <point x="1077" y="-378"/>
      <point x="927" y="-378" type="qcurve"/>
      <point x="663" y="-378"/>
      <point x="274" y="-171"/>
      <point x="61" y="208"/>
    </contour>
    <contour>
      <point x="1141" y="639"/>
      <point x="1023" y="786"/>
      <point x="810" y="786"/>
      <point x="691" y="639"/>
      <point x="691" y="374"/>
      <point x="810" y="227"/>
      <point x="1023" y="227"/>
      <point x="1141" y="374"/>
    </contour>
  </outline>
</glyph>
<glyph name="backslash" format="2">
  <advance width="632"/>
  <outline>
    <contour>
      <point x="4" y="1460" type="line"/>
      <point x="214" y="1460" type="line"/>
      <point x="628" y="-230" type="line"/>
      <point x="418" y="-230" type="line"/>
    </contour>
  </outline>
</glyph>
<glyph name="braceleft" format="2">
  <advance width="700"/>
  <outline>
    <contour>
      <point x="210" y="118" type="qcurve"/>
      <point x="210" y="383" type="line"/>
      <point x="210" y="470"/>
      <point x="148" y="540"/>
      <point x="71" y="540" type="qcurve"/>
      <point x="28" y="540" type="line"/>
      <point x="28" y="710" type="line"/>
      <point x="71" y="710" type="line"/>
      <point x="148" y="710"/>
      <point x="210" y="780"/>
      <point x="210" y="867" type="qcurve"/>
      <point x="210" y="1132" type="line"/>
      <point x="210" y="1299"/>
      <point x="383" y="1470"/>
      <point x="549" y="1470" type="qcurve"/>
      <point x="655" y="1470" type="line"/>
      <point x="655" y="1298" type="line"/>
      <point x="566" y="1298" type="line"/>
      <point x="422" y="1298"/>
      <point x="422" y="1118" type="qcurve"/>
      <point x="422" y="867" type="line"/>
      <point x="422" y="760"/>
      <point x="343" y="645"/>
      <point x="254" y="625" type="qcurve"/>
      <point x="343" y="606"/>
      <point x="422" y="490"/>
      <point x="422" y="383" type="qcurve"/>
      <point x="422" y="132" type="line"/>
      <point x="422" y="-48"/>
      <point x="566" y="-48" type="qcurve"/>
      <point x="655" y="-48" type="line"/>
      <point x="655" y="-220" type="line"/>
      <point x="549" y="-220" type="line"/>
      <point x="383" y="-220"/>
      <point x="210" y="-48"/>
    </contour>
  </outline>
</glyph>
<glyph name="bracketleft" format="2">
  <advance width="625"/>
  <outline>
    <contour>
      <point x="137" y="1470" type="line"/>
      <point x="579" y="1470" type="line"/>
      <point x="579" y="1299" type="line"/>
      <point x="348" y="1299" type="line"/>
      <point x="348" y="-48" type="line"/>
      <point x="579" y="-48" type="line"/>
      <point x="579" y="-220" type="line"/>
      <point x="137" y="-220" type="line"/>
    </contour>
  </outline>
</glyph>
<glyph name="bracketright" format="2">
  <advance width="625"/>
  <outline>
    <contour>
      <point x="46" y="-48" type="line"/>
      <point x="277" y="-48" type="line"/>
      <point x="277" y="1299" type="line"/>
      <point x="46" y="1299" type="line"/>
      <point x="46" y="1470" type="line"/>
      <point x="488" y="1470" type="line"/>
      <point x="488" y="-220" type="line"/>
      <point x="46" y="-220" type="line"/>
    </contour>
  </outline>
</glyph>
<glyph name="bullet" format="2">
  <advance width="700"/>
  <outline>
    <contour>
      <point x="125" y="792"/>
      <point x="255" y="921"/>
      <point x="445" y="921"/>
      <point x="575" y="792"/>
      <point x="575" y="601"/>
      <point x="445" y="472"/>
      <point x="255" y="472"/>
      <point x="125" y="601"/>
    </contour>
  </outline>
</glyph>
<glyph name="c" format="2">
  <advance width="1054"/>
  <outline>
    <contour>
      <point x="55" y="668"/>
      <point x="179" y="906"/>
      <point x="404" y="1037"/>
      <point x="554" y="1037" type="qcurve"/>
      <point x="743" y="1037"/>
      <point x="974" y="837"/>
      <point x="1002" y="648" type="qcurve"/>
      <point x="785" y="648" type="line"/>
      <point x="769" y="746"/>
      <point x="648" y="852"/>
      <point x="553" y="852" type="qcurve"/>
      <point x="421" y="852"/>
      <point x="273" y="671"/>
      <point x="273" y="343"/>
      <point x="421" y="162"/>
      <point x="553" y="162" type="qcurve"/>
      <point x="645" y="162"/>
      <point x="766" y="264"/>
      <point x="782" y="358" type="qcurve"/>
      <point x="999" y="358" type="line"/>
      <point x="938" y="-23"/>
      <point x="554" y="-23" type="qcurve"/>
      <point x="403" y="-23"/>
      <point x="179" y="108"/>
      <point x="55" y="346"/>
    </contour>
  </outline>
</glyph>
<glyph name="cent" format="2">
  <advance width="1170"/>
  <outline>
    <contour>
      <point x="516" y="182" type="line"/>
      <point x="329" y="212"/>
      <point x="109" y="487"/>
      <point x="109" y="913"/>
      <point x="329" y="1188"/>
      <point x="516" y="1218" type="qcurve"/>
      <point x="516" y="1423" type="line"/>
      <point x="676" y="1423" type="line"/>
      <point x="676" y="1222" type="line"/>
      <point x="838" y="1206"/>
      <point x="1036" y="1010"/>
      <point x="1061" y="841" type="qcurve"/>
      <point x="847" y="841" type="line"/>
      <point x="820" y="1008"/>
      <point x="676" y="1042" type="qcurve"/>
      <point x="676" y="358" type="line"/>
      <point x="816" y="392"/>
      <point x="844" y="550" type="qcurve"/>
      <point x="1059" y="550" type="line"/>
      <point x="1002" y="209"/>
      <point x="676" y="178" type="qcurve"/>
      <point x="676" y="-23" type="line"/>
      <point x="516" y="-23" type="line"/>
    </contour>
    <contour>
      <point x="516" y="1035" type="line"/>
      <point x="424" y="1007"/>
      <point x="324" y="834"/>
      <point x="324" y="566"/>
      <point x="424" y="393"/>
      <point x="516" y="365" type="qcurve"/>
    </contour>
  </outline>
</glyph>
<glyph name="copyright" format="2">
  <advance width="1590"/>
  <outline>
    <contour>
      <point x="61" y="917"/>
      <point x="244" y="1242"/>
      <point x="575" y="1423"/>
      <point x="1016" y="1423"/>
      <point x="1346" y="1242"/>
      <point x="1529" y="917"/>
      <point x="1529" y="483"/>
      <point x="1346" y="158"/>
      <point x="1016" y="-23"/>
      <point x="575" y="-23"/>
      <point x="244" y="158"/>
      <point x="61" y="483"/>
    </contour>
    <contour>
      <point x="238" y="873"/>
      <point x="238" y="527"/>
      <point x="375" y="272"/>
      <point x="625" y="133"/>
      <point x="965" y="133"/>
      <point x="1215" y="272"/>
      <point x="1352" y="527"/>
      <point x="1352" y="873"/>
      <point x="1215" y="1128"/>
      <point x="965" y="1267"/>
      <point x="625" y="1267"/>
      <point x="375" y="1128"/>
    </contour>
    <contour>
      <point x="413" y="885"/>
      <point x="620" y="1106"/>
      <point x="791" y="1106" type="qcurve"/>
      <point x="939" y="1106"/>
      <point x="1117" y="957"/>
      <point x="1139" y="814" type="qcurve"/>
      <point x="977" y="814" type="line"/>
      <point x="942" y="970"/>
      <point x="787" y="970" type="qcurve"/>
      <point x="689" y="970"/>
      <point x="576" y="826"/>
      <point x="576" y="574"/>
      <point x="688" y="430"/>
      <point x="787" y="430" type="qcurve"/>
      <point x="940" y="430"/>
      <point x="974" y="581" type="qcurve"/>
      <point x="1137" y="581" type="line"/>
      <point x="1090" y="294"/>
      <point x="791" y="294" type="qcurve"/>
      <point x="619" y="294"/>
      <point x="413" y="516"/>
    </contour>
  </outline>
</glyph>
<glyph name="d" format="2">
  <advance width="1148"/>
  <outline>
    <contour>
      <point x="55" y="667"/>
      <point x="165" y="905"/>
      <point x="367" y="1037"/>
      <point x="504" y="1037" type="qcurve"/>
      <point x="620" y="1037"/>
      <point x="790" y="941"/>
      <point x="837" y="864" type="qcurve"/>
      <point x="837" y="1460" type="line"/>
      <point x="1049" y="1460" type="line"/>
      <point x="1049" y="0" type="line"/>
      <point x="843" y="0" type="line"/>
      <point x="843" y="161" type="line"/>
      <point x="799" y="81"/>
      <point x="620" y="-23"/>
      <point x="505" y="-23" type="qcurve"/>
      <point x="367" y="-23"/>
      <point x="165" y="108"/>
      <point x="55" y="346"/>
    </contour>
    <contour>
      <point x="841" y="669"/>
      <point x="691" y="852"/>
      <point x="424" y="852"/>
      <point x="273" y="669"/>
      <point x="273" y="345"/>
      <point x="424" y="162"/>
      <point x="691" y="162"/>
      <point x="841" y="345"/>
    </contour>
  </outline>
</glyph>
<glyph name="dagger" format="2">
  <advance width="844"/>
  <outline>
    <contour>
      <point x="332" y="935" type="line"/>
      <point x="44" y="935" type="line"/>
      <point x="44" y="1094" type="line"/>
      <point x="332" y="1094" type="line"/>
      <point x="332" y="1460" type="line"/>
      <point x="512" y="1460" type="line"/>
      <point x="512" y="1094" type="line"/>
      <point x="800" y="1094" type="line"/>
      <point x="800" y="935" type="line"/>
      <point x="512" y="935" type="line"/>
      <point x="512" y="271" type="line"/>
      <point x="332" y="271" type="line"/>
    </contour>
  </outline>
</glyph>
<glyph name="dotbelowcomb.cap" format="2">
  <outline>
    <contour>
      <point x="-136" y="-253" type="qcurve"/>
      <point x="-136" y="-196"/>
      <point x="-58" y="-120"/>
      <point x="58" y="-120"/>
      <point x="136" y="-196"/>
      <point x="136" y="-253" type="qcurve"/>
      <point x="136" y="-308"/>
      <point x="58" y="-385"/>
      <point x="-58" y="-385"/>
      <point x="-136" y="-308"/>
    </contour>
  </outline>
</glyph>
<glyph name="dotlessi" format="2">
  <advance width="411"/>
  <outline>
    <contour>
      <point x="99" y="1014" type="line"/>
      <point x="312" y="1014" type="line"/>
      <point x="312" y="0" type="line"/>
      <point x="99" y="0" type="line"/>
    </contour>
  </outline>
</glyph>
<glyph name="e" format="2">
  <advance width="1074"/>
  <outline>
    <contour>
      <point x="55" y="666"/>
      <point x="175" y="904"/>
      <point x="393" y="1037"/>
      <point x="686" y="1037"/>
      <point x="902" y="904"/>
      <point x="1020" y="661"/>
      <point x="1020" y="495" type="qcurve"/>
      <point x="1020" y="442" type="line"/>
      <point x="267" y="442" type="line"/>
      <point x="281" y="306"/>
      <point x="424" y="157"/>
      <point x="540" y="157" type="qcurve"/>
      <point x="734" y="157"/>
      <point x="786" y="311" type="qcurve"/>
      <point x="993" y="311" type="line"/>
      <point x="958" y="155"/>
      <point x="714" y="-23"/>
      <point x="536" y="-23" type="qcurve"/>
      <point x="391" y="-23"/>
      <point x="175" y="109"/>
      <point x="55" y="347"/>
    </contour>
    <contour>
      <point x="796" y="718"/>
      <point x="654" y="859"/>
      <point x="541" y="859" type="qcurve"/>
      <point x="430" y="859"/>
      <point x="288" y="720"/>
      <point x="269" y="598" type="qcurve"/>
      <point x="809" y="598" type="line"/>
    </contour>
  </outline>
</glyph>
<glyph name="eight.dnom" format="2">
  <advance width="749"/>
  <outline>
    <contour>
      <point x="50" y="202" type="qcurve"/>
      <point x="50" y="334"/>
      <point x="193" y="390" type="qcurve"/>
      <point x="131" y="417"/>
      <point x="74" y="502"/>
      <point x="74" y="555" type="qcurve"/>
      <point x="74" y="650"/>
      <point x="233" y="772"/>
      <point x="516" y="772"/>
      <point x="675" y="650"/>
      <point x="675" y="555" type="qcurve"/>
      <point x="675" y="502"/>
      <point x="618" y="417"/>
      <point x="556" y="390" type="qcurve"/>
      <point x="699" y="334"/>
      <point x="699" y="202" type="qcurve"/>
      <point x="699" y="103"/>
      <point x="531" y="-23"/>
      <point x="218" y="-23"/>
      <point x="50" y="103"/>
    </contour>
    <contour>
      <point x="222" y="164"/>
      <point x="301" y="107"/>
      <point x="448" y="107"/>
      <point x="527" y="164"/>
      <point x="527" y="264"/>
      <point x="448" y="319"/>
      <point x="301" y="319"/>
      <point x="222" y="264"/>
    </contour>
    <contour>
      <point x="243" y="545" type="qcurve"/>
      <point x="243" y="450"/>
      <point x="506" y="450"/>
      <point x="506" y="545" type="qcurve"/>
      <point x="506" y="642"/>
      <point x="243" y="642"/>
    </contour>
  </outline>
</glyph>
<glyph name="eight" format="2">
  <advance width="1174"/>
  <outline>
    <contour>
      <point x="66" y="383" type="qcurve"/>
      <point x="66" y="504"/>
      <point x="189" y="683"/>
      <point x="307" y="730" type="qcurve"/>
      <point x="204" y="777"/>
      <point x="101" y="938"/>
      <point x="101" y="1041" type="qcurve"/>
      <point x="101" y="1211"/>
      <point x="361" y="1423"/>
      <point x="814" y="1423"/>
      <point x="1073" y="1211"/>
      <point x="1073" y="1041" type="qcurve"/>
      <point x="1073" y="938"/>
      <point x="971" y="777"/>
      <point x="867" y="730" type="qcurve"/>
      <point x="986" y="683"/>
      <point x="1108" y="504"/>
      <point x="1108" y="383" type="qcurve"/>
      <point x="1108" y="200"/>
      <point x="834" y="-23"/>
      <point x="341" y="-23"/>
      <point x="66" y="200"/>
    </contour>
    <contour>
      <point x="881" y="506"/>
      <point x="723" y="632"/>
      <point x="451" y="632"/>
      <point x="293" y="506"/>
      <point x="293" y="281"/>
      <point x="450" y="154"/>
      <point x="724" y="154"/>
      <point x="881" y="281"/>
    </contour>
    <contour>
      <point x="848" y="1132"/>
      <point x="707" y="1246"/>
      <point x="467" y="1246"/>
      <point x="326" y="1132"/>
      <point x="326" y="923"/>
      <point x="467" y="810"/>
      <point x="707" y="810"/>
      <point x="848" y="923"/>
    </contour>
  </outline>
</glyph>
<glyph name="eng" format="2">
  <advance width="1094"/>
  <outline>
    <contour>
      <point x="587" y="-205" type="line"/>
      <point x="621" y="-215"/>
      <point x="668" y="-215" type="qcurve"/>
      <point x="736" y="-215"/>
      <point x="787" y="-143"/>
      <point x="787" y="-48" type="qcurve"/>
      <point x="787" y="581" type="line"/>
      <point x="787" y="722"/>
      <point x="687" y="852"/>
      <point x="462" y="852"/>
      <point x="312" y="700"/>
      <point x="312" y="577" type="qcurve"/>
      <point x="312" y="0" type="line"/>
      <point x="99" y="0" type="line"/>
      <point x="99" y="1014" type="line"/>
      <point x="305" y="1014" type="line"/>
      <point x="305" y="868" type="line"/>
      <point x="352" y="943"/>
      <point x="521" y="1037"/>
      <point x="632" y="1037" type="qcurve"/>
      <point x="999" y="1037"/>
      <point x="999" y="605" type="qcurve"/>
      <point x="999" y="-67" type="line"/>
      <point x="999" y="-239"/>
      <point x="856" y="-393"/>
      <point x="707" y="-393" type="qcurve"/>
      <point x="672" y="-393"/>
      <point x="613" y="-384"/>
      <point x="587" y="-378" type="qcurve"/>
    </contour>
  </outline>
</glyph>
<glyph name="exclamdown" format="2">
  <advance width="526"/>
  <outline>
    <contour>
      <point x="380" y="-446" type="line"/>
      <point x="145" y="-446" type="line"/>
      <point x="170" y="595" type="line"/>
      <point x="356" y="595" type="line"/>
    </contour>
    <contour>
      <point x="402" y="838"/>
      <point x="322" y="758"/>
      <point x="204" y="758"/>
      <point x="123" y="838"/>
      <point x="123" y="958"/>
      <point x="204" y="1037"/>
      <point x="322" y="1037"/>
      <point x="402" y="958"/>
    </contour>
  </outline>
</glyph>
<glyph name="f" format="2">
  <advance width="722"/>
  <outline>
    <contour>
      <point x="218" y="843" type="line"/>
      <point x="28" y="843" type="line"/>
      <point x="28" y="1014" type="line"/>
      <point x="218" y="1014" type="line"/>
      <point x="218" y="1124" type="line"/>
      <point x="218" y="1300"/>
      <point x="396" y="1483"/>
      <point x="568" y="1483" type="qcurve"/>
      <point x="636" y="1483"/>
      <point x="697" y="1472" type="qcurve"/>
      <point x="697" y="1298" type="line"/>
      <point x="670" y="1303"/>
      <point x="619" y="1308"/>
      <point x="596" y="1308" type="qcurve"/>
      <point x="430" y="1308"/>
      <point x="430" y="1119" type="qcurve"/>
      <point x="430" y="1014" type="line"/>
      <point x="687" y="1014" type="line"/>
      <point x="687" y="843" type="line"/>
      <point x="430" y="843" type="line"/>
      <point x="430" y="0" type="line"/>
      <point x="218" y="0" type="line"/>
    </contour>
  </outline>
</glyph>
<glyph name="f_t" format="2">
  <advance width="1337"/>
  <outline>
    <contour>
      <point x="218" y="843" type="line"/>
      <point x="28" y="843" type="line"/>
      <point x="28" y="1014" type="line"/>
      <point x="218" y="1014" type="line"/>
      <point x="218" y="1124" type="line"/>
      <point x="218" y="1300"/>
      <point x="396" y="1483"/>
      <point x="568" y="1483" type="qcurve"/>
      <point x="636" y="1483"/>
      <point x="697" y="1472" type="qcurve"/>
      <point x="697" y="1298" type="line"/>
      <point x="670" y="1303"/>
      <point x="619" y="1308"/>
      <point x="596" y="1308" type="qcurve"/>
      <point x="430" y="1308"/>
      <point x="430" y="1119" type="qcurve"/>
      <point x="430" y="1014" type="line"/>
      <point x="620" y="1014" type="line"/>
      <point x="620" y="843" type="line"/>
      <point x="430" y="843" type="line"/>
      <point x="430" y="0" type="line"/>
      <point x="218" y="0" type="line"/>
    </contour>
    <contour>
      <point x="835" y="316" type="qcurve"/>
      <point x="835" y="843" type="line"/>
      <point x="689" y="843" type="line"/>
      <point x="689" y="1014" type="line"/>
      <point x="835" y="1014" type="line"/>
      <point x="835" y="1310" type="line"/>
      <point x="1047" y="1310" type="line"/>
      <point x="1047" y="1014" type="line"/>
      <point x="1298" y="1014" type="line"/>
      <point x="1298" y="843" type="line"/>
      <point x="1047" y="843" type="line"/>
      <point x="1047" y="345" type="line"/>
      <point x="1047" y="245"/>
      <point x="1118" y="168"/>
      <point x="1213" y="168" type="qcurve"/>
      <point x="1231" y="168"/>
      <point x="1276" y="171"/>
      <point x="1298" y="175" type="qcurve"/>
      <point x="1298" y="0" type="line"/>
      <point x="1263" y="-6"/>
      <point x="1200" y="-13"/>
      <point x="1168" y="-13" type="qcurve"/>
      <point x="995" y="-13"/>
      <point x="835" y="144"/>
    </contour>
  </outline>
</glyph>
<glyph name="five" format="2">
  <advance width="1265"/>
  <outline>
    <contour>
      <point x="934" y="570"/>
      <point x="789" y="716"/>
      <point x="655" y="716" type="qcurve"/>
      <point x="496" y="716"/>
      <point x="403" y="613" type="qcurve"/>
      <point x="189" y="613" type="line"/>
      <point x="239" y="1400" type="line"/>
      <point x="1083" y="1400" type="line"/>
      <point x="1083" y="1212" type="line"/>
      <point x="431" y="1212" type="line"/>
      <point x="405" y="809" type="line"/>
      <point x="531" y="900"/>
      <point x="704" y="900" type="qcurve"/>
      <point x="842" y="900"/>
      <point x="1047" y="785"/>
      <point x="1160" y="579"/>
      <point x="1160" y="440" type="qcurve"/>
      <point x="1160" y="223"/>
      <point x="896" y="-23"/>
      <point x="664" y="-23" type="qcurve"/>
      <point x="458" y="-23"/>
      <point x="201" y="176"/>
      <point x="169" y="366" type="qcurve"/>
      <point x="396" y="366" type="line"/>
      <point x="441" y="162"/>
      <point x="661" y="162" type="qcurve"/>
      <point x="790" y="162"/>
      <point x="934" y="309"/>
    </contour>
  </outline>
</glyph>
<glyph name="four.dnom" format="2">
  <advance width="737"/>
  <outline>
    <contour>
      <point x="422" y="168" type="line"/>
      <point x="12" y="168" type="line"/>
      <point x="12" y="284" type="line"/>
      <point x="399" y="749" type="line"/>
      <point x="587" y="749" type="line"/>
      <point x="587" y="303" type="line"/>
      <point x="718" y="303" type="line"/>
      <point x="718" y="168" type="line"/>
      <point x="587" y="168" type="line"/>
      <point x="587" y="0" type="line"/>
      <point x="422" y="0" type="line"/>
    </contour>
    <contour>
      <point x="422" y="579" type="line"/>
      <point x="194" y="303" type="line"/>
      <point x="422" y="303" type="line"/>
    </contour>
  </outline>
</glyph>
<glyph name="greater" format="2">
  <advance width="1170"/>
  <outline>
    <contour>
      <point x="96" y="368" type="line"/>
      <point x="878" y="704" type="line"/>
      <point x="96" y="1041" type="line"/>
      <point x="96" y="1240" type="line"/>
      <point x="1074" y="802" type="line"/>
      <point x="1074" y="600" type="line"/>
      <point x="96" y="160" type="line"/>
    </contour>
  </outline>
</glyph>
<glyph name="guilsinglright" format="2">
  <advance width="594"/>
  <outline>
    <contour>
      <point x="532" y="496" type="line"/>
      <point x="273" y="125" type="line"/>
      <point x="53" y="125" type="line"/>
      <point x="320" y="501" type="line"/>
      <point x="53" y="876" type="line"/>
      <point x="273" y="876" type="line"/>
      <point x="532" y="505" type="line"/>
    </contour>
  </outline>
</glyph>
<glyph name="h" format="2">
  <advance width="1094"/>
  <outline>
    <contour>
      <point x="99" y="1460" type="line"/>
      <point x="312" y="1460" type="line"/>
      <point x="312" y="876" type="line"/>
      <point x="358" y="945"/>
      <point x="522" y="1037"/>
      <point x="632" y="1037" type="qcurve"/>
      <point x="999" y="1037"/>
      <point x="999" y="605" type="qcurve"/>
      <point x="999" y="0" type="line"/>
      <point x="787" y="0" type="line"/>
      <point x="787" y="581" type="line"/>
      <point x="787" y="722"/>
      <point x="687" y="852"/>
      <point x="462" y="852"/>
      <point x="312" y="700"/>
      <point x="312" y="577" type="qcurve"/>
      <point x="312" y="0" type="line"/>
      <point x="99" y="0" type="line"/>
    </contour>
  </outline>
</glyph>
<glyph name="hbar" format="2">
  <advance width="1172"/>
  <outline>
    <contour>
      <point x="178" y="1152" type="line"/>
      <point x="28" y="1152" type="line"/>
      <point x="28" y="1313" type="line"/>
      <point x="178" y="1313" type="line"/>
      <point x="178" y="1460" type="line"/>
      <point x="390" y="1460" type="line"/>
      <point x="390" y="1313" type="line"/>
      <point x="650" y="1313" type="line"/>
      <point x="650" y="1152" type="line"/>
      <point x="390" y="1152" type="line"/>
      <point x="390" y="869" type="line"/>
      <point x="436" y="938"/>
      <point x="601" y="1030"/>
      <point x="710" y="1030" type="qcurve"/>
      <point x="1077" y="1030"/>
      <point x="1077" y="598" type="qcurve"/>
      <point x="1077" y="0" type="line"/>
      <point x="865" y="0" type="line"/>
      <point x="865" y="574" type="line"/>
      <point x="865" y="715"/>
      <point x="766" y="844"/>
      <point x="541" y="844"/>
      <point x="390" y="692"/>
      <point x="390" y="570" type="qcurve"/>
      <point x="390" y="0" type="line"/>
      <point x="178" y="0" type="line"/>
    </contour>
  </outline>
</glyph>
<glyph name="hyphen" format="2">
  <advance width="789"/>
  <outline>
    <contour>
      <point x="54" y="635" type="line"/>
      <point x="735" y="635" type="line"/>
      <point x="735" y="457" type="line"/>
      <point x="54" y="457" type="line"/>
    </contour>
  </outline>
</glyph>
<glyph name="kgreenlandic" format="2">
  <advance width="1037"/>
  <outline>
    <contour>
      <point x="99" y="1014" type="line"/>
      <point x="312" y="1014" type="line"/>
      <point x="312" y="552" type="line"/>
      <point x="757" y="1014" type="line"/>
      <point x="999" y="1014" type="line"/>
      <point x="577" y="577" type="line"/>
      <point x="1038" y="0" type="line"/>
      <point x="785" y="0" type="line"/>
      <point x="438" y="445" type="line"/>
      <point x="312" y="315" type="line"/>
      <point x="312" y="0" type="line"/>
      <point x="99" y="0" type="line"/>
    </contour>
  </outline>
</glyph>
<glyph name="less" format="2">
  <advance width="1170"/>
  <outline>
    <contour>
      <point x="96" y="800" type="line"/>
      <point x="1074" y="1240" type="line"/>
      <point x="1074" y="1032" type="line"/>
      <point x="293" y="696" type="line"/>
      <point x="1074" y="359" type="line"/>
      <point x="1074" y="160" type="line"/>
      <point x="96" y="598" type="line"/>
    </contour>
  </outline>
</glyph>
<glyph name="lslash" format="2">
  <advance width="604"/>
  <outline>
    <contour>
      <point x="28" y="622" type="line"/>
      <point x="196" y="745" type="line"/>
      <point x="196" y="1460" type="line"/>
      <point x="408" y="1460" type="line"/>
      <point x="408" y="860" type="line"/>
      <point x="576" y="980" type="line"/>
      <point x="576" y="786" type="line"/>
      <point x="408" y="665" type="line"/>
      <point x="408" y="0" type="line"/>
      <point x="196" y="0" type="line"/>
      <point x="196" y="549" type="line"/>
      <point x="28" y="428" type="line"/>
    </contour>
  </outline>
</glyph>
<glyph name="multiply" format="2">
  <advance width="1170"/>
  <outline>
    <contour>
      <point x="453" y="699" type="line"/>
      <point x="115" y="1026" type="line"/>
      <point x="252" y="1152" type="line"/>
      <point x="587" y="829" type="line"/>
      <point x="921" y="1152" type="line"/>
      <point x="1056" y="1030" type="line"/>
      <point x="718" y="703" type="line"/>
      <point x="1056" y="377" type="line"/>
      <point x="919" y="250" type="line"/>
      <point x="584" y="574" type="line"/>
      <point x="249" y="250" type="line"/>
      <point x="115" y="372" type="line"/>
    </contour>
  </outline>
</glyph>
<glyph name="n" format="2">
  <advance width="1094"/>
  <outline>
    <contour>
      <point x="99" y="1014" type="line"/>
      <point x="305" y="1014" type="line"/>
      <point x="305" y="868" type="line"/>
      <point x="352" y="943"/>
      <point x="521" y="1037"/>
      <point x="632" y="1037" type="qcurve"/>
      <point x="999" y="1037"/>
      <point x="999" y="605" type="qcurve"/>
      <point x="999" y="0" type="line"/>
      <point x="787" y="0" type="line"/>
      <point x="787" y="581" type="line"/>
      <point x="787" y="722"/>
      <point x="687" y="852"/>
      <point x="462" y="852"/>
      <point x="312" y="700"/>
      <point x="312" y="577" type="qcurve"/>
      <point x="312" y="0" type="line"/>
      <point x="99" y="0" type="line"/>
    </contour>
  </outline>
</glyph>
<glyph name="nine.dnom" format="2">
  <advance width="749"/>
  <outline>
    <contour>
      <point x="44" y="504" type="qcurve"/>
      <point x="44" y="626"/>
      <point x="217" y="772"/>
      <point x="361" y="772" type="qcurve"/>
      <point x="519" y="772"/>
      <point x="700" y="568"/>
      <point x="700" y="394" type="qcurve"/>
      <point x="700" y="189"/>
      <point x="515" y="-23"/>
      <point x="356" y="-23" type="qcurve"/>
      <point x="235" y="-23"/>
      <point x="79" y="89"/>
      <point x="58" y="189" type="qcurve"/>
      <point x="233" y="189" type="line"/>
      <point x="264" y="113"/>
      <point x="361" y="113" type="qcurve"/>
      <point x="444" y="113"/>
      <point x="530" y="231"/>
      <point x="534" y="373" type="qcurve"/>
      <point x="460" y="259"/>
      <point x="311" y="259" type="qcurve"/>
      <point x="193" y="259"/>
      <point x="44" y="395"/>
    </contour>
    <contour>
      <point x="216" y="512" type="qcurve"/>
      <point x="216" y="455"/>
      <point x="293" y="390"/>
      <point x="433" y="390"/>
      <point x="510" y="455"/>
      <point x="510" y="512" type="qcurve"/>
      <point x="510" y="571"/>
      <point x="434" y="636"/>
      <point x="294" y="636"/>
      <point x="216" y="571"/>
    </contour>
  </outline>
</glyph>
<glyph name="nine" format="2">
  <advance width="1178"/>
  <outline>
    <contour>
      <point x="890" y="699" type="qcurve"/>
      <point x="831" y="600"/>
      <point x="632" y="495"/>
      <point x="512" y="495" type="qcurve"/>
      <point x="382" y="495"/>
      <point x="177" y="611"/>
      <point x="59" y="814"/>
      <point x="59" y="946" type="qcurve"/>
      <point x="59" y="1089"/>
      <point x="186" y="1303"/>
      <point x="414" y="1423"/>
      <point x="564" y="1423" type="qcurve"/>
      <point x="824" y="1423"/>
      <point x="1113" y="1044"/>
      <point x="1113" y="700" type="qcurve"/>
      <point x="1113" y="474"/>
      <point x="979" y="150"/>
      <point x="730" y="-23"/>
      <point x="556" y="-23" type="qcurve"/>
      <point x="370" y="-23"/>
      <point x="119" y="173"/>
      <point x="81" y="346" type="qcurve"/>
      <point x="302" y="346" type="line"/>
      <point x="360" y="161"/>
      <point x="556" y="161" type="qcurve"/>
      <point x="890" y="161"/>
    </contour>
    <contour>
      <point x="852" y="1076"/>
      <point x="689" y="1239"/>
      <point x="564" y="1239" type="qcurve"/>
      <point x="434" y="1239"/>
      <point x="284" y="1087"/>
      <point x="284" y="955" type="qcurve"/>
      <point x="284" y="830"/>
      <point x="435" y="678"/>
      <point x="565" y="678" type="qcurve"/>
      <point x="689" y="678"/>
      <point x="852" y="822"/>
      <point x="852" y="950" type="qcurve"/>
    </contour>
  </outline>
</glyph>
<glyph name="o" format="2">
  <advance width="1114"/>
  <outline>
    <contour>
      <point x="55" y="668"/>
      <point x="179" y="906"/>
      <point x="405" y="1037"/>
      <point x="710" y="1037"/>
      <point x="936" y="906"/>
      <point x="1059" y="668"/>
      <point x="1059" y="347"/>
      <point x="936" y="108"/>
      <point x="710" y="-23"/>
      <point x="405" y="-23"/>
      <point x="179" y="108"/>
      <point x="55" y="347"/>
    </contour>
    <contour>
      <point x="841" y="671"/>
      <point x="691" y="852"/>
      <point x="423" y="852"/>
      <point x="273" y="671"/>
      <point x="273" y="344"/>
      <point x="423" y="162"/>
      <point x="691" y="162"/>
      <point x="841" y="344"/>
    </contour>
  </outline>
</glyph>
<glyph name="oe" format="2">
  <advance width="1862"/>
  <outline>
    <contour>
      <point x="55" y="668"/>
      <point x="179" y="906"/>
      <point x="403" y="1037"/>
      <point x="553" y="1037" type="qcurve"/>
      <point x="687" y="1037"/>
      <point x="886" y="913"/>
      <point x="942" y="812" type="qcurve"/>
      <point x="1003" y="916"/>
      <point x="1196" y="1037"/>
      <point x="1326" y="1037" type="qcurve"/>
      <point x="1473" y="1037"/>
      <point x="1689" y="904"/>
      <point x="1807" y="661"/>
      <point x="1807" y="495" type="qcurve"/>
      <point x="1807" y="442" type="line"/>
      <point x="1055" y="442" type="line"/>
      <point x="1069" y="306"/>
      <point x="1212" y="157"/>
      <point x="1328" y="157" type="qcurve"/>
      <point x="1520" y="157"/>
      <point x="1574" y="311" type="qcurve"/>
      <point x="1781" y="311" type="line"/>
      <point x="1745" y="155"/>
      <point x="1503" y="-23"/>
      <point x="1323" y="-23" type="qcurve"/>
      <point x="1196" y="-23"/>
      <point x="1002" y="94"/>
      <point x="943" y="194" type="qcurve"/>
      <point x="886" y="94"/>
      <point x="687" y="-23"/>
      <point x="553" y="-23" type="qcurve"/>
      <point x="403" y="-23"/>
      <point x="179" y="108"/>
      <point x="55" y="347"/>
    </contour>
    <contour>
      <point x="841" y="671"/>
      <point x="691" y="852"/>
      <point x="423" y="852"/>
      <point x="273" y="671"/>
      <point x="273" y="344"/>
      <point x="423" y="162"/>
      <point x="691" y="162"/>
      <point x="841" y="344"/>
    </contour>
    <contour>
      <point x="1584" y="718"/>
      <point x="1441" y="859"/>
      <point x="1218" y="859"/>
      <point x="1076" y="720"/>
      <point x="1057" y="598" type="qcurve"/>
      <point x="1597" y="598" type="line"/>
    </contour>
  </outline>
</glyph>
<glyph name="one.dnom" format="2">
  <advance width="547"/>
  <outline>
    <contour>
      <point x="261" y="583" type="line"/>
      <point x="45" y="430" type="line"/>
      <point x="45" y="606" type="line"/>
      <point x="244" y="749" type="line"/>
      <point x="435" y="749" type="line"/>
      <point x="435" y="0" type="line"/>
      <point x="261" y="0" type="line"/>
    </contour>
  </outline>
</glyph>
<glyph name="one" format="2">
  <advance width="895"/>
  <outline>
    <contour>
      <point x="452" y="1171" type="line"/>
      <point x="89" y="922" type="line"/>
      <point x="89" y="1164" type="line"/>
      <point x="441" y="1400" type="line"/>
      <point x="671" y="1400" type="line"/>
      <point x="671" y="0" type="line"/>
      <point x="452" y="0" type="line"/>
    </contour>
  </outline>
</glyph>
<glyph name="ordfeminine" format="2">
  <advance width="686"/>
  <outline>
    <contour>
      <point x="48" y="937" type="qcurve"/>
      <point x="48" y="1036"/>
      <point x="190" y="1145"/>
      <point x="318" y="1145" type="qcurve"/>
      <point x="460" y="1145" type="line"/>
      <point x="460" y="1151" type="line"/>
      <point x="460" y="1292"/>
      <point x="331" y="1292" type="qcurve"/>
      <point x="227" y="1292"/>
      <point x="209" y="1213" type="qcurve"/>
      <point x="59" y="1213" type="line"/>
      <point x="72" y="1311"/>
      <point x="220" y="1423"/>
      <point x="335" y="1423" type="qcurve"/>
      <point x="471" y="1423"/>
      <point x="615" y="1285"/>
      <point x="615" y="1149" type="qcurve"/>
      <point x="615" y="757" type="line"/>
      <point x="465" y="757" type="line"/>
      <point x="465" y="845" type="line"/>
      <point x="403" y="744"/>
      <point x="258" y="744" type="qcurve"/>
      <point x="161" y="744"/>
      <point x="48" y="847"/>
    </contour>
    <contour>
      <point x="202" y="946" type="qcurve"/>
      <point x="202" y="866"/>
      <point x="303" y="866" type="qcurve"/>
      <point x="371" y="866"/>
      <point x="460" y="943"/>
      <point x="460" y="1013" type="qcurve"/>
      <point x="460" y="1041" type="line"/>
      <point x="335" y="1041" type="line"/>
      <point x="202" y="1041"/>
    </contour>
  </outline>
</glyph>
<glyph name="ordmasculine" format="2">
  <advance width="736"/>
  <outline>
    <contour>
      <point x="42" y="1237"/>
      <point x="220" y="1422"/>
      <point x="516" y="1422"/>
      <point x="694" y="1237"/>
      <point x="694" y="929"/>
      <point x="516" y="744"/>
      <point x="220" y="744"/>
      <point x="42" y="929"/>
    </contour>
    <contour>
      <point x="540" y="1180"/>
      <point x="448" y="1290"/>
      <point x="288" y="1290"/>
      <point x="195" y="1180"/>
      <point x="195" y="986"/>
      <point x="288" y="876"/>
      <point x="448" y="876"/>
      <point x="540" y="986"/>
    </contour>
  </outline>
</glyph>
<glyph name="p" format="2">
  <advance width="1148"/>
  <outline>
    <contour>
      <point x="99" y="1014" type="line"/>
      <point x="305" y="1014" type="line"/>
      <point x="305" y="853" type="line"/>
      <point x="349" y="933"/>
      <point x="529" y="1037"/>
      <point x="644" y="1037" type="qcurve"/>
      <point x="782" y="1037"/>
      <point x="983" y="906"/>
      <point x="1093" y="668"/>
      <point x="1093" y="348"/>
      <point x="983" y="109"/>
      <point x="781" y="-23"/>
      <point x="644" y="-23" type="qcurve"/>
      <point x="529" y="-23"/>
      <point x="359" y="73"/>
      <point x="312" y="149" type="qcurve"/>
      <point x="312" y="-370" type="line"/>
      <point x="99" y="-370" type="line"/>
    </contour>
    <contour>
      <point x="875" y="669"/>
      <point x="725" y="852"/>
      <point x="457" y="852"/>
      <point x="307" y="669"/>
      <point x="307" y="345"/>
      <point x="457" y="162"/>
      <point x="725" y="162"/>
      <point x="875" y="345"/>
    </contour>
  </outline>
</glyph>
<glyph name="paragraph" format="2">
  <advance width="1169"/>
  <outline>
    <contour>
      <point x="548" y="621" type="line"/>
      <point x="525" y="621" type="line"/>
      <point x="384" y="621"/>
      <point x="175" y="729"/>
      <point x="59" y="924"/>
      <point x="59" y="1182"/>
      <point x="175" y="1375"/>
      <point x="384" y="1483"/>
      <point x="525" y="1483" type="qcurve"/>
      <point x="722" y="1483" type="line"/>
      <point x="722" y="-148" type="line"/>
      <point x="548" y="-148" type="line"/>
    </contour>
    <contour>
      <point x="881" y="1483" type="line"/>
      <point x="1055" y="1483" type="line"/>
      <point x="1055" y="-148" type="line"/>
      <point x="881" y="-148" type="line"/>
    </contour>
  </outline>
</glyph>
<glyph name="parenleft" format="2">
  <advance width="637"/>
  <outline>
    <contour>
      <point x="102" y="864"/>
      <point x="248" y="1302"/>
      <point x="382" y="1470" type="qcurve"/>
      <point x="598" y="1470" type="line"/>
      <point x="467" y="1303"/>
      <point x="325" y="866"/>
      <point x="325" y="384"/>
      <point x="467" y="-53"/>
      <point x="598" y="-220" type="qcurve"/>
      <point x="382" y="-220" type="line"/>
      <point x="248" y="-52"/>
      <point x="102" y="387"/>
    </contour>
  </outline>
</glyph>
<glyph name="parenright" format="2">
  <advance width="637"/>
  <outline>
    <contour>
      <point x="311" y="866"/>
      <point x="170" y="1303"/>
      <point x="38" y="1470" type="qcurve"/>
      <point x="255" y="1470" type="line"/>
      <point x="389" y="1302"/>
      <point x="534" y="864"/>
      <point x="534" y="387"/>
      <point x="389" y="-52"/>
      <point x="255" y="-220" type="qcurve"/>
      <point x="38" y="-220" type="line"/>
      <point x="170" y="-53"/>
      <point x="311" y="384"/>
    </contour>
  </outline>
</glyph>
<glyph name="period" format="2">
  <advance width="449"/>
  <outline>
    <contour>
      <point x="85" y="176"/>
      <point x="166" y="256"/>
      <point x="284" y="256"/>
      <point x="364" y="176"/>
      <point x="364" y="57"/>
      <point x="284" y="-23"/>
      <point x="166" y="-23"/>
      <point x="85" y="57"/>
    </contour>
  </outline>
</glyph>
<glyph name="plusminus" format="2">
  <advance width="1170"/>
  <outline>
    <contour>
      <point x="72" y="866" type="line"/>
      <point x="474" y="866" type="line"/>
      <point x="474" y="1259" type="line"/>
      <point x="668" y="1259" type="line"/>
      <point x="668" y="866" type="line"/>
      <point x="1070" y="866" type="line"/>
      <point x="1070" y="680" type="line"/>
      <point x="668" y="680" type="line"/>
      <point x="668" y="288" type="line"/>
      <point x="474" y="288" type="line"/>
      <point x="474" y="680" type="line"/>
      <point x="72" y="680" type="line"/>
    </contour>
    <contour>
      <point x="72" y="185" type="line"/>
      <point x="1070" y="185" type="line"/>
      <point x="1070" y="0" type="line"/>
      <point x="72" y="0" type="line"/>
    </contour>
  </outline>
</glyph>
<glyph name="question" format="2">
  <advance width="1024"/>
  <outline>
    <contour>
      <point x="404" y="525"/>
      <point x="435" y="673"/>
      <point x="511" y="787"/>
      <point x="580" y="841" type="qcurve"/>
      <point x="641" y="890" type="line"/>
      <point x="704" y="940"/>
      <point x="755" y="1044"/>
      <point x="755" y="1102" type="qcurve"/>
      <point x="755" y="1194"/>
      <point x="625" y="1293"/>
      <point x="519" y="1293" type="qcurve"/>
      <point x="407" y="1293"/>
      <point x="274" y="1178"/>
      <point x="261" y="1069" type="qcurve"/>
      <point x="51" y="1069" type="line"/>
      <point x="59" y="1189"/>
      <point x="181" y="1377"/>
      <point x="389" y="1484"/>
      <point x="658" y="1484"/>
      <point x="863" y="1392"/>
      <point x="979" y="1225"/>
      <point x="979" y="1112" type="qcurve"/>
      <point x="979" y="1016"/>
      <point x="893" y="856"/>
      <point x="791" y="776" type="qcurve"/>
      <point x="720" y="721" type="line"/>
      <point x="653" y="668"/>
      <point x="603" y="535"/>
      <point x="603" y="419" type="qcurve"/>
      <point x="404" y="419" type="line"/>
    </contour>
    <contour>
      <point x="365" y="176"/>
      <point x="446" y="256"/>
      <point x="564" y="256"/>
      <point x="644" y="176"/>
      <point x="644" y="57"/>
      <point x="564" y="-23"/>
      <point x="446" y="-23"/>
      <point x="365" y="57"/>
    </contour>
  </outline>
</glyph>
<glyph name="questiondown" format="2">
  <advance width="1024"/>
  <outline>
    <contour>
      <point x="45" y="-98" type="qcurve"/>
      <point x="45" y="-2"/>
      <point x="131" y="158"/>
      <point x="233" y="238" type="qcurve"/>
      <point x="304" y="293" type="line"/>
      <point x="371" y="346"/>
      <point x="421" y="480"/>
      <point x="421" y="595" type="qcurve"/>
      <point x="619" y="595" type="line"/>
      <point x="619" y="489"/>
      <point x="589" y="342"/>
      <point x="513" y="228"/>
      <point x="444" y="173" type="qcurve"/>
      <point x="383" y="124" type="line"/>
      <point x="320" y="74"/>
      <point x="269" y="-29"/>
      <point x="269" y="-87" type="qcurve"/>
      <point x="269" y="-179"/>
      <point x="399" y="-279"/>
      <point x="505" y="-279" type="qcurve"/>
      <point x="617" y="-279"/>
      <point x="750" y="-164"/>
      <point x="763" y="-55" type="qcurve"/>
      <point x="973" y="-55" type="line"/>
      <point x="966" y="-175"/>
      <point x="843" y="-362"/>
      <point x="636" y="-470"/>
      <point x="500" y="-470" type="qcurve"/>
      <point x="366" y="-470"/>
      <point x="161" y="-378"/>
      <point x="45" y="-211"/>
    </contour>
    <contour>
      <point x="380" y="958"/>
      <point x="460" y="1037"/>
      <point x="578" y="1037"/>
      <point x="659" y="958"/>
      <point x="659" y="838"/>
      <point x="578" y="758"/>
      <point x="460" y="758"/>
      <point x="380" y="838"/>
    </contour>
  </outline>
</glyph>
<glyph name="quoteleft" format="2">
  <advance width="499"/>
  <outline>
    <contour>
      <point x="320" y="924" type="line"/>
      <point x="95" y="924" type="line"/>
      <point x="228" y="1460" type="line"/>
      <point x="405" y="1460" type="line"/>
    </contour>
  </outline>
</glyph>
<glyph name="quoteright" format="2">
  <advance width="499"/>
  <outline>
    <contour>
      <point x="179" y="1460" type="line"/>
      <point x="405" y="1460" type="line"/>
      <point x="272" y="924" type="line"/>
      <point x="95" y="924" type="line"/>
    </contour>
  </outline>
</glyph>
<glyph name="quotesingle" format="2">
  <advance width="418"/>
  <outline>
    <contour>
      <point x="95" y="1460" type="line"/>
      <point x="323" y="1460" type="line"/>
      <point x="297" y="924" type="line"/>
      <point x="121" y="924" type="line"/>
    </contour>
  </outline>
</glyph>
<glyph name="r" format="2">
  <advance width="692"/>
  <outline>
    <contour>
      <point x="99" y="1014" type="line"/>
      <point x="305" y="1014" type="line"/>
      <point x="305" y="859" type="line"/>
      <point x="349" y="949"/>
      <point x="480" y="1030"/>
      <point x="582" y="1030" type="qcurve"/>
      <point x="615" y="1030"/>
      <point x="669" y="1021" type="qcurve"/>
      <point x="669" y="820" type="line"/>
      <point x="646" y="825"/>
      <point x="590" y="829"/>
      <point x="567" y="829" type="qcurve"/>
      <point x="312" y="829"/>
      <point x="312" y="512" type="qcurve"/>
      <point x="312" y="0" type="line"/>
      <point x="99" y="0" type="line"/>
    </contour>
  </outline>
</glyph>
<glyph name="s" format="2">
  <advance width="961"/>
  <outline>
    <contour>
      <point x="693" y="280" type="qcurve"/>
      <point x="693" y="336"/>
      <point x="625" y="394"/>
      <point x="536" y="413" type="qcurve"/>
      <point x="364" y="450" type="line"/>
      <point x="90" y="511"/>
      <point x="90" y="730" type="qcurve"/>
      <point x="90" y="869"/>
      <point x="303" y="1037"/>
      <point x="656" y="1037"/>
      <point x="873" y="876"/>
      <point x="889" y="729" type="qcurve"/>
      <point x="693" y="729" type="line"/>
      <point x="668" y="868"/>
      <point x="485" y="868" type="qcurve"/>
      <point x="394" y="868"/>
      <point x="290" y="802"/>
      <point x="290" y="744" type="qcurve"/>
      <point x="290" y="695"/>
      <point x="357" y="637"/>
      <point x="439" y="620" type="qcurve"/>
      <point x="615" y="583" type="line"/>
      <point x="901" y="521"/>
      <point x="901" y="284" type="qcurve"/>
      <point x="901" y="141"/>
      <point x="674" y="-23"/>
      <point x="475" y="-23" type="qcurve"/>
      <point x="300" y="-23"/>
      <point x="80" y="139"/>
      <point x="56" y="287" type="qcurve"/>
      <point x="252" y="287" type="line"/>
      <point x="284" y="149"/>
      <point x="475" y="149" type="qcurve"/>
      <point x="693" y="149"/>
    </contour>
  </outline>
</glyph>
<glyph name="section" format="2">
  <advance width="1030"/>
  <outline>
    <contour>
      <point x="706" y="170" type="qcurve"/>
      <point x="706" y="283"/>
      <point x="555" y="330" type="qcurve"/>
      <point x="376" y="384" type="line"/>
      <point x="70" y="477"/>
      <point x="70" y="701" type="qcurve"/>
      <point x="70" y="854"/>
      <point x="218" y="939" type="qcurve"/>
      <point x="124" y="1030"/>
      <point x="124" y="1167" type="qcurve"/>
      <point x="124" y="1313"/>
      <point x="338" y="1483"/>
      <point x="521" y="1483" type="qcurve"/>
      <point x="694" y="1483"/>
      <point x="907" y="1320"/>
      <point x="923" y="1175" type="qcurve"/>
      <point x="727" y="1175" type="line"/>
      <point x="703" y="1322"/>
      <point x="521" y="1322" type="qcurve"/>
      <point x="426" y="1322"/>
      <point x="324" y="1245"/>
      <point x="324" y="1171" type="qcurve"/>
      <point x="324" y="1115"/>
      <point x="407" y="1024"/>
      <point x="480" y="1001" type="qcurve"/>
      <point x="659" y="947" type="line"/>
      <point x="965" y="856"/>
      <point x="965" y="630" type="qcurve"/>
      <point x="965" y="475"/>
      <point x="817" y="393" type="qcurve"/>
      <point x="911" y="302"/>
      <point x="911" y="175" type="qcurve"/>
      <point x="911" y="19"/>
      <point x="693" y="-153"/>
      <point x="493" y="-153" type="qcurve"/>
      <point x="313" y="-153"/>
      <point x="90" y="10"/>
      <point x="67" y="158" type="qcurve"/>
      <point x="263" y="158" type="line"/>
      <point x="296" y="8"/>
      <point x="493" y="8" type="qcurve"/>
      <point x="596" y="8"/>
      <point x="706" y="92"/>
    </contour>
    <contour>
      <point x="766" y="675"/>
      <point x="681" y="751"/>
      <point x="578" y="782" type="qcurve"/>
      <point x="362" y="848" type="line"/>
      <point x="269" y="809"/>
      <point x="269" y="712" type="qcurve"/>
      <point x="269" y="656"/>
      <point x="354" y="582"/>
      <point x="457" y="550" type="qcurve"/>
      <point x="673" y="483" type="line"/>
      <point x="766" y="522"/>
      <point x="766" y="619" type="qcurve"/>
    </contour>
  </outline>
</glyph>
<glyph name="semicolon" format="2">
  <advance width="449"/>
  <outline>
    <contour>
      <point x="127" y="237" type="line"/>
      <point x="364" y="237" type="line"/>
      <point x="217" y="-330" type="line"/>
      <point x="40" y="-330" type="line"/>
    </contour>
    <contour>
      <point x="85" y="957"/>
      <point x="166" y="1037"/>
      <point x="284" y="1037"/>
      <point x="364" y="957"/>
      <point x="364" y="838"/>
      <point x="284" y="758"/>
      <point x="166" y="758"/>
      <point x="85" y="838"/>
    </contour>
  </outline>
</glyph>
<glyph name="seven" format="2">
  <advance width="1032"/>
  <outline>
    <contour>
      <point x="31" y="1400" type="line"/>
      <point x="1001" y="1400" type="line"/>
      <point x="1001" y="1221" type="line"/>
      <point x="436" y="0" type="line"/>
      <point x="193" y="0" type="line"/>
      <point x="781" y="1212" type="line"/>
      <point x="31" y="1212" type="line"/>
    </contour>
  </outline>
</glyph>
<glyph name="six.dnom" format="2">
  <advance width="749"/>
  <outline>
    <contour>
      <point x="49" y="354" type="qcurve"/>
      <point x="49" y="560"/>
      <point x="234" y="772"/>
      <point x="393" y="772" type="qcurve"/>
      <point x="513" y="772"/>
      <point x="670" y="659"/>
      <point x="691" y="560" type="qcurve"/>
      <point x="516" y="560" type="line"/>
      <point x="485" y="636"/>
      <point x="388" y="636" type="qcurve"/>
      <point x="306" y="636"/>
      <point x="218" y="518"/>
      <point x="214" y="376" type="qcurve"/>
      <point x="289" y="490"/>
      <point x="438" y="490" type="qcurve"/>
      <point x="556" y="490"/>
      <point x="704" y="354"/>
      <point x="704" y="245" type="qcurve"/>
      <point x="704" y="123"/>
      <point x="531" y="-23"/>
      <point x="387" y="-23" type="qcurve"/>
      <point x="230" y="-23"/>
      <point x="49" y="181"/>
    </contour>
    <contour>
      <point x="532" y="294"/>
      <point x="457" y="359"/>
      <point x="316" y="359"/>
      <point x="238" y="294"/>
      <point x="238" y="179"/>
      <point x="315" y="112"/>
      <point x="384" y="112" type="qcurve"/>
      <point x="455" y="112"/>
      <point x="532" y="179"/>
    </contour>
  </outline>
</glyph>
<glyph name="six" format="2">
  <advance width="1178"/>
  <outline>
    <contour>
      <point x="65" y="700" type="qcurve"/>
      <point x="65" y="927"/>
      <point x="199" y="1250"/>
      <point x="448" y="1423"/>
      <point x="622" y="1423" type="qcurve"/>
      <point x="808" y="1423"/>
      <point x="1059" y="1227"/>
      <point x="1097" y="1054" type="qcurve"/>
      <point x="876" y="1054" type="line"/>
      <point x="818" y="1239"/>
      <point x="622" y="1239" type="qcurve"/>
      <point x="288" y="1239"/>
      <point x="288" y="701" type="qcurve"/>
      <point x="347" y="800"/>
      <point x="546" y="905"/>
      <point x="666" y="905" type="qcurve"/>
      <point x="796" y="905"/>
      <point x="1001" y="789"/>
      <point x="1119" y="586"/>
      <point x="1119" y="454" type="qcurve"/>
      <point x="1119" y="312"/>
      <point x="991" y="97"/>
      <point x="764" y="-23"/>
      <point x="614" y="-23" type="qcurve"/>
      <point x="354" y="-23"/>
      <point x="65" y="357"/>
    </contour>
    <contour>
      <point x="326" y="450" type="qcurve"/>
      <point x="326" y="324"/>
      <point x="489" y="161"/>
      <point x="614" y="161" type="qcurve"/>
      <point x="745" y="161"/>
      <point x="894" y="313"/>
      <point x="894" y="445" type="qcurve"/>
      <point x="894" y="570"/>
      <point x="744" y="722"/>
      <point x="613" y="722" type="qcurve"/>
      <point x="489" y="722"/>
      <point x="326" y="578"/>
    </contour>
  </outline>
</glyph>
<glyph name="sterling" format="2">
  <advance width="1170"/>
  <outline>
    <contour>
      <point x="48" y="185" type="line"/>
      <point x="70" y="185" type="line"/>
      <point x="188" y="185"/>
      <point x="316" y="325"/>
      <point x="316" y="448" type="qcurve"/>
      <point x="316" y="479"/>
      <point x="304" y="543"/>
      <point x="289" y="587" type="qcurve"/>
      <point x="48" y="587" type="line"/>
      <point x="48" y="762" type="line"/>
      <point x="224" y="762" type="line"/>
      <point x="182" y="891"/>
      <point x="182" y="1003" type="qcurve"/>
      <point x="182" y="1199"/>
      <point x="428" y="1424"/>
      <point x="637" y="1424" type="qcurve"/>
      <point x="838" y="1424"/>
      <point x="1083" y="1206"/>
      <point x="1108" y="1008" type="qcurve"/>
      <point x="881" y="1008" type="line"/>
      <point x="844" y="1239"/>
      <point x="637" y="1239" type="qcurve"/>
      <point x="528" y="1239"/>
      <point x="409" y="1119"/>
      <point x="409" y="1000" type="qcurve"/>
      <point x="409" y="896"/>
      <point x="453" y="762" type="qcurve"/>
      <point x="879" y="762" type="line"/>
      <point x="879" y="587" type="line"/>
      <point x="514" y="587" type="line"/>
      <point x="535" y="514"/>
      <point x="535" y="457" type="qcurve"/>
      <point x="535" y="372"/>
      <point x="459" y="231"/>
      <point x="393" y="185" type="qcurve"/>
      <point x="1121" y="185" type="line"/>
      <point x="1121" y="0" type="line"/>
      <point x="48" y="0" type="line"/>
    </contour>
  </outline>
</glyph>
<glyph name="t_t" format="2">
  <advance width="1335"/>
  <outline>
    <contour>
      <point x="832" y="316" type="qcurve"/>
      <point x="832" y="843" type="line"/>
      <point x="687" y="843" type="line"/>
      <point x="687" y="1014" type="line"/>
      <point x="832" y="1014" type="line"/>
      <point x="832" y="1310" type="line"/>
      <point x="1044" y="1310" type="line"/>
      <point x="1044" y="1014" type="line"/>
      <point x="1296" y="1014" type="line"/>
      <point x="1296" y="843" type="line"/>
      <point x="1044" y="843" type="line"/>
      <point x="1044" y="345" type="line"/>
      <point x="1044" y="245"/>
      <point x="1115" y="168"/>
      <point x="1210" y="168" type="qcurve"/>
      <point x="1229" y="168"/>
      <point x="1274" y="171"/>
      <point x="1296" y="175" type="qcurve"/>
      <point x="1296" y="0" type="line"/>
      <point x="1260" y="-6"/>
      <point x="1198" y="-13"/>
      <point x="1166" y="-13" type="qcurve"/>
      <point x="993" y="-13"/>
      <point x="832" y="144"/>
    </contour>
    <contour>
      <point x="617" y="843" type="line"/>
      <point x="427" y="843" type="line"/>
      <point x="427" y="345" type="line"/>
      <point x="427" y="245"/>
      <point x="498" y="168"/>
      <point x="593" y="168" type="qcurve"/>
      <point x="612" y="168"/>
      <point x="656" y="171"/>
      <point x="679" y="175" type="qcurve"/>
      <point x="679" y="0" type="line"/>
      <point x="643" y="-6"/>
      <point x="580" y="-13"/>
      <point x="549" y="-13" type="qcurve"/>
      <point x="375" y="-13"/>
      <point x="215" y="144"/>
      <point x="215" y="316" type="qcurve"/>
      <point x="215" y="843" type="line"/>
      <point x="25" y="843" type="line"/>
      <point x="25" y="1014" type="line"/>
      <point x="215" y="1014" type="line"/>
      <point x="215" y="1310" type="line"/>
      <point x="427" y="1310" type="line"/>
      <point x="427" y="1014" type="line"/>
      <point x="617" y="1014" type="line"/>
    </contour>
  </outline>
</glyph>
<glyph name="tbar" format="2">
  <advance width="717"/>
  <outline>
    <contour>
      <point x="215" y="316" type="qcurve"/>
      <point x="215" y="447" type="line"/>
      <point x="25" y="447" type="line"/>
      <point x="25" y="608" type="line"/>
      <point x="215" y="608" type="line"/>
      <point x="215" y="843" type="line"/>
      <point x="25" y="843" type="line"/>
      <point x="25" y="1014" type="line"/>
      <point x="215" y="1014" type="line"/>
      <point x="215" y="1310" type="line"/>
      <point x="427" y="1310" type="line"/>
      <point x="427" y="1014" type="line"/>
      <point x="679" y="1014" type="line"/>
      <point x="679" y="843" type="line"/>
      <point x="427" y="843" type="line"/>
      <point x="427" y="608" type="line"/>
      <point x="677" y="608" type="line"/>
      <point x="677" y="447" type="line"/>
      <point x="427" y="447" type="line"/>
      <point x="427" y="345" type="line"/>
      <point x="427" y="245"/>
      <point x="498" y="168"/>
      <point x="593" y="168" type="qcurve"/>
      <point x="612" y="168"/>
      <point x="656" y="171"/>
      <point x="679" y="175" type="qcurve"/>
      <point x="679" y="0" type="line"/>
      <point x="643" y="-6"/>
      <point x="580" y="-13"/>
      <point x="549" y="-13" type="qcurve"/>
      <point x="375" y="-13"/>
      <point x="215" y="144"/>
    </contour>
  </outline>
</glyph>
<glyph name="thorn" format="2">
  <advance width="1148"/>
  <outline>
    <contour>
      <point x="99" y="1460" type="line"/>
      <point x="308" y="1460" type="line"/>
      <point x="308" y="857" type="line"/>
      <point x="353" y="937"/>
      <point x="530" y="1037"/>
      <point x="644" y="1037" type="qcurve"/>
      <point x="782" y="1037"/>
      <point x="983" y="906"/>
      <point x="1093" y="668"/>
      <point x="1093" y="348"/>
      <point x="983" y="109"/>
      <point x="781" y="-23"/>
      <point x="644" y="-23" type="qcurve"/>
      <point x="529" y="-23"/>
      <point x="359" y="73"/>
      <point x="312" y="149" type="qcurve"/>
      <point x="312" y="-370" type="line"/>
      <point x="99" y="-370" type="line"/>
    </contour>
    <contour>
      <point x="875" y="669"/>
      <point x="725" y="852"/>
      <point x="457" y="852"/>
      <point x="307" y="669"/>
      <point x="307" y="345"/>
      <point x="457" y="162"/>
      <point x="725" y="162"/>
      <point x="875" y="345"/>
    </contour>
  </outline>
</glyph>
<glyph name="three.dnom" format="2">
  <advance width="733"/>
  <outline>
    <contour>
      <point x="491" y="290"/>
      <point x="410" y="353"/>
      <point x="336" y="353" type="qcurve"/>
      <point x="287" y="353"/>
      <point x="227" y="338" type="qcurve"/>
      <point x="227" y="448" type="line"/>
      <point x="426" y="609" type="line"/>
      <point x="81" y="609" type="line"/>
      <point x="81" y="749" type="line"/>
      <point x="640" y="749" type="line"/>
      <point x="640" y="629" type="line"/>
      <point x="439" y="465" type="line"/>
      <point x="545" y="452"/>
      <point x="667" y="326"/>
      <point x="667" y="231" type="qcurve"/>
      <point x="667" y="113"/>
      <point x="497" y="-23"/>
      <point x="351" y="-23" type="qcurve"/>
      <point x="216" y="-23"/>
      <point x="58" y="102"/>
      <point x="45" y="218" type="qcurve"/>
      <point x="217" y="218" type="line"/>
      <point x="235" y="118"/>
      <point x="347" y="118" type="qcurve"/>
      <point x="415" y="118"/>
      <point x="491" y="179"/>
    </contour>
  </outline>
</glyph>
<glyph name="three" format="2">
  <advance width="1194"/>
  <outline>
    <contour>
      <point x="857" y="430" type="qcurve"/>
      <point x="857" y="558"/>
      <point x="700" y="702"/>
      <point x="559" y="702" type="qcurve"/>
      <point x="475" y="702"/>
      <point x="380" y="675" type="qcurve"/>
      <point x="380" y="833" type="line"/>
      <point x="761" y="1217" type="line"/>
      <point x="132" y="1217" type="line"/>
      <point x="132" y="1400" type="line"/>
      <point x="1035" y="1400" type="line"/>
      <point x="1035" y="1243" type="line"/>
      <point x="652" y="863" type="line"/>
      <point x="782" y="856"/>
      <point x="976" y="743"/>
      <point x="1083" y="553"/>
      <point x="1083" y="430" type="qcurve"/>
      <point x="1083" y="292"/>
      <point x="959" y="88"/>
      <point x="733" y="-23"/>
      <point x="579" y="-23" type="qcurve"/>
      <point x="370" y="-23"/>
      <point x="115" y="184"/>
      <point x="90" y="374" type="qcurve"/>
      <point x="317" y="374" type="line"/>
      <point x="353" y="162"/>
      <point x="580" y="162" type="qcurve"/>
      <point x="709" y="162"/>
      <point x="857" y="305"/>
    </contour>
  </outline>
</glyph>
<glyph name="tildecomb" format="2">
  <outline>
    <contour>
      <point x="-221" y="1176" type="qcurve"/>
      <point x="-381" y="1176" type="line"/>
      <point x="-381" y="1323"/>
      <point x="-259" y="1491"/>
      <point x="-153" y="1491" type="qcurve"/>
      <point x="-94" y="1491"/>
      <point x="-1" y="1437"/>
      <point x="51" y="1370" type="qcurve"/>
      <point x="83" y="1328"/>
      <point x="119" y="1298"/>
      <point x="139" y="1298" type="qcurve"/>
      <point x="221" y="1298"/>
      <point x="221" y="1467" type="qcurve"/>
      <point x="381" y="1467" type="line"/>
      <point x="381" y="1321"/>
      <point x="259" y="1152"/>
      <point x="153" y="1152" type="qcurve"/>
      <point x="95" y="1152"/>
      <point x="1" y="1207"/>
      <point x="-51" y="1274" type="qcurve"/>
      <point x="-82" y="1315"/>
      <point x="-119" y="1345"/>
      <point x="-139" y="1345" type="qcurve"/>
      <point x="-221" y="1345"/>
    </contour>
  </outline>
</glyph>
<glyph name="two" format="2">
  <advance width="1136"/>
  <outline>
    <contour>
      <point x="102" y="161" type="line"/>
      <point x="547" y="591" type="line"/>
      <point x="650" y="689"/>
      <point x="763" y="827"/>
      <point x="808" y="943"/>
      <point x="808" y="1007" type="qcurve"/>
      <point x="808" y="1116"/>
      <point x="680" y="1238"/>
      <point x="566" y="1238" type="qcurve"/>
      <point x="340" y="1238"/>
      <point x="303" y="1008" type="qcurve"/>
      <point x="76" y="1008" type="line"/>
      <point x="101" y="1207"/>
      <point x="355" y="1423"/>
      <point x="566" y="1423" type="qcurve"/>
      <point x="782" y="1423"/>
      <point x="1034" y="1200"/>
      <point x="1034" y="1009" type="qcurve"/>
      <point x="1034" y="923"/>
      <point x="978" y="769"/>
      <point x="837" y="592"/>
      <point x="711" y="469" type="qcurve"/>
      <point x="416" y="183" type="line"/>
      <point x="1066" y="183" type="line"/>
      <point x="1066" y="0" type="line"/>
      <point x="102" y="0" type="line"/>
    </contour>
  </outline>
</glyph>
<glyph name="u" format="2">
  <advance width="1089"/>
  <outline>
    <contour>
      <point x="95" y="409" type="qcurve"/>
      <point x="95" y="1014" type="line"/>
      <point x="307" y="1014" type="line"/>
      <point x="307" y="433" type="line"/>
      <point x="307" y="292"/>
      <point x="405" y="163"/>
      <point x="515" y="163" type="qcurve"/>
      <point x="627" y="163"/>
      <point x="777" y="315"/>
      <point x="777" y="437" type="qcurve"/>
      <point x="777" y="1014" type="line"/>
      <point x="989" y="1014" type="line"/>
      <point x="989" y="0" type="line"/>
      <point x="784" y="0" type="line"/>
      <point x="784" y="146" type="line"/>
      <point x="737" y="71"/>
      <point x="569" y="-23"/>
      <point x="458" y="-23" type="qcurve"/>
      <point x="95" y="-23"/>
    </contour>
  </outline>
</glyph>
<glyph name="uni0237" format="2">
  <advance width="411"/>
  <outline>
    <contour>
      <point x="-100" y="-205" type="line"/>
      <point x="-66" y="-215"/>
      <point x="-20" y="-215" type="qcurve"/>
      <point x="48" y="-215"/>
      <point x="99" y="-143"/>
      <point x="99" y="-48" type="qcurve"/>
      <point x="99" y="1014" type="line"/>
      <point x="312" y="1014" type="line"/>
      <point x="312" y="-67" type="line"/>
      <point x="312" y="-239"/>
      <point x="169" y="-393"/>
      <point x="19" y="-393" type="qcurve"/>
      <point x="-16" y="-393"/>
      <point x="-74" y="-384"/>
      <point x="-100" y="-378" type="qcurve"/>
    </contour>
  </outline>
</glyph>
<glyph name="uni0302.cap" format="2">
  <outline>
    <contour>
      <point x="-96" y="1838" type="line"/>
      <point x="96" y="1838" type="line"/>
      <point x="379" y="1520" type="line"/>
      <point x="165" y="1520" type="line"/>
      <point x="-2" y="1690" type="line"/>
      <point x="-169" y="1520" type="line"/>
      <point x="-379" y="1520" type="line"/>
    </contour>
  </outline>
</glyph>
<glyph name="uni0304.cap" format="2">
  <outline>
    <contour>
      <point x="-352" y="1729" type="line"/>
      <point x="352" y="1729" type="line"/>
      <point x="352" y="1568" type="line"/>
      <point x="-352" y="1568" type="line"/>
    </contour>
  </outline>
</glyph>
<glyph name="uni0308.cap" format="2">
  <outline>
    <contour>
      <point x="-364" y="1706"/>
      <point x="-286" y="1784"/>
      <point x="-171" y="1784"/>
      <point x="-93" y="1706"/>
      <point x="-93" y="1591"/>
      <point x="-171" y="1513"/>
      <point x="-286" y="1513"/>
      <point x="-364" y="1591"/>
    </contour>
    <contour>
      <point x="93" y="1706"/>
      <point x="171" y="1784"/>
      <point x="286" y="1784"/>
      <point x="364" y="1706"/>
      <point x="364" y="1591"/>
      <point x="286" y="1513"/>
      <point x="171" y="1513"/>
      <point x="93" y="1591"/>
    </contour>
  </outline>
</glyph>
<glyph name="uni030A.cap" format="2">
  <outline>
    <contour>
      <point x="-256" y="1845"/>
      <point x="-114" y="1981"/>
      <point x="114" y="1981"/>
      <point x="256" y="1845"/>
      <point x="256" y="1636"/>
      <point x="114" y="1500"/>
      <point x="-114" y="1500"/>
      <point x="-256" y="1636"/>
    </contour>
    <contour>
      <point x="112" y="1792"/>
      <point x="50" y="1857"/>
      <point x="-50" y="1857"/>
      <point x="-112" y="1792"/>
      <point x="-112" y="1689"/>
      <point x="-50" y="1624"/>
      <point x="50" y="1624"/>
      <point x="112" y="1689"/>
    </contour>
  </outline>
</glyph>
<glyph name="uni030B" format="2">
  <outline>
    <contour>
      <point x="-102" y="1518" type="line"/>
      <point x="124" y="1518" type="line"/>
      <point x="-103" y="1160" type="line"/>
      <point x="-281" y="1160" type="line"/>
    </contour>
    <contour>
      <point x="287" y="1518" type="line"/>
      <point x="512" y="1518" type="line"/>
      <point x="285" y="1160" type="line"/>
      <point x="107" y="1160" type="line"/>
    </contour>
  </outline>
</glyph>
<glyph name="uni0327.cap" format="2">
  <outline>
    <contour>
      <point x="-197" y="-341" type="line"/>
      <point x="-144" y="-362"/>
      <point x="-60" y="-362" type="qcurve"/>
      <point x="-3" y="-362"/>
      <point x="62" y="-322"/>
      <point x="62" y="-287" type="qcurve"/>
      <point x="62" y="-209"/>
      <point x="-66" y="-209" type="qcurve"/>
      <point x="-176" y="-209" type="line"/>
      <point x="-176" y="-120" type="line"/>
      <point x="-33" y="48" type="line"/>
      <point x="98" y="7" type="line"/>
      <point x="8" y="-99" type="line"/>
      <point x="112" y="-105"/>
      <point x="231" y="-209"/>
      <point x="231" y="-295" type="qcurve"/>
      <point x="231" y="-387"/>
      <point x="84" y="-495"/>
      <point x="-42" y="-495" type="qcurve"/>
      <point x="-134" y="-495"/>
      <point x="-197" y="-470" type="qcurve"/>
    </contour>
  </outline>
</glyph>
